<?xml version="1.0" standalone="no"?>
<!DOCTYPE svg PUBLIC "-//W3C//DTD SVG 1.1//EN" "http://www.w3.org/Graphics/SVG/1.1/DTD/svg11.dtd" >
<svg>
<metadata>
Created by FontForge 20090914 at Tue May 16 06:44:34 2017
 By www-data
Copyright (c) 2011 Silicon Andhra (fonts.siliconandhra.org). Copyright (c) 2012, Eduardo Tunni (http://www.tipo.net.ar), with Reserved Font Name 'Joti'
</metadata>
<defs>
<font id="RaviPrakash-Regular" horiz-adv-x="0" >
  <font-face 
    font-family="Ravi Prakash"
    font-weight="400"
    font-stretch="normal"
    units-per-em="1024"
    panose-1="2 0 6 0 0 0 0 0 0 0"
    ascent="819"
    descent="-205"
    x-height="417"
    cap-height="545"
    bbox="-978 -684.001 1465.37 938"
    underline-thickness="20"
    underline-position="-684"
    unicode-range="U+000C-U+FFF2"
  />
<missing-glyph horiz-adv-x="374" 
d="M34 0v682h272v-682h-272zM68 34h204v614h-204v-614z" />
    <glyph glyph-name=".notdef" horiz-adv-x="374" 
d="M34 0v682h272v-682h-272zM68 34h204v614h-204v-614z" />
    <glyph glyph-name="uni0000" 
 />
    <glyph glyph-name="uni0000" 
 />
    <glyph glyph-name="nonmarkingreturn" 
 />
    <glyph glyph-name="space" unicode=" " horiz-adv-x="245" 
 />
    <glyph glyph-name="exclam" unicode="!" horiz-adv-x="313" 
d="M82 64c0 20.667 7.5 38.5 22.5 53.5s33 22.5 54 22.5s38.833 -7.5 53.5 -22.5s22 -32.833 22 -53.5s-7.33301 -38.5 -22 -53.5s-32.5 -22.5 -53.5 -22.5s-39 7.5 -54 22.5s-22.5 32.833 -22.5 53.5zM242 559l23 -33l-72 -333l-73 -8l-26 349z" />
    <glyph glyph-name="quotedbl" unicode="&#x22;" horiz-adv-x="369" 
d="M64 376l-31 218l116 11l-23 -227zM252 376l-31 218l117 11l-24 -227z" />
    <glyph glyph-name="numbersign" unicode="#" horiz-adv-x="650" 
d="M320 -56l45 162h-173l-60 -180l-58 18l44 162h-77l12 68l86 3l40 146l-113 -5l11 91h126l55 197l92 -26l-57 -171h156l55 197l91 -26l-57 -171h72l-13 -68l-83 -3l-48 -147l119 5l-12 -90h-135l-60 -180zM266 327l-50 -147l171 7l42 147z" />
    <glyph glyph-name="dollar" unicode="$" horiz-adv-x="469" 
d="M118 314c0 55.333 27.332 109.332 81.999 161.999l-11 138h81l-7 -86l66 46l99 -133c-42.667 -14.667 -77 -33.5 -103 -56.5s-39 -45.167 -39 -66.5s6.5 -51.333 19.5 -90s19.5 -66 19.5 -82c0 -45.333 -21.667 -83.666 -65 -114.999l10 -123h-81l7 89
c-28 -12 -65.667 -23.333 -113 -34l-17 53c76 21.333 114 59.333 114 114c0 14 -5.16699 30.833 -15.5 50.5s-20.666 41 -30.999 64s-15.5 46.167 -15.5 69.5z" />
    <glyph glyph-name="percent" unicode="%" horiz-adv-x="651" 
d="M202 -56l183 662l75 -18l-218 -654zM148 218c-33.333 0 -65.334 10.667 -96.001 32c-18 45.333 -27 89.333 -27 132c0 73.333 17.333 129 52 167c24.667 7.33301 46.334 11 65.001 11c34.667 0 66.667 -11 96 -33c19.333 -46 29 -89.333 29 -130
c0 -73.333 -17 -128.333 -51 -165c-25.333 -9.33301 -48 -14 -68 -14zM111.999 416c-13.333 -38 -20.001 -69.667 -20.001 -95s1 -43.333 3 -54c8.66699 -2 19 -3 31 -3c23.333 26.667 41.333 59 54 97s19 70 19 96s-1 44.333 -3 55c-9.33301 1.33301 -19 2 -29 2
c-23.333 -27.333 -41.666 -60 -54.999 -98zM506.998 -11c-33.333 0 -65.668 11.001 -97.001 33.001c-18 45.333 -27 88.666 -27 129.999c0 73.333 17.667 129 53 167c24.667 7.33301 46.667 11.333 66 12c34.667 0 66.334 -11 95.001 -33c19.333 -46 29 -89.667 29 -131
c0 -73.333 -17 -128.333 -51 -165c-25.333 -8.66699 -48 -13 -68 -13zM470.496 186.501c-13.667 -38.333 -20.501 -70.1689 -20.501 -95.502s1.33301 -43 4 -53c8.66699 -2 18.667 -3.33301 30 -4c23.333 26.667 41.5 59.167 54.5 97.5s19.5 70.333 19.5 96
s-1.33301 43.834 -4 54.501c-9.33301 1.33301 -18.666 2.33301 -27.999 3c-23.333 -27.333 -41.833 -60.166 -55.5 -98.499z" />
    <glyph glyph-name="ampersand" unicode="&#x26;" horiz-adv-x="503" 
d="M298 -10l-28.001 -1c-42 0 -80.833 4.83301 -116.5 14.5s-63.167 22.5 -82.5 38.5c-9.33301 44 -13.666 89.333 -12.999 136c0 80.667 13.833 156.167 41.5 226.5s70.5 126.833 128.5 169.5l158 -100c-81.333 -52 -144 -117.667 -188 -197l330 13l-2 -55l-87 -9l-69 -397
l-55 -7zM139.999 66c30 -6 57.833 -9 83.5 -9s48.167 1.66699 67.5 5l-16 144l-113 -12c-14.667 -44 -22 -86.667 -22 -128z" />
    <glyph glyph-name="quotesingle" unicode="'" horiz-adv-x="181" 
d="M64 376l-31 218l116 11l-23 -227z" />
    <glyph glyph-name="parenleft" unicode="(" horiz-adv-x="327" 
d="M66 283c0 112 33.334 219.333 100.001 322l137 -26c-100.667 -114 -151.334 -231.667 -152.001 -353c0 -92.667 29 -190 87 -292l-49 -14c-82 116 -123 237 -123 363z" />
    <glyph glyph-name="parenright" unicode=")" horiz-adv-x="327" 
d="M176 226c0 121.333 -50.332 239 -150.999 353l137 26c67.333 -102 100.666 -209.333 99.999 -322c0 -126.667 -41.333 -247.667 -124 -363l-48 14c57.333 102 86 199.333 86 292z" />
    <glyph glyph-name="asterisk" unicode="*" horiz-adv-x="467" 
d="M279 571l-17 -126l92 78l56 -81l-117 -48l114 -40l-42 -89l-100 77l21 -118l-97 -9l16 126l-92 -78l-55 81l116 47l-113 42l42 89l99 -79l-21 119z" />
    <glyph glyph-name="plus" unicode="+" horiz-adv-x="500" 
d="M296 302h132l-9 -68l-123 -8v-146l-68 9l-10 132l-144 -9l8 90h132l-8 132l90 -8v-124z" />
    <glyph glyph-name="comma" unicode="," horiz-adv-x="233" 
d="M114 -3c-7.33301 -6 -17.167 -9.00098 -29.5 -9.00098s-22.666 6.83301 -30.999 20.5s-12.5 32.834 -12.5 57.501s5.16699 43.167 15.5 55.5s30.5 18.5 60.5 18.5s53.333 -8.66699 70 -26c4 -20 6.33301 -43 7 -69c0 -86.667 -24 -151.667 -72 -195l-62 49
c31.333 26 50.666 58 57.999 96z" />
    <glyph glyph-name="hyphen" unicode="-" horiz-adv-x="364" 
d="M307 301v-76l-249 -39l4 115h245z" />
    <glyph glyph-name="period" unicode="." horiz-adv-x="233" 
d="M41 64c0 21.333 6.16699 38.666 18.5 51.999s31.666 20 57.999 20s45.666 -6.66699 57.999 -20s18.5 -30.666 18.5 -51.999s-6.16699 -38.666 -18.5 -51.999s-31.666 -20 -57.999 -20s-45.666 6.66699 -57.999 20s-18.5 30.666 -18.5 51.999z" />
    <glyph glyph-name="slash" unicode="/" horiz-adv-x="405" 
d="M66 -56l183 662l92 -26l-218 -654z" />
    <glyph glyph-name="zero" unicode="0" horiz-adv-x="527" 
d="M269 -19c-66 0 -117.667 17 -155 51c-31.333 76.667 -47.166 149.667 -47.499 219s7.83398 126.333 24.501 171s36.334 79 59.001 103c41.333 13.333 78 20 110 20c66 0 117.333 -17 154 -51c31.333 -76.667 47.166 -149.667 47.499 -219s-7.83398 -126.333 -24.501 -171
s-36.334 -79 -59.001 -103c-42 -13.333 -78.333 -20 -109 -20zM357 397c0 25.333 -2 47.666 -6 66.999c-16 4 -35 6 -57 6c-38.667 -43.333 -68.834 -96.166 -90.501 -158.499s-32.5 -122.833 -32.5 -181.5c0 -25.333 2 -48 6 -68c16 -4 35 -5.66699 57 -5
c38.667 43.333 68.834 95.833 90.501 157.5s32.5 122.5 32.5 182.5z" />
    <glyph glyph-name="one" unicode="1" horiz-adv-x="387" 
d="M284 546l30 -13l-56 -536l-91 -8l-30 393l-95 -68l-42 89z" />
    <glyph glyph-name="two" unicode="2" horiz-adv-x="473" 
d="M226 545c70 0 126 -13.002 168 -39.002c6.66699 -21.333 9.66699 -43.333 9 -66c0 -64 -24.167 -130.167 -72.5 -198.5s-108.166 -124.166 -179.499 -167.499v-7l258 26v-93h-376l-6 55c59.333 28 110 76.833 152 146.5s63 134.5 63 194.5
c0 46.667 -14.667 78.334 -44 95.001l-124 -84l-43 89c29.333 16.667 58.166 29 86.499 37s64.5 12 108.5 12z" />
    <glyph glyph-name="three" unicode="3" horiz-adv-x="469" 
d="M248 401c0 40.667 -16.6641 70.6641 -49.9971 89.9971l-116 -84l-43 89c30.667 17.333 58.667 29.833 84 37.5s59.666 11.5 102.999 11.5c70 0 126 -13 168 -39c4.66699 -14.667 7 -29 7 -43c0 -52.667 -27.333 -104.667 -82 -156c19.333 0 36.666 -2 51.999 -6
c22 -21.333 38.667 -44.666 50 -69.999s17 -57.666 17 -96.999c0 -52 -15.833 -90.667 -47.5 -116s-82.667 -38 -153 -38s-136.833 17 -199.5 51l40 74c60 -38.667 128 -59.667 204 -63c8 30.667 12.167 69.334 12.5 116.001s-3.83398 77 -12.501 91
c-33.333 -8.66699 -65.333 -22.334 -96 -41.001l-21 27l11 11c24 22.667 42 48.334 54 77.001s18 54.667 18 78z" />
    <glyph glyph-name="four" unicode="4" horiz-adv-x="471" 
d="M143 153c25.333 -3.33301 52.166 -4.99805 80.499 -4.99805s55.5 2 81.5 6l-8 124l142 10l-31 -291l-91 -9l-7 87c-8 -0.666992 -26.667 -1 -56 -1s-62 4.66699 -98 14s-63.333 21.666 -82 36.999c-9.33301 39.333 -13.666 77 -12.999 113
c0 71.333 16.833 136.666 50.5 195.999s73.167 100.333 118.5 123l149 -100c-65.333 -32.667 -121 -77.5 -167 -134.5s-69 -113.5 -69 -169.5z" />
    <glyph glyph-name="five" unicode="5" horiz-adv-x="469" 
d="M323 307c18 0 34.001 -2.00293 48.001 -6.00293c22 -21.333 38.667 -44.666 50 -69.999s17 -57.666 17 -96.999c0 -52 -15.833 -90.667 -47.5 -116s-82.667 -38 -153 -38s-136.833 17 -199.5 51l40 74c60 -38.667 128 -59.667 204 -63
c8 30.667 12.167 69.334 12.5 116.001s-3.83398 77 -12.501 91c-46.667 -6 -86.667 -19.667 -120 -41l-66 8l-51 290l13 18l344 14l-16 -97l-169 14l-44 -194c48.667 30.667 98.667 46 150 46z" />
    <glyph glyph-name="six" unicode="6" horiz-adv-x="469" 
d="M163 54c23.333 -12 43.667 -17.833 61 -17.5s34 2.16602 50 5.49902c8 30.667 12 69.334 12 116.001s-4 77 -12 91c-55.333 -19.333 -92.333 -84.333 -111 -195zM314.001 309c17.333 0 33.668 -2.66797 49.001 -8.00098c22 -21.333 38.667 -44.666 50 -69.999
s17 -61 17 -107s-13.333 -81.5 -40 -106.5s-74 -37.5 -142 -37.5c-37.333 0 -72.333 5 -105 15s-58.667 23 -78 39c-9.33301 46 -14.333 91.333 -15 136c0 89.333 18.167 168.333 54.5 237s78.166 118.667 125.499 150l149 -100c-115.333 -73.333 -190 -161.333 -224 -264
l10 -7c16.667 40 38 70.5 64 91.5s54.333 31.5 85 31.5z" />
    <glyph glyph-name="seven" unicode="7" horiz-adv-x="417" 
d="M12 538l353 -14l12 -18l-139 -509l-90 -8l31 465l-152 -13z" />
    <glyph glyph-name="eight" unicode="8" horiz-adv-x="504" 
d="M45 139c0 56 25.667 101.333 77 136c-7.33301 2 -13 4 -17 6c-30.667 40 -46 80.333 -46 121c0 95.333 63 143 189 143c54 0 105 -9 153 -27c30.667 -40 45.667 -80 45 -120c0 -49.333 -22 -90 -66 -122l31 -10c32.667 -42 49 -85.667 49 -131
c0 -103.333 -67.333 -155 -202 -155c-59.333 0 -114 9.66699 -164 29c-32.667 42 -49 85.333 -49 130zM181 122c0 -25.333 4.33301 -48.002 13 -68.002c20 -14.667 43.333 -21.667 70 -21c36 28.667 54 65.334 54 110.001s-11 80.334 -33 107.001c-14 2 -29.667 3 -47 3
c-38 -30 -57 -73.667 -57 -131zM328 412.998c0 21.333 -4.66797 41.333 -14.001 60c-20.667 12.667 -45 18.667 -73 18c-38.667 -26 -58 -60 -58 -102c0 -16 3.16699 -32.5 9.5 -49.5s14.833 -30.5 25.5 -40.5c14.667 -2 31.334 -3 50.001 -3c40 28 60 67 60 117z" />
    <glyph glyph-name="nine" unicode="9" horiz-adv-x="469" 
d="M317 471c-23.333 12 -43.667 17.833 -61 17.5s-34 -2.5 -50 -6.5c-8 -30.667 -12 -69 -12 -115s4 -76.333 12 -91c76 14 113.667 65 113 153c0 12 -0.666992 26 -2 42zM167.999 216c-14 0 -31 3.00098 -51 9.00098c-22 21.333 -38.667 44.666 -50 69.999s-17 57 -17 95
c0 52.667 13.333 91.667 40 117s74 38 142 38c37.333 0 72.333 -5 105 -15s58.667 -23 78 -39c9.33301 -46 14.333 -91.333 15 -136c0 -89.333 -20 -171.5 -60 -246.5s-83.333 -127.833 -130 -158.5l-139 93c38.667 24.667 75 56.667 109 96s62.333 80.333 85 123l-6 3
c-36.667 -32.667 -77 -49 -121 -49z" />
    <glyph glyph-name="colon" unicode=":" horiz-adv-x="233" 
d="M43 338c0 21.333 6.16699 38.666 18.5 51.999s31.666 20 57.999 20s45.666 -6.66699 57.999 -20s18.5 -30.666 18.5 -51.999s-6.16699 -38.666 -18.5 -51.999s-31.666 -20 -57.999 -20s-45.666 6.66699 -57.999 20s-18.5 30.666 -18.5 51.999zM41 64
c0 21.333 6.16699 38.666 18.5 51.999s31.666 20 57.999 20s45.666 -6.66699 57.999 -20s18.5 -30.666 18.5 -51.999s-6.16699 -38.666 -18.5 -51.999s-31.666 -20 -57.999 -20s-45.666 6.66699 -57.999 20s-18.5 30.666 -18.5 51.999z" />
    <glyph glyph-name="semicolon" unicode=";" horiz-adv-x="233" 
d="M114 -3c-7.33301 -6 -17.167 -9.00098 -29.5 -9.00098s-22.666 6.83301 -30.999 20.5s-12.5 32.834 -12.5 57.501s5.16699 43.167 15.5 55.5s30.5 18.5 60.5 18.5s53.333 -8.66699 70 -26c4 -20 6.33301 -43 7 -69c0 -86.667 -24 -151.667 -72 -195l-62 49
c31.333 26 50.666 58 57.999 96zM42.999 337.999c0 21.333 6.16699 38.666 18.5 51.999s31.666 20 57.999 20s45.666 -6.66699 57.999 -20s18.5 -30.666 18.5 -51.999s-6.16699 -38.666 -18.5 -51.999s-31.666 -20 -57.999 -20s-45.666 6.66699 -57.999 20
s-18.5 30.666 -18.5 51.999z" />
    <glyph glyph-name="less" unicode="&#x3c;" horiz-adv-x="500" 
d="M419 406l-232 -152l244 -112l-48 -78l-297 166v71l314 154z" />
    <glyph glyph-name="equal" unicode="=" horiz-adv-x="500" 
d="M419 316l-345 -22l8 90h346zM82 198l346 22l-9 -90h-345z" />
    <glyph glyph-name="greater" unicode="&#x3e;" horiz-adv-x="500" 
d="M82 114l232 151l-244 113l48 77l297 -165v-72l-313 -154z" />
    <glyph glyph-name="question" unicode="?" horiz-adv-x="332" 
d="M82 64c0 20.667 7.5 38.5 22.5 53.5s33 22.5 54 22.5s38.833 -7.5 53.5 -22.5s22 -32.833 22 -53.5s-7.33301 -38.5 -22 -53.5s-32.5 -22.5 -53.5 -22.5s-39 7.5 -54 22.5s-22.5 32.833 -22.5 53.5zM211 430c-58.667 0 -108 -9.33301 -148 -28l-29 142
c33.333 10 69 15 107 15c78 0 133 -13 165 -39c7.33301 -30.667 11 -60.667 11 -90c0 -54 -17.167 -102.833 -51.5 -146.5s-71.5 -75.167 -111.5 -94.5l-47 57c40.667 27.333 68.167 56 82.5 86s21.5 62.667 21.5 98z" />
    <glyph glyph-name="at" unicode="@" horiz-adv-x="817" 
d="M557 115.5c7.33301 -11.667 22.334 -17.502 45.001 -17.502s42.5 12.667 59.5 38s25.5 60.333 25.5 105s-4.66699 82.334 -14 113.001s-23.666 58.334 -42.999 83.001s-46.833 43.834 -82.5 57.501s-76 20.5 -121 20.5s-84.5 -5.66699 -118.5 -17
c-60.667 -20.667 -106.667 -59.334 -138 -116.001c-26 -51.333 -39 -114 -39 -188s18.667 -135.667 56 -185c43.333 -54.667 112.333 -82 207 -82c65.333 0 128 24.333 188 73l33 -50c-70.667 -51.333 -145.667 -77.333 -225 -78c-58 0 -109 9 -153 27
s-78.667 42.333 -104 73c-50.667 60.667 -76 134 -76 220c0 133.333 41.333 234.333 124 303c60 50 143.667 75 251 75c54.667 0 104 -8.66699 148 -26s79 -40.666 105 -69.999c51.333 -60 77 -135 77 -225c0 -34.667 -4.83301 -64.667 -14.5 -90
s-21.167 -44.833 -34.5 -58.5s-31 -25.5 -53 -35.5s-49.167 -15 -81.5 -15s-59.5 10.5 -81.5 31.5s-35.333 50.167 -40 87.5h-6c-28 -72 -74.333 -108 -139 -108c-24 0 -44 19 -60 57s-24 80.833 -24 128.5s10 82 30 103s53 31.5 99 31.5s85.667 -10.667 119 -32l58 41
l24 -19l-12 -188c-0.666992 -4 -0.833984 -13.333 -0.500977 -28s4.16602 -27.834 11.499 -39.501zM447.001 326.998c-18 12.667 -37.167 19 -57.5 19s-37.833 -3.33301 -52.5 -10c-2.66699 -28.667 -4 -54 -4 -76s1.83301 -49.167 5.5 -81.5s7.83398 -54.5 12.501 -66.5
c19.333 4 39 19.333 59 46c25.333 32.667 37.666 89 36.999 169z" />
    <glyph glyph-name="A" unicode="A" horiz-adv-x="523" 
d="M25 0l153 545l198 -12l106 -533l-73 -12l-57 136l-218 -18l-28 -118zM214 442l-65 -273l185 -2l-114 275h-6z" />
    <glyph glyph-name="B" unicode="B" horiz-adv-x="574" 
d="M80 516c80.667 24.667 156.334 37 227.001 37s127 -13 169 -39c9.33301 -28 14 -54.667 14 -80c0 -57.333 -24.667 -104.333 -74 -141c30.667 -24 55 -51.333 73 -82s27 -59 27 -85c0 -43.333 -19.833 -78.833 -59.5 -106.5s-101.834 -41.5 -186.501 -41.5
c-48 0 -95.667 3.66699 -143 11zM214 49c30 -8 58.833 -12.001 86.5 -12.001s45.5 1.66699 53.5 5c19.333 38.667 29 77.334 29 116.001s-9 72 -27 100c-32.667 -14.667 -73.667 -28 -123 -40zM325 326.999c21.333 26 32 49.834 32 71.501s-3.83301 41.667 -11.5 60
s-18.167 32.166 -31.5 41.499c-12.667 0 -30 -3.33301 -52 -10l-24 -224c36.667 14.667 65.667 35 87 61z" />
    <glyph glyph-name="C" unicode="C" horiz-adv-x="411" 
d="M218 60c57.333 0 112.331 10.0029 164.998 30.0029l28 -89c-44 -14 -89 -21 -135 -21s-86.833 5 -122.5 15s-63.167 23 -82.5 39c-9.33301 46 -13.666 91.333 -12.999 136c0 91.333 17.167 174.166 51.5 248.499s73.833 126.166 118.5 155.499l158 -100
c-75.333 -48 -135.166 -109.333 -179.499 -184s-66.5 -149.334 -66.5 -224.001c23.333 -4 49.333 -6 78 -6z" />
    <glyph glyph-name="D" unicode="D" horiz-adv-x="535" 
d="M80 516c80.667 25.333 156.833 38 228.5 38s130.167 -10.667 175.5 -32c18 -44 27 -94.5 27 -151.5s-15.667 -114.833 -47 -173.5s-76.833 -107.5 -136.5 -146.5s-126.5 -59.5 -200.5 -61.5zM327.999 163.5c25.333 50.333 38.001 100.5 38.001 150.5
c0 97.333 -22.667 159.333 -68 186c-9.33301 0 -21.333 -2 -36 -6l-46 -436c49.333 20 86.666 55.167 111.999 105.5z" />
    <glyph glyph-name="E" unicode="E" horiz-adv-x="495" 
d="M435 0l-321 -7l-38 540l362 11l-3 -55l-173 -20l-21 -170l174 2l4 -74l-185 14l-22 -183l226 26z" />
    <glyph glyph-name="F" unicode="F" horiz-adv-x="469" 
d="M395 202l-164 13l-26 -218l-91 -4l-38 540l362 11l-3 -55l-173 -20l-24 -195l152 2z" />
    <glyph glyph-name="G" unicode="G" horiz-adv-x="471" 
d="M314 -9c-14.667 -1.33301 -36.168 -1.99902 -64.501 -1.99902s-60.333 4.83301 -96 14.5s-63.167 22.5 -82.5 38.5c-9.33301 44 -13.666 89.333 -12.999 136c0 80.667 13.833 156.167 41.5 226.5s70.5 126.833 128.5 169.5l158 -100
c-75.333 -48 -135.166 -109.333 -179.499 -184s-66.5 -149.334 -66.5 -224.001c30 -6 59.667 -9 89 -9s55.666 2.66699 78.999 8l-16 179l155 10l-49 -288l-80 -7z" />
    <glyph glyph-name="H" unicode="H" horiz-adv-x="629" 
d="M420 -13l-18 215l-173 -15l-20 -190l-82 -8l-47 544l187 12l-31 -295l162 -1l-24 282l186 12l-58 -548z" />
    <glyph glyph-name="I" unicode="I" horiz-adv-x="352" 
d="M127 -11l-47 544l195 12l-58 -548z" />
    <glyph glyph-name="J" unicode="J" horiz-adv-x="344" 
d="M98 -20c-33.333 0 -68 9.33301 -104 28l14 45c24 -7.33301 43 -11.333 57 -12c39.333 0 59 24.333 59 73c0 7.33301 -11.667 147 -35 419l194 12l-45 -430c-9.33301 -90 -56 -135 -140 -135z" />
    <glyph glyph-name="K" unicode="K" horiz-adv-x="557" 
d="M512 489l-173 -181l203 -307l-174 -12l-110 233l-19 -19l-22 -206l-90 -8l-47 544l195 12l-26 -247l190 247z" />
    <glyph glyph-name="L" unicode="L" horiz-adv-x="413" 
d="M418 0l-304 -7l-38 540l195 12l-59 -486l210 25z" />
    <glyph glyph-name="M" unicode="M" horiz-adv-x="768" 
d="M630 -12l-117 435h-7l-89 -423l-74 -12l-177 403h-5l-14 -391l-81 -4l38 537l198 8l83 -391l96 395l198 -12l25 -533z" />
    <glyph glyph-name="N" unicode="N" horiz-adv-x="566" 
d="M526 541l-36 -541l-73 -12l-266 439h-6l2 -427l-81 -4l22 537l198 12l144 -409h6l8 401z" />
    <glyph glyph-name="O" unicode="O" horiz-adv-x="482" 
d="M442 170c0 -33.333 -2.83496 -61.001 -8.50195 -83.001s-15.5 -41.667 -29.5 -59c-27.333 -31.333 -80.166 -47.166 -158.499 -47.499s-139.166 17.5 -182.499 53.5c-9.33301 46 -14 91.333 -14 136c0 90.667 17 171.667 51 243s73.667 122.333 119 153
c64 -26 117.167 -75 159.5 -147s63.5 -155 63.5 -249zM341.998 205.999c0 84 -13.6689 156 -41.002 216c-52.667 -48.667 -94 -104.834 -124 -168.501s-45 -126.167 -45 -187.5c18.667 -4 46.834 -6 84.501 -6s74.834 6 111.501 18c9.33301 42.667 14 85.334 14 128.001z
" />
    <glyph glyph-name="P" unicode="P" horiz-adv-x="515" 
d="M80 516c76 24.667 153.333 37.002 232 37.002s138.667 -13 180 -39c9.33301 -29.333 14.333 -57.333 15 -84c0 -62.667 -26 -115.334 -78 -158.001s-118.667 -73.334 -200 -92.001l-20 -183l-82 -8zM349 406.002c0 42 -17 73.333 -51 94c-9.33301 0 -21.333 -2 -36 -6
l-28 -258c36 20 64.167 45.667 84.5 77s30.5 62.333 30.5 93z" />
    <glyph glyph-name="Q" unicode="Q" horiz-adv-x="482" 
d="M442 170c0 -50 -7 -89.332 -21 -117.999s-39.667 -48.334 -77 -59.001l92 -118l-148 -10l-46 115c-77.333 0.666992 -137 18.667 -179 54c-9.33301 46 -14 91.333 -14 136c0 90.667 17 171.667 51 243s73.667 122.333 119 153c64 -26 117.167 -75 159.5 -147
s63.5 -155 63.5 -249zM342 206.001c0 84 -13.6689 156 -41.002 216c-52.667 -48.667 -94 -104.834 -124 -168.501s-45 -126.167 -45 -187.5c18.667 -4 46.834 -6 84.501 -6s74.834 6 111.501 18c9.33301 42.667 14 85.334 14 128.001z" />
    <glyph glyph-name="R" unicode="R" horiz-adv-x="574" 
d="M254 208c-9.33301 -3.33301 -17 -5 -23 -5l-22 -206l-82 -8l-47 527c28.667 9.33301 67 17.833 115 25.5s94 11.5 138 11.5c70 0 126 -13 168 -39c9.33301 -29.333 14 -56.333 14 -81c0 -68.667 -39.333 -125.667 -118 -171l137 -261l-57 -32zM357 410
c0 38.667 -17 68.666 -51 89.999c-13.333 0 -28 -3 -44 -9l-25 -236c38 17.333 67.5 40.333 88.5 69s31.5 57.334 31.5 86.001z" />
    <glyph glyph-name="S" unicode="S" horiz-adv-x="352" 
d="M40 361c0 76.667 41 147.666 123 212.999l150 -100c-68 -42.667 -102 -88 -102 -136c0 -20 6.83301 -41.167 20.5 -63.5l41.5 -66.5c14 -22 21 -42.667 21 -62c0 -78.667 -54.667 -139.667 -164 -183l-39 53c26.667 14.667 45.167 28.834 55.5 42.501
s15.5 28.834 15.5 45.501s-6.33301 35.167 -19 55.5s-26.667 39 -42 56s-29.333 38.667 -42 65s-19 53.166 -19 80.499z" />
    <glyph glyph-name="T" unicode="T" horiz-adv-x="463" 
d="M33 534l418 11l-2 -55l-115 -12l-51 -481l-89 -8l-42 471l-114 -11z" />
    <glyph glyph-name="U" unicode="U" horiz-adv-x="569" 
d="M280 -20c-48.667 0 -89.001 15 -121.001 45s-51.333 78.333 -58 145l-39 363l195 12c-22.667 -263.333 -34 -399 -34 -407c0 -62.667 29.667 -94 89 -94c27.333 0 50.5 8.33301 69.5 25s28.833 46 29.5 88l7 380l83 4l-25 -385
c-7.33301 -117.333 -72.666 -176 -195.999 -176z" />
    <glyph glyph-name="V" unicode="V" horiz-adv-x="490" 
d="M200 545l66 -411h8l118 411l74 -20l-178 -525l-74 -12l-202 534z" />
    <glyph glyph-name="W" unicode="W" horiz-adv-x="756" 
d="M211 545l57 -413h6l124 388l66 -19l85 -372h6l95 416l73 -20l-145 -525l-73 -12l-126 276l-93 -264l-90 -12l-172 534z" />
    <glyph glyph-name="X" unicode="X" horiz-adv-x="516" 
d="M25 10l158 255l-142 257l189 23l72 -203l94 203l94 -23l-159 -252l161 -258l-189 -23l-89 207l-96 -208z" />
    <glyph glyph-name="Y" unicode="Y" horiz-adv-x="456" 
d="M187 545l66 -297h8l117 294l67 -18l-141 -331l-31 -196l-82 -8l-25 182l-163 351z" />
    <glyph glyph-name="Z" unicode="Z" horiz-adv-x="458" 
d="M45 541l369 -8l12 -86l-320 -391l306 28l5 -84l-401 -7l3 54l223 419l-195 20z" />
    <glyph glyph-name="bracketleft" unicode="[" horiz-adv-x="348" 
d="M325 508h-110l-42 -495l135 -16l8 -41l-191 -42l-43 638l243 36v-80z" />
    <glyph glyph-name="backslash" unicode="\" horiz-adv-x="405" 
d="M158 606l183 -662l-58 -18l-217 654z" />
    <glyph glyph-name="bracketright" unicode="]" horiz-adv-x="348" 
d="M25 508v80l242 -36l-42 -638l-192 42l8 41l135 16l-42 495h-109z" />
    <glyph glyph-name="asciicircum" unicode="^" horiz-adv-x="500" 
d="M362 297l-118 149l-80 -161l-78 48l132 215h72l122 -232z" />
    <glyph glyph-name="underscore" unicode="_" horiz-adv-x="470" 
d="M427 -80l-394 -22l11 90h394z" />
    <glyph glyph-name="grave" unicode="`" horiz-adv-x="358" 
d="M139 617l146 -100l-27 -55l-168 52z" />
    <glyph glyph-name="a" unicode="a" horiz-adv-x="474" 
d="M110 -19c-9.33301 0 -16 0.331055 -20 0.998047c-18.667 12.667 -33.5 31.334 -44.5 56.001s-16.5 52.5 -16.5 83.5s13.167 54.333 39.5 70s74.833 23.5 145.5 23.5c26 0 53.667 -1.66699 83 -5l-2 18c-2 22 -12.333 39.333 -31 52s-42.5 19 -71.5 19
s-57.833 -9 -86.5 -27l-36 118c46.667 19.333 100 29 160 29s107.5 -13.5 142.5 -40.5s52.5 -69.167 52.5 -126.5c0 -13.333 -0.666992 -23.666 -2 -30.999l-22 -226l-82 -7l-12 118h-6c-18.667 -39.333 -44.5 -70 -77.5 -92s-70.833 -33 -113.5 -33zM300 174.998l-43 1
c-36 0 -65.667 -2 -89 -6c-7.33301 -15.333 -11 -29 -11 -41s1.5 -23.5 4.5 -34.5s6.5 -18.167 10.5 -21.5c65.333 10 108 44 128 102z" />
    <glyph glyph-name="b" unicode="b" horiz-adv-x="544" 
d="M381 429c9.33301 0 19.001 -2.00293 29.001 -6.00293c20 -23.333 36.167 -58.666 48.5 -105.999s18.5 -100.166 18.5 -158.499s-14.5 -102.666 -43.5 -132.999s-78.333 -45.5 -148 -45.5s-132.834 14.333 -189.501 43l-38 536l175 27l-30 -328h7c22 52 48 93.5 78 124.5
s61 46.5 93 46.5zM183.001 34.9971c14.667 -1.33301 35.667 -1.99902 63 -1.99902s54 3 80 9c8 42 12 82 12 120c0 85.333 -5.33301 141.666 -16 168.999c-70 -28 -116.333 -126.667 -139 -296z" />
    <glyph glyph-name="c" unicode="c" horiz-adv-x="376" 
d="M186 52c52 0 101.334 8.66797 148.001 26.001l25 -79c-38.667 -12.667 -79 -19 -121 -19s-79.167 4.5 -111.5 13.5s-56.5 20.833 -72.5 35.5c-8 39.333 -12.333 75.666 -13 108.999c0 68 15.5 130 46.5 186s66.5 95.333 106.5 118l142 -93
c-68.667 -37.333 -122.834 -81.5 -162.501 -132.5s-59.5 -104.167 -59.5 -159.5c23.333 -3.33301 47.333 -5 72 -5z" />
    <glyph glyph-name="d" unicode="d" horiz-adv-x="573" 
d="M168 -19c-13.333 0 -24.334 2.33301 -33.001 7c-20 20.667 -36.167 51.5 -48.5 92.5s-18.5 90.333 -18.5 148s12.667 101.667 38 132s69.333 45.5 132 45.5c38.667 0 77.334 -7.66699 116.001 -23l-12 176l175 27l-52 -591l-82 -7l-10 141h-7
c-42 -98.667 -108 -148 -198 -148zM269.999 357c-20 0 -37.332 -3.66406 -51.999 -10.9971c-7.33301 -39.333 -11 -91.333 -11 -156s5.66699 -112.334 17 -143.001c26.667 4 54.667 23 84 57c15.333 17.333 28.166 42.166 38.499 74.499s15.5 69.166 15.5 110.499
c0 8 -0.666992 21 -2 39c-24.667 19.333 -54.667 29 -90 29z" />
    <glyph glyph-name="e" unicode="e" horiz-adv-x="436" 
d="M194 442c132 -52.667 198.001 -118.669 198.001 -198.002c0 -41.333 -11.667 -71 -35 -89s-60.5 -27 -111.5 -27s-89.5 3 -115.5 9c-10 -25.333 -15.333 -52 -16 -80c24.667 -3.33301 59 -5 103 -5s91.333 8.66699 142 26l24 -79c-40 -12.667 -84.667 -19 -134 -19
c-88.667 0 -153.667 16.333 -195 49c-8.66699 38.667 -13 75 -13 109c0 68.667 15.167 130.834 45.5 186.501s66.166 94.834 107.499 117.501zM146.001 174.998c6.66699 -0.666992 24.501 -1 53.501 -1s62.167 4 99.5 12c1.33301 10 2.33301 20.333 3 31
c0 32.667 -9.33301 64 -28 94c-54.667 -36 -97.334 -81.333 -128.001 -136z" />
    <glyph glyph-name="f" unicode="f" horiz-adv-x="352" 
d="M270 614l29.999 -140c-50 -17.333 -85.333 -47 -106 -89l135 7l-3 -54l-81 -12l-40 -331l-81 -7l-33 314l-69 -10l-6 84l74 3c4 73.333 23.333 129.5 58 168.5s75.334 61.167 122.001 66.5z" />
    <glyph glyph-name="g" unicode="g" horiz-adv-x="589" 
d="M270 358c-20 0 -37.333 -4.00195 -52 -12.002c-7.33301 -37.333 -11 -76 -11 -116c0 -84.667 5.66699 -140 17 -166c26 4.66699 53.667 22.334 83 53.001c16 16.667 29.167 40.334 39.5 71.001s15.5 66 15.5 106c0 6.66699 -0.666992 18.667 -2 36
c-25.333 18.667 -55.333 28 -90 28zM330 -180.002c-54.667 0 -110.668 18.999 -168.001 56.999l22 41c48.667 -21.333 89 -32 121 -32s55.5 8.5 70.5 25.5s22.5 39.5 22.5 67.5c0 8.66699 -5.66699 69.334 -17 182.001h-7c-40.667 -108.667 -109.334 -163 -206.001 -163
c-13.333 0 -24.333 2 -33 6c-20 20 -36.167 49.5 -48.5 88.5s-18.5 86.5 -18.5 142.5s12.667 98.5 38 127.5s69.333 43.5 132 43.5c46 0 85.667 -10.667 119 -32l18 24l158 23l-57 -458c-5.33301 -44 -20.666 -78.833 -45.999 -104.5s-58.666 -38.5 -99.999 -38.5z" />
    <glyph glyph-name="h" unicode="h" horiz-adv-x="544" 
d="M384 429c9.33301 0 19.334 -2.00195 30.001 -6.00195c28 -33.333 47 -91.666 57 -174.999s15 -166 15 -248l-147 -12c0 126 -4.33301 240.333 -13 343c-72.667 -26.667 -121.334 -138.667 -146.001 -336l-81 -7l-41 571l175 27l-31 -337h8
c22.667 54.667 49 98.334 79 131.001s61.667 49 95 49z" />
    <glyph glyph-name="i" unicode="i" horiz-adv-x="289" 
d="M99 -12l-41 406l175 26l-53 -425zM61 538.5c0 21 7.5 38.833 22.5 53.5s32.833 22 53.5 22s38.5 -7.33301 53.5 -22s22.5 -32.5 22.5 -53.5s-7.5 -39 -22.5 -54s-32.833 -22.5 -53.5 -22.5s-38.5 7.5 -53.5 22.5s-22.5 33 -22.5 54z" />
    <glyph glyph-name="j" unicode="j" horiz-adv-x="289" 
d="M61 538.5c0 21 7.5 38.833 22.5 53.5s32.833 22 53.5 22s38.5 -7.33301 53.5 -22s22.5 -32.5 22.5 -53.5s-7.5 -39 -22.5 -54s-32.833 -22.5 -53.5 -22.5s-38.5 7.5 -53.5 22.5s-22.5 33 -22.5 54zM56 -110c-35.333 0 -68 12 -98 36l24 42c16.667 -12 35 -17.667 55 -17
c38.667 0 58 24 58 72c0 5.33301 -12.333 129 -37 371l175 25l-53 -423c-8.66699 -70.667 -50 -106 -124 -106z" />
    <glyph glyph-name="k" unicode="k" horiz-adv-x="489" 
d="M431 397l-127 -133l178 -266l-156 -10l-102 191l-30 -28l-14 -156l-81 -7l-41 571l175 27l-31 -353l174 206z" />
    <glyph glyph-name="l" unicode="l" horiz-adv-x="289" 
d="M99 -12l-41 571l175 27l-53 -591z" />
    <glyph glyph-name="m" unicode="m" horiz-adv-x="761" 
d="M363 429c10 0 20.3311 -1.99902 30.998 -5.99902c21.333 -26 38.333 -73.333 51 -142h6c20 46 42.833 82.167 68.5 108.5s52.834 39.5 81.501 39.5c10 0 19.667 -2 29 -6c28 -33.333 47.333 -92.5 58 -177.5s16 -168.5 16 -250.5l-148 -7
c0 129.333 -4 243.666 -12 342.999c-65.333 -26 -108.666 -138 -129.999 -336l-96 -7c0 129.333 -4 243.666 -12 342.999c-24.667 -9.33301 -48.5 -35.166 -71.5 -77.499s-40.167 -108.5 -51.5 -198.5l-7 -60l-81 -7l-41 406l175 27l-16 -127h5c42.667 90 91 135 145 135z
" />
    <glyph glyph-name="n" unicode="n" horiz-adv-x="540" 
d="M379 429c10 0 20.333 -2.00098 31 -6.00098c28 -33.333 47 -91.666 57 -174.999s15 -166 15 -248l-147 -12c0 126 -4.66699 240.333 -14 343c-72.667 -26.667 -121 -138.667 -145 -336l-81 -7l-41 406l175 27l-19 -144h8c22 47.333 46.833 84.5 74.5 111.5
s56.5 40.5 86.5 40.5z" />
    <glyph glyph-name="o" unicode="o" horiz-adv-x="440" 
d="M334 333c44 -51.333 66.001 -109.667 66.001 -175s-13 -111.333 -39 -138s-74 -40 -144 -40s-124.333 16 -163 48c-26.667 130.667 -11.334 236.667 45.999 318c36 50 67.667 82 95 96c52 -26.667 98.333 -63 139 -109zM292.001 68.999c8.66699 33.333 13 72 13 116
s-11 87.333 -33 130c-45.333 -24 -82.833 -60.5 -112.5 -109.5s-44.5 -98.5 -44.5 -148.5c17.333 -3.33301 42.5 -5 75.5 -5s66.833 5.66699 101.5 17z" />
    <glyph glyph-name="p" unicode="p" horiz-adv-x="554" 
d="M390 429c10 0 20 -2.00098 30 -6.00098c20 -23.333 36 -58.666 48 -105.999s18 -100 18 -158s-12.667 -102.333 -38 -133s-69.333 -46 -132 -46c-44.667 0 -86.667 9.33301 -126 28l-23 -178l-76 -8l-25 572l175 27l-18 -144h6c22 46.667 46.833 83.667 74.5 111
s56.5 41 86.5 41zM284 30.999c20 0 37.334 3.66699 52.001 11c8 42 12 82 12 120c0 80.667 -5.33301 137 -16 169c-12 -4.66699 -21 -8.66699 -27 -12s-15.667 -11 -29 -23c-38.667 -36 -65.334 -114.333 -80.001 -235c24 -20 53.333 -30 88 -30z" />
    <glyph glyph-name="q" unicode="q" horiz-adv-x="589" 
d="M168 -19c-13.333 0 -24.333 2.33301 -33 7c-20 20.667 -36.167 51.5 -48.5 92.5s-18.5 90.333 -18.5 148s12.667 101.667 38 132s69.333 45.5 132 45.5c46 0 85.667 -10.667 119 -32l18 24l158 23l-75 -591l-76 -8l-13 300h-6c-42 -94 -107 -141 -195 -141zM270 357
c-20 0 -37.332 -3.66406 -51.999 -10.9971c-7.33301 -39.333 -11 -91.333 -11 -156s5.66699 -112.334 17 -143.001c26.667 4 54.667 23 84 57c15.333 17.333 28.166 42.166 38.499 74.499s15.5 69.166 15.5 110.499c0 8 -0.666992 21 -2 39
c-24.667 19.333 -54.667 29 -90 29z" />
    <glyph glyph-name="r" unicode="r" horiz-adv-x="384" 
d="M314 270c-37.333 0 -65.5 -13 -84.5 -39s-33.167 -73.667 -42.5 -143l-11 -93l-81 -7l-41 406l175 27l-17 -131h6c44 94 99.667 144 167 150l-23 -174c-20 2.66699 -36 4 -48 4z" />
    <glyph glyph-name="s" unicode="s" horiz-adv-x="343" 
d="M49 270c0 70 37 133.998 111 191.998l134 -91c-60.667 -38.667 -91 -79.334 -91 -122.001c0 -22.667 12.5 -52 37.5 -88s37.5 -64 37.5 -84c0 -71.333 -49.333 -126.666 -148 -165.999l-36 49c43.333 23.333 65 48.833 65 76.5s-18.333 61.834 -55 102.501
c-14 15.333 -26.667 34.833 -38 58.5s-17 47.834 -17 72.501z" />
    <glyph glyph-name="t" unicode="t" horiz-adv-x="352" 
d="M124 -12l-35 330l-76 -10l-5 84l72 4l-12 114l204 28l-17 -133l82 4l-3 -55l-87 -12l-42 -347z" />
    <glyph glyph-name="u" unicode="u" horiz-adv-x="564" 
d="M330.5 181c7.66699 30.667 11.499 57.332 11.499 79.999s-3 67 -9 133l175 26l-53 -425l-81 -7l-16 155h-6c-40.667 -108 -105 -162 -193 -162c-13.333 0 -24.333 2.33301 -33 7c-28 33.333 -47 90.666 -57 171.999s-15 162.333 -15 243l163 12
c-9.33301 -95.333 -14.166 -166.666 -14.499 -213.999s3.5 -98.666 11.5 -153.999c30 6.66699 55 23 75 49s33.833 54.333 41.5 85z" />
    <glyph glyph-name="v" unicode="v" horiz-adv-x="456" 
d="M200 420l54 -314h7l105 312l67 -18l-160 -402l-67 -10l-181 406z" />
    <glyph glyph-name="w" unicode="w" horiz-adv-x="677" 
d="M194 418l50 -318h6l112 290l58 -17l76 -275h6l85 315l67 -18l-131 -397l-66 -10l-119 191l-77 -181l-82 -10l-154 406z" />
    <glyph glyph-name="x" unicode="x" horiz-adv-x="441" 
d="M25 0l125 190l-117 204l175 24l54 -148l74 148l74 -18l-125 -190l133 -210l-176 -18l-68 152l-75 -152z" />
    <glyph glyph-name="y" unicode="y" horiz-adv-x="463" 
d="M202 -146c-20.667 -18.667 -47.835 -28 -81.502 -28s-65.5 12.333 -95.5 37l24 42c18 -6.66699 37.833 -10 59.5 -10s41.334 7.16699 59.001 21.5s28.834 35.833 33.501 64.5l-170 413l175 26l55 -314h6l106 312l66 -18l-177 -447
c-19.333 -47.333 -39.333 -80.333 -60 -99z" />
    <glyph glyph-name="z" unicode="z" horiz-adv-x="458" 
d="M62 417l333 -7l11 -85l-275 -271l254 29l5 -83l-353 -7l2 49l185 300l-159 17z" />
    <glyph glyph-name="braceleft" unicode="{" horiz-adv-x="348" 
d="M177 40c0 -32 17.666 -47.999 52.999 -47.999c18.667 0 45 3 79 9l7 -45c-54.667 -20 -96.167 -30 -124.5 -30s-47 7.83301 -56 23.5s-15.167 41.834 -18.5 78.501l-13 187l-57 11l-4 39l57 22c-6.66699 96.667 -10 154 -10 172s3.5 35.667 10.5 53s16.333 31 28 41
s28.167 17.667 49.5 23c32.667 8 81.667 12 147 12v-50c-32.667 0 -59.167 -5.83301 -79.5 -17.5s-31.166 -26.834 -32.499 -45.501l-14 -153c-2.66699 -30.667 -22 -51.667 -58 -63l-2 -7c33.333 -10.667 50 -27.334 50 -50.001z" />
    <glyph glyph-name="bar" unicode="|" horiz-adv-x="291" 
d="M113 -83l-24 689h114l-25 -689h-65z" />
    <glyph glyph-name="braceright" unicode="}" horiz-adv-x="348" 
d="M172 40l-11.0039 162c0 22.667 16.333 39.334 49 50.001l-2 7c-36 10.667 -55.333 31.667 -58 63l-14 153c-1.33301 18.667 -12 33.834 -32 45.501s-46.333 17.5 -79 17.5v50c64.667 0 110.334 -3.33301 137.001 -10s45.667 -15 57 -25
c26.667 -22.667 40.334 -57.334 41.001 -104.001c0 -10.667 -3.66699 -64.667 -11 -162l57 -22l-4 -39l-57 -11l-13 -187c-2.66699 -36.667 -8.66699 -62.834 -18 -78.501s-28.166 -23.5 -56.499 -23.5s-69.833 10 -124.5 30l7 45c34.667 -6 61.334 -9 80.001 -9
c34.667 0 52 16 52 48z" />
    <glyph glyph-name="asciitilde" unicode="~" horiz-adv-x="500" 
d="M419 239c-20.667 12.667 -43.834 19 -69.501 19s-59.167 -12 -100.5 -36s-76.166 -36 -104.499 -36s-51.833 8.66699 -70.5 26l5 93c20 -17.333 43.333 -26 70 -26s59.167 7.83301 97.5 23.5s71.5 23.5 99.5 23.5s55.333 -9.33301 82 -28z" />
    <glyph glyph-name="nbsp" unicode="&#xa0;" horiz-adv-x="245" 
 />
    <glyph glyph-name="exclamdown" unicode="&#xa1;" horiz-adv-x="313" 
d="M265 343c0 -20.667 -7.66699 -38.5 -23 -53.5s-33.166 -22.5 -53.499 -22.5s-38.166 7.5 -53.499 22.5s-23 32.833 -23 53.5s7.66699 38.5 23 53.5s33.166 22.5 53.499 22.5s38.166 -7.5 53.499 -22.5s23 -32.833 23 -53.5zM104 -152l-22 32l72 334l73 8l25 -348z" />
    <glyph glyph-name="cent" unicode="&#xa2;" horiz-adv-x="376" 
d="M41 204c0 60 12.002 115.333 36.002 166s53.667 90 89 118l-10 126h82l-12 -128l110 -72c-68.667 -37.333 -122.834 -81.333 -162.501 -132s-59.5 -104 -59.5 -160c22.667 -3.33301 46.667 -5 72 -5c52 0 101.333 9 148 27l25 -79c-38.667 -12.667 -83 -19 -133 -19
l12 -138h-82l11 142c-50.667 7.33301 -88.334 22 -113.001 44c-8.66699 40 -13 76.667 -13 110z" />
    <glyph glyph-name="sterling" unicode="&#xa3;" horiz-adv-x="517" 
d="M149 166c0 16.667 -2.66699 36.667 -8 60l-75 -6l8 66h50c-18.667 61.333 -28 108 -28 140s3.33301 58.667 10 80c42 26 98 39 168 39c44 0 80 -4.16699 108 -12.5s57 -20.5 87 -36.5l-43 -89l-124 84c-16.667 -10 -28.167 -22.667 -34.5 -38s-9.5 -37 -9.5 -65
s-0.333008 -62 -1 -102h121l-8 -44l-118 -8c-8 -80 -32.667 -139 -74 -177l3 -7l272 43l5 -93h-368l3 38c37.333 31.333 56 74 56 128z" />
    <glyph glyph-name="currency" unicode="&#xa4;" horiz-adv-x="555" 
d="M419 386c20 -26.667 30 -60.666 30 -101.999s-10 -75.333 -30 -102l95 -76l-58 -59l-78 98c-26.667 -14.667 -60 -22 -100 -22s-73.333 7.33301 -100 22l-79 -98l-58 59l95 76c-20 26.667 -30 60.667 -30 102s10 75.333 30 102l-95 77l58 58l79 -99
c26 15.333 59.167 23.166 99.5 23.499s73.833 -7.5 100.5 -23.5l78 99l58 -58zM294 388.001c-35.333 0 -58.833 -8.00098 -70.5 -24.001s-17.5 -43.667 -17.5 -83s3.66699 -69 11 -89c12 -8 27 -12.333 45 -13c35.333 0 58.333 8 69 24s16 43.833 16 83.5
s-3 69.834 -9 90.501c-12 7.33301 -26.667 11 -44 11z" />
    <glyph glyph-name="yen" unicode="&#xa5;" horiz-adv-x="456" 
d="M187 545l66 -297h8l117 294l67 -18l-95 -222h76l-10 -43l-86 -5l-27 -62l-5 -37h112l-10 -44l-110 -6l-17 -108l-82 -8l-16 109l-141 -8l10 65h124l-2 16l-33 71l-83 -5l11 65h44l-102 220z" />
    <glyph glyph-name="brokenbar" unicode="&#xa6;" horiz-adv-x="291" 
d="M203 606l-7 -196h-101l-6 196h114zM113 -83l-9 241h82l-8 -241h-65z" />
    <glyph glyph-name="section" unicode="&#xa7;" horiz-adv-x="507" 
d="M462 181c0 -62 -41 -109.666 -123 -142.999c12 -25.333 18 -52.333 18 -81c0 -54.667 -29 -109.667 -87 -165l-181 102c46.667 32.667 70 68.667 70 108c0 33.333 -18.667 68.666 -56 105.999c-14 14 -27 31.5 -39 52.5s-18 42.833 -18 65.5
c0 59.333 40.667 106.333 122 141c-12 25.333 -18 53 -18 83c0 53.333 29.667 108 89 164l181 -102c-48 -33.333 -72 -69.333 -72 -108c0 -18.667 5.83301 -37.5 17.5 -56.5s24.667 -35.333 39 -49s27.5 -31 39.5 -52s18 -42.833 18 -65.5zM294 98.001
c26.667 18.667 40 36.668 40 54.001s-5.33301 33.666 -16 48.999s-28 34.166 -52 56.499s-41.333 39.5 -52 51.5c-27.333 -19.333 -40.833 -37.833 -40.5 -55.5s5.83301 -34 16.5 -49s28.5 -34.167 53.5 -57.5s41.833 -39.666 50.5 -48.999z" />
    <glyph glyph-name="dieresis" unicode="&#xa8;" horiz-adv-x="358" 
d="M31 538c0 18.667 6.16699 34.834 18.5 48.501s26.833 20.5 43.5 20.5s31.334 -6.83301 44.001 -20.5s19 -29.834 19 -48.501s-6.33301 -34.667 -19 -48s-27.334 -20 -44.001 -20s-31.167 6.66699 -43.5 20s-18.5 29.333 -18.5 48zM203 538
c0 18.667 6.16699 34.834 18.5 48.501s27 20.5 44 20.5s31.667 -6.83301 44 -20.5s18.5 -29.834 18.5 -48.501s-6.16699 -34.667 -18.5 -48s-27 -20 -44 -20s-31.667 6.66699 -44 20s-18.5 29.333 -18.5 48z" />
    <glyph glyph-name="copyright" unicode="&#xa9;" horiz-adv-x="696" 
d="M94 589c108 36 205.667 54 293 54s149.833 -22.167 187.5 -66.5s56.167 -99.5 55.5 -165.5c0 -89.333 -26.667 -165.333 -80 -228s-118 -94 -194 -94c-182.667 0 -274 161.667 -274 485zM546 555.5c-34.667 36.333 -89.667 54.499 -165 54.499s-164.333 -16.333 -267 -49
c2 -293.333 82.667 -439.666 242 -438.999c66.667 0 123.667 28.167 171 84.5s71 124.5 71 204.5c0 60 -17.333 108.167 -52 144.5zM300 264.999c9.33301 -1.33301 28.002 -2.16699 56.002 -2.5s57 5.16699 87 16.5l19 -56c-26.667 -8.66699 -56 -13 -88 -13
c-54.667 0 -95 11 -121 33c-5.33301 26.667 -8 54 -8 82c0 54.667 10.667 104.167 32 148.5s45.666 75.833 72.999 94.5l99 -62c-45.333 -28.667 -81.333 -65 -108 -109s-40.334 -88 -41.001 -132z" />
    <glyph glyph-name="ordfeminine" unicode="&#xaa;" horiz-adv-x="333" 
d="M91 316c-5.33301 0 -9.66699 0.333984 -13 1.00098c-25.333 15.333 -38 43.666 -38 84.999c0 19.333 8.16699 33.833 24.5 43.5s40 14.5 71 14.5s51.833 -0.666992 62.5 -2c0 14.667 -5.33301 26.167 -16 34.5s-24.334 12.5 -41.001 12.5s-35 -6 -55 -18l-23 77
c30.667 12 63.834 17.833 99.501 17.5s64 -9 85 -26s31.5 -42.833 31.5 -77.5c0 -6.66699 -4.66699 -57.667 -14 -153l-53 -5l-6 62h-5c-12 -20 -27.5 -36 -46.5 -48s-40.167 -18 -63.5 -18zM263.999 242.001l-223 -22l8 66h223zM199.999 431.001
c-7.33301 1.33301 -18.167 2.00195 -32.5 2.00195s-27.833 -1 -40.5 -3c-4 -6.66699 -5.83301 -15.834 -5.5 -27.501s2.5 -20.834 6.5 -27.501c38 7.33301 62 26 72 56z" />
    <glyph glyph-name="guillemotleft" unicode="&#xab;" horiz-adv-x="588" 
d="M58 222l132 160l75 -37l-87 -146l107 -145l-70 -36l-152 143zM423 200l108 -146l-69 -36l-153 143l-6 61l133 160l74 -37z" />
    <glyph glyph-name="logicalnot" unicode="&#xac;" horiz-adv-x="500" 
d="M419 302v-228l-81 -8l14 164l-286 -18l8 90h345z" />
    <glyph glyph-name="registered" unicode="&#xae;" horiz-adv-x="696" 
d="M94 589c108 36 205.667 54 293 54s149.833 -22.167 187.5 -66.5s56.167 -99.5 55.5 -165.5c0 -89.333 -26.667 -165.333 -80 -228s-118 -94 -194 -94c-182.667 0 -274 161.667 -274 485zM546 555.5c-34.667 36.333 -89.667 54.499 -165 54.499s-164.333 -16.333 -267 -49
c2 -293.333 82.667 -439.666 242 -438.999c66.667 0 123.667 28.167 171 84.5s71 124.5 71 204.5c0 60 -17.333 108.167 -52 144.5zM417 377.999l82 -154l-37 -22l-132 143l-12 -3l-12 -123l-55 -5l-26 318c46.667 15.333 94 22.833 142 22.5s85 -7.83301 111 -22.5
c6 -17.333 9 -34.333 9 -51c0 -42 -23.333 -76.333 -70 -103zM371 419.499c12 16.333 18 33.667 18 52s-10 33.833 -30 46.5c-6 0 -13.667 -1.33301 -23 -4l-14 -135c20.667 10.667 37 24.167 49 40.5z" />
    <glyph glyph-name="macron" unicode="&#xaf;" horiz-adv-x="312" 
d="M277 501l-214 -23l6 98h213z" />
    <glyph glyph-name="degree" unicode="&#xb0;" horiz-adv-x="319" 
d="M195 519c-30 6 -53.168 3.00098 -69.501 -8.99902s-24.5 -28.333 -24.5 -49s7.66699 -40.334 23 -59.001c30.667 -7.33301 53.834 -4.83301 69.501 7.5s23.5 28.833 23.5 49.5s-7.33301 40.667 -22 60zM40.999 460.001c0 33.333 9.5 60.5 28.5 81.5s49 31.5 90 31.5
s71 -10.5 90 -31.5s28.5 -48.167 28.5 -81.5s-9.5 -60.333 -28.5 -81s-49 -31 -90 -31s-71 10.333 -90 31s-28.5 47.667 -28.5 81z" />
    <glyph glyph-name="plusminus" unicode="&#xb1;" horiz-adv-x="500" 
d="M296 368h132l-9 -68l-123 -8v-146l-68 8l-10 132l-144 -8l8 90h132l-8 132l90 -9v-123zM419 13l-345 -22l8 90h346z" />
    <glyph glyph-name="uni00B2" unicode="&#xb2;" horiz-adv-x="332" 
d="M47 544c38.667 22 78.835 32.999 120.502 32.999s76.167 -9 103.5 -27c4 -10.667 6.33301 -23 7 -37c0 -36.667 -12.5 -74.167 -37.5 -112.5s-56.833 -70.833 -95.5 -97.5v-5c80 8.66699 125 13 135 13v-65h-232l-3 39c35.333 16.667 65.166 46 89.499 88
s36.5 77.5 36.5 106.5s-6.33301 47.167 -19 54.5l-35.5 -24.5c-17.667 -12.333 -30.834 -21.166 -39.501 -26.499z" />
    <glyph glyph-name="uni00B3" unicode="&#xb3;" horiz-adv-x="330" 
d="M126 399c27.333 29.333 41 56.835 41 82.502s-8 43.167 -24 52.5c-8.66699 -6.66699 -32 -23.667 -70 -51l-31 61c14 7.33301 28.667 14.5 44 21.5s41.333 10.667 78 11s69.334 -8.5 98.001 -26.5c3.33301 -8.66699 4.66602 -17.667 3.99902 -27
c0 -28.667 -13.333 -57.334 -40 -86.001c6 0 12.667 -1.33301 20 -4c28 -26.667 42 -61 42 -103c0 -63.333 -40.333 -95.333 -121 -96c-44 0 -85.667 11.333 -125 34l28 50c35.333 -22.667 75.333 -35.334 120 -38.001c4.66699 18.667 7 39 7 61s-2.33301 38.667 -7 50
c-19.333 -4.66699 -38 -13 -56 -25l-17 23z" />
    <glyph glyph-name="acute" unicode="&#xb4;" horiz-adv-x="358" 
d="M106 517l146 100l50 -103l-168 -52z" />
    <glyph glyph-name="mu" unicode="&#xb5;" horiz-adv-x="564" 
d="M341 293c0 33.333 -2.66504 67.001 -7.99805 101.001l175 26l-53 -425l-81 -7l-16 155h-6c-32.667 -88 -81.334 -140 -146.001 -156v-158l-72 -16c-54 213.333 -80.667 410 -80 590l152 12v-372c43.333 9.33301 76.666 36.166 99.999 80.499s35 100.833 35 169.5z" />
    <glyph glyph-name="paragraph" unicode="&#xb6;" horiz-adv-x="517" 
d="M270 241.5c-24 -18.333 -47.8311 -27.501 -71.498 -27.501s-42.5 2.66699 -56.5 8c-22.667 15.333 -41 37.333 -55 66s-21 61 -21 97c0 66.667 13.167 115.5 39.5 146.5s73.166 46.5 140.499 46.5c37.333 0 72.666 -6.16699 105.999 -18.5s59.333 -28.5 78 -48.5
c9.33301 -57.333 14 -113.666 14 -168.999c0 -113.333 -18.333 -216.333 -55 -309s-77.667 -158.334 -123 -197.001l-151 126c53.333 42.667 99.5 94.667 138.5 156s67.833 126.333 86.5 195l-10 6c-16 -33.333 -36 -59.166 -60 -77.499z" />
    <glyph glyph-name="periodcentered" unicode="&#xb7;" horiz-adv-x="233" 
d="M41 236c0 21.333 6.16699 38.666 18.5 51.999s31.666 20 57.999 20s45.666 -6.66699 57.999 -20s18.5 -30.666 18.5 -51.999s-6.16699 -38.666 -18.5 -51.999s-31.666 -20 -57.999 -20s-45.666 6.66699 -57.999 20s-18.5 30.666 -18.5 51.999z" />
    <glyph glyph-name="cedilla" unicode="&#xb8;" horiz-adv-x="376" 
d="M130 -74c32.667 -14.667 58.833 -22.002 78.5 -22.002s38.5 3.66699 56.5 11c-14.667 30.667 -44.667 57.334 -90 80.001l23 41c57.333 -31.333 93 -59.666 107 -84.999c6.66699 -12.667 9.66699 -26 9 -40c0 -28 -12.833 -48.5 -38.5 -61.5s-53.5 -19.5 -83.5 -19.5
s-60 5.66699 -90 17z" />
    <glyph glyph-name="uni00B9" unicode="&#xb9;" horiz-adv-x="281" 
d="M192 578l24 -10l-34 -324l-64 -6l-13 231c-4 -2.66699 -12.833 -9 -26.5 -19s-23.5 -17 -29.5 -21l-30 61z" />
    <glyph glyph-name="ordmasculine" unicode="&#xba;" horiz-adv-x="337" 
d="M252 579.5c24.667 -43 37 -88.833 37 -137.5s-8 -81.834 -24 -99.501s-47.833 -26.5 -95.5 -26.5s-83.834 11.333 -108.501 34c-5.33301 26.667 -8 53.334 -8 80.001c0 54.667 10 103.5 30 146.5s43.667 73.167 71 90.5l3 1c38.667 -16 70.334 -45.5 95.001 -88.5z
M226 452c0 48.667 -7.99902 90.332 -23.999 124.999c-29.333 -28.667 -52.5 -61.5 -69.5 -98.5s-25.833 -73.167 -26.5 -108.5c7.33301 -1.33301 22.666 -2 45.999 -2s45 3.33301 65 10c6 26.667 9 51.334 9 74.001zM272.001 241.998l-223 -22l9 66h222z" />
    <glyph glyph-name="guillemotright" unicode="&#xbb;" horiz-adv-x="588" 
d="M531 177l-133 -159l-75 36l87 146l-107 145l70 37l152 -144zM165 199l-107 146l69 37l152 -144l6 -61l-133 -159l-74 36z" />
    <glyph glyph-name="onequarter" unicode="&#xbc;" horiz-adv-x="651" 
d="M191 -56l183 662l76 -18l-218 -654zM208 561l25 -10l-35 -323l-63 -6l-13 230c-16 -10.667 -34.667 -24 -56 -40l-31 62zM442 99c19.333 -2.66699 47.335 -2.33301 84.002 1l-4 74l96 5l-20 -181l-63 -6l-4 52c-66.667 0 -112.334 10 -137.001 30
c-6.66699 26 -10.334 50 -11.001 72c0 43.333 10.5 82.833 31.5 118.5s45.5 60.167 73.5 73.5l98 -64c-39.333 -19.333 -73 -45.5 -101 -78.5s-42.333 -65.167 -43 -96.5z" />
    <glyph glyph-name="onehalf" unicode="&#xbd;" horiz-adv-x="651" 
d="M169 -56l183 662l76 -18l-218 -654zM208 561l25 -10l-35 -323l-63 -6l-13 230c-16 -10.667 -34.667 -24 -56 -40l-31 62zM374 298c38.667 22 78.6689 33 120.002 33s76 -8.66699 104 -26c4 -10.667 6.33301 -23.334 7 -38.001c0 -36.667 -12.5 -74 -37.5 -112
s-56.833 -70.333 -95.5 -97v-6c80 8.66699 125 13.334 135 14.001v-66h-232l-3 39c35.333 16.667 65.166 46 89.499 88s36.5 77.5 36.5 106.5s-6.33301 47.167 -19 54.5l-35.5 -24c-17.667 -12 -30.834 -20.667 -39.501 -26z" />
    <glyph glyph-name="threequarters" unicode="&#xbe;" horiz-adv-x="651" 
d="M214 -56l184 662l75 -18l-219 -654zM110 382c27.333 29.333 40.8311 57 40.498 83s-8.16602 43.667 -23.499 53c-8.66699 -6.66699 -32 -23.667 -70 -51l-31 60c14 7.33301 25 13.333 33 18c22.667 10 52.334 15 89.001 15s69 -8.66699 97 -26
c3.33301 -8.66699 5 -17.667 5 -27c0 -28.667 -13.667 -57.667 -41 -87c6 0 13 -1.33301 21 -4c28 -26.667 42 -61 42 -103c0 -63.333 -40.667 -95 -122 -95c-44 0 -85.333 11 -124 33l28 51c35.333 -22.667 75 -35.334 119 -38.001c4.66699 18.667 7 38.834 7 60.501
s-2 38.5 -6 50.5c-19.333 -4.66699 -38.333 -13 -57 -25l-16 23zM441.998 99c19.333 -2.66699 47.335 -2.33301 84.002 1l-4 74l96 5l-20 -181l-63 -6l-4 52c-66.667 0 -112.334 10 -137.001 30c-6.66699 26 -10.334 50 -11.001 72c0 43.333 10.5 82.833 31.5 118.5
s45.5 60.167 73.5 73.5l98 -64c-39.333 -19.333 -73 -45.5 -101 -78.5s-42.333 -65.167 -43 -96.5z" />
    <glyph glyph-name="questiondown" unicode="&#xbf;" horiz-adv-x="332" 
d="M251 343c0 -20.667 -7.5 -38.5 -22.5 -53.5s-32.833 -22.5 -53.5 -22.5s-38.5 7.5 -53.5 22.5s-22.5 32.833 -22.5 53.5s7.5 38.5 22.5 53.5s32.833 22.5 53.5 22.5s38.5 -7.5 53.5 -22.5s22.5 -32.833 22.5 -53.5zM122 -23c58.667 0 108 9.33301 148 28l29 -142
c-33.333 -10 -69 -15 -107 -15s-71.333 3.66699 -100 11s-50 16.666 -64 27.999c-7.33301 30.667 -11.333 61 -12 91c0 54 17 102.667 51 146s71.333 74.666 112 93.999l47 -56c-40.667 -27.333 -68.167 -56.166 -82.5 -86.499s-21.5 -63.166 -21.5 -98.499z" />
    <glyph glyph-name="uni0283" unicode="&#x283;" horiz-adv-x="352" 
d="M77 -155c-35.333 0 -68.333 12.335 -99 37.002l25 42c16.667 -12 35 -18 55 -18c38.667 0 58 24 58 72c0 34.667 -4.5 84.5 -13.5 149.5s-14.167 103.167 -15.5 114.5l-71 -5l9 65h57v19c0 36 5.83301 68.167 17.5 96.5s26.834 51.166 45.501 68.499
c37.333 34.667 77.666 54.334 120.999 59.001l54 -140c-42.667 -6.66699 -73.167 -18.334 -91.5 -35.001s-32.5 -39.334 -42.5 -68.001h144l-9 -43l-83 -6l-36 -301c-9.33301 -71.333 -51 -107 -125 -107z" />
    <glyph glyph-name="circumflex" unicode="&#x2c6;" horiz-adv-x="379" 
d="M66 503l95 112l153 -75l-62 -74l-62 51l-96 -53z" />
    <glyph glyph-name="caron" unicode="&#x2c7;" horiz-adv-x="379" 
d="M314 531l-153 -76l-95 113l28 39l96 -53l62 51z" />
    <glyph glyph-name="uni02C9" unicode="&#x2c9;" horiz-adv-x="312" 
d="M261 501l-215 -23l7 98h213z" />
    <glyph glyph-name="breve" unicode="&#x2d8;" horiz-adv-x="392" 
d="M200 455c-28 0 -50.333 11.5 -67 34.5s-31 50.833 -43 83.5l44 27c8.66699 -15.333 15.334 -26.5 20.001 -33.5s11.167 -13.5 19.5 -19.5s19.166 -9 32.499 -9s24.5 5.83301 33.5 17.5s17.833 28.167 26.5 49.5l69 -46c-40.667 -69.333 -85.667 -104 -135 -104z" />
    <glyph glyph-name="dotaccent" unicode="&#x2d9;" horiz-adv-x="251" 
d="M200 601c0 -44 -3.33398 -79 -10.001 -105c-24.667 -9.33301 -50.667 -14 -78 -14s-46.333 1.33301 -57 4c0 40 7.66699 74.667 23 104c26.667 7.33301 67.334 11 122.001 11z" />
    <glyph glyph-name="ring" unicode="&#x2da;" horiz-adv-x="251" 
d="M202 612c14.667 -20 22 -44.832 22 -74.499s-8.66699 -53.334 -26 -71.001s-40.166 -26.5 -68.499 -26.5s-55.166 4.66699 -80.499 14c-14.667 20 -21.834 45 -21.501 75s9 53.667 26 71s39.667 26 68 26s55.166 -4.66699 80.499 -14zM162 544.001
c0 14.667 -2 26.999 -6 36.999c-5.33301 4 -15.333 6 -30 6c-24 -12 -36 -33.667 -36 -65c0 -13.333 1.66699 -25.666 5 -36.999c6 -4 16.333 -6 31 -6c24 12 36 33.667 36 65z" />
    <glyph glyph-name="ogonek" unicode="&#x2db;" horiz-adv-x="376" 
d="M314 -153c-63.333 -24.667 -121.333 -23.6689 -174 2.99805c-25.333 12.667 -38 32.834 -38 60.501s13 52.834 39 75.501c22.667 18 48.334 34.667 77.001 50l23 -41c-44.667 -22.667 -74.667 -49.334 -90 -80.001c17.333 -6.66699 36.166 -10.167 56.499 -10.5
s46.5 6.83398 78.5 21.501z" />
    <glyph glyph-name="tilde" unicode="&#x2dc;" horiz-adv-x="376" 
d="M227 571c12.667 0 24.335 12.333 35.002 37l49 -14c-9.33301 -76.667 -32.333 -115 -69 -115c-8.66699 0 -22.834 3.66699 -42.501 11s-34.167 11 -43.5 11c-12.667 0 -24.334 -12.333 -35.001 -37l-50 13c9.33301 76.667 32.666 115 69.999 115
c8.66699 0 22.834 -3.5 42.501 -10.5s34.167 -10.5 43.5 -10.5z" />
    <glyph glyph-name="hungarumlaut" unicode="&#x2dd;" horiz-adv-x="418" 
d="M62 499l109 120l63 -84l-143 -78zM242 499l109 120l63 -84l-143 -78z" />
    <glyph glyph-name="uni0394" unicode="&#x394;" horiz-adv-x="539" 
d="M41 0l169 545l117 -12l172 -533h-458zM237 478l-113 -415l283 -19z" />
    <glyph glyph-name="uni03A9" unicode="&#x3a9;" horiz-adv-x="644" 
d="M58 372c0 80 34.333 129.667 103 149c40 12 85.5 18 136.5 18s89.167 -1 114.5 -3c57.333 -4.66699 101 -19.5 131 -44.5s45 -62.833 45 -113.5s-15 -103 -45 -157s-67.667 -100.333 -113 -139l155 -21l2 -61h-185l-40 93c24 25.333 42.833 60.333 56.5 105
s20.5 87.167 20.5 127.5s-9.5 75.833 -28.5 106.5s-48.333 46 -88 46s-69 -15.333 -88 -46s-28.5 -66.167 -28.5 -106.5s7 -83 21 -128s33 -79.833 57 -104.5l-40 -93h-186l3 61l154 21c-46 38 -83.667 84.167 -113 138.5s-44 104.833 -44 151.5z" />
    <glyph glyph-name="uni03BC" unicode="&#x3bc;" horiz-adv-x="564" 
d="M341 293c0 33.333 -2.66699 67 -8 101l175 26l-53 -425l-81 -7l-17 168c-33.333 -95.333 -83.666 -151.666 -150.999 -168.999v-158l-72 -16c-54 213.333 -80.667 410 -80 590l152 12v-372c43.333 9.33301 76.666 36.166 99.999 80.499s35 100.833 35 169.5z" />
    <glyph glyph-name="pi" unicode="&#x3c0;" horiz-adv-x="607" 
d="M470 107l-1 -9c0 -33.333 15.667 -50.333 47 -51c13.333 0 28.333 3.66699 45 11l22 -54c-28 -16 -61 -24 -99 -24c-72 0 -111.333 30 -118 90l-26 252l-94 -6l-41 -321l-81 -7l-34 318l-65 -4l13 108h533l-13 -72l-60 -4z" />
    <glyph glyph-name="uni0964" unicode="&#x964;" horiz-adv-x="168" 
d="M88 -20h-88v492h88v-492z" />
    <glyph glyph-name="uni0965" unicode="&#x965;" horiz-adv-x="368" 
d="M88 -20h-88v492h88v-492zM288 -20h-88v492h88v-492z" />
    <glyph glyph-name="U0C01" unicode="&#xc01;" horiz-adv-x="382" 
d="M187 416c-18 -11.333 -33.333 -28 -46 -50c-26 -44.667 -41.667 -79.334 -47 -104.001c-16 -69.333 3.33301 -130.666 58 -183.999c21.333 -21.333 43.5 -38.333 66.5 -51l49.5 -27h-132c-28 13.333 -51.667 31.333 -71 54c-46 47.333 -64.333 106 -55 176
c12 64 42.667 120.667 92 170c12 12 21.667 20.667 29 26z" />
    <glyph glyph-name="U0C02" unicode="&#xc02;" horiz-adv-x="537" 
d="M394 373c16.667 -16 28.9961 -34.168 36.9961 -54.501s10.5 -46 7.5 -77s-11.833 -62.167 -26.5 -93.5s-34.834 -59.833 -60.501 -85.5s-56.834 -44.167 -93.501 -55.5c-66.667 -17.333 -125.667 -3.33301 -177 42c-22 19.333 -39.667 41.5 -53 66.5
s-22.166 48 -26.499 69s-1.16602 45.833 9.50098 74.5s25.334 56.167 44.001 82.5s39.334 48.833 62.001 67.5s43.334 29 62.001 31c88.667 6.66699 160.334 -15.666 215.001 -66.999zM263.996 75.999c13.333 -1.33301 25.8311 5.33008 37.498 19.9971s21 32.834 28 54.501
s10.667 44.5 11 68.5s-4.16699 44.333 -13.5 61c-23.333 32.667 -52.333 56.334 -87 71.001c-38 16 -65.667 17 -83 3c-7.33301 -4 -15.666 -12.833 -24.999 -26.5s-17.666 -29.667 -24.999 -48s-11.5 -38.166 -12.5 -59.499s3.5 -41.333 13.5 -60c24 -44 76 -72 156 -84z
" />
    <glyph glyph-name="U0C03" unicode="&#xc03;" horiz-adv-x="283" 
d="M142 436c32 -14.667 46.668 -40 44.001 -76c-2.66699 -28.667 -14.667 -54 -36 -76c-11.333 -10.667 -24.833 -18 -40.5 -22s-29.667 -4.16699 -42 -0.5s-22.833 9.83398 -31.5 18.501c-18.667 16.667 -30.334 36 -35.001 58c-4 17.333 3.66699 39.666 23 66.999
c18 26 37.167 40.167 57.5 42.5s40.5 -1.5 60.5 -11.5zM111.001 301c9.33301 -1.33301 16.998 7.66895 22.998 27.002c2 8 3 16.333 3 25s-2.83301 17.167 -8.5 25.5s-14.5 15.166 -26.5 20.499s-20.667 6.16602 -26 2.49902s-10.666 -10 -15.999 -19
s-8.16602 -19.167 -8.49902 -30.5s3.5 -22 11.5 -32s24 -16.333 48 -19zM141.999 210.002c32 -14.667 46.667 -40.002 44 -76.002c-2.66699 -28.667 -14.667 -54 -36 -76c-11.333 -10.667 -24.833 -18 -40.5 -22s-29.667 -4.16699 -42 -0.5s-22.833 9.83398 -31.5 18.501
c-32 29.333 -42.333 59.333 -31 90c10 26 25 47.333 45 64c10 7.33301 19 11.333 27 12c23.333 2.66699 45 -0.666016 65 -9.99902zM109.999 75c9.33301 -1.33301 16.666 7.66504 21.999 26.998c2.66699 8 4 16.167 4 24.5s-2.83301 16.833 -8.5 25.5s-14.667 15.5 -27 20.5
s-21 5.83301 -26 2.5s-10.167 -9.66602 -15.5 -18.999s-8.16602 -19.166 -8.49902 -29.499s3.5 -20.5 11.5 -30.5s24 -17 48 -21z" />
    <glyph glyph-name="U0C05" unicode="&#xc05;" horiz-adv-x="727" 
d="M407 433.5c14 11 26.8379 18.335 38.5049 22.002s27.667 4 48 1s40.5 -11.833 60.5 -26.5c49.333 -34 74 -93.333 74 -178c0 -44 -11 -81.833 -33 -113.5s-49.333 -57.667 -82 -78s-68.167 -35.5 -106.5 -45.5s-71.166 -15 -98.499 -15s-54.666 4 -81.999 12
s-54 18.333 -80 31c-89.333 44 -137.333 93 -144 147c-6 46.667 8 94 42 142c17.333 24 39.5 46.333 66.5 67s53.333 32.5 79 35.5s49 1 70 -6s38.167 -17.667 51.5 -32s20.666 -28.166 21.999 -41.499c1.33301 -24.667 -4.83398 -46.834 -18.501 -66.501
s-32.5 -33 -56.5 -40s-43.333 -8.5 -58 -4.5c-30.667 9.33301 -55.334 26 -74.001 50c-17.333 -31.333 -22.333 -60.5 -15 -87.5s22.166 -50.667 44.499 -71s50 -36 83 -47s65.667 -16.5 98 -16.5s60.666 5.16699 84.999 15.5s45.166 23.833 62.499 40.5
c35.333 36 53 75.333 53 118c0 32.667 -13 61.334 -39 86.001c-26 24 -48.333 33.667 -67 29c-18 -3.33301 -16.333 -22.333 5 -57l21.5 -33.5c7.66699 -11.667 11.167 -24.834 10.5 -39.501s-4.66699 -28.334 -12 -41.001c-17.333 -30.667 -43 -47.334 -77 -50.001
c-11.333 -1.33301 -25.333 -1.83301 -42 -1.5s-33.5 0.5 -50.5 0.5s-35.5 0.333008 -55.5 1v72h145c14.667 0 22.667 5.5 24 16.5s-1.33398 21.167 -8.00098 30.5c-20 26 -30.5 50.5 -31.5 73.5s3 42.833 12 59.5s20.5 30.5 34.5 41.5zM188.005 377.002
c-9.33301 -6.66699 -13.167 -15.832 -11.5 -27.499s6.66699 -22 15 -31s18.333 -15.167 30 -18.5s22.5 -0.333008 32.5 9s14.167 19.166 12.5 29.499s-6.5 19.5 -14.5 27.5s-18 13.333 -30 16s-23.333 1 -34 -5z" />
    <glyph glyph-name="U0C06" unicode="&#xc06;" horiz-adv-x="712" 
d="M231 218c44 -4.66699 95.3408 -4.66504 154.008 0.00195312c6.66699 0 12.5 0.5 17.5 1.5s10.167 1.5 15.5 1.5c-4.66699 9.33301 -11 20 -19 32l-8 12c-34.667 46 -40.334 89.667 -17.001 131c8.66699 16.667 20 30.334 34 41.001s29.333 17.834 46 21.501
s35.5 2.16699 56.5 -4.5s39.167 -17.167 54.5 -31.5s27.166 -31.5 35.499 -51.5s12.166 -40.333 11.499 -61c-2.66699 -48.667 -28 -88.667 -76 -120c17.333 -36 13.333 -70 -12 -102c-21.333 -26.667 -55.333 -48.667 -102 -66c-44.667 -16 -86.334 -23.333 -125.001 -22
c-26.667 0 -54.834 4.5 -84.501 13.5s-54.5 18.5 -74.5 28.5c-44.667 22.667 -82.334 54.334 -113.001 95.001c-25.333 32 -31 74.333 -17 127c14.667 53.333 48.667 100.666 102 141.999c48.667 35.333 98.334 44 149.001 26c20.667 -7.33301 37.667 -17.833 51 -31.5
s21 -26.834 23 -39.501c1.33301 -24 -3.5 -45.333 -14.5 -64s-32.833 -33.334 -65.5 -44.001c-26.667 -8.66699 -56.334 -4.33398 -89.001 12.999c-14 8 -27 17.667 -39 29c-18 -32.667 -23.167 -62.334 -15.5 -89.001s22.667 -49.667 45 -69s50.166 -34.333 83.499 -45
s64.333 -16 93 -16s50.167 2.5 64.5 7.5s25.166 11.167 32.499 18.5c13.333 12.667 18.666 31 15.999 55c-18 -3.33301 -35.667 -7 -53 -11c-24.667 -2.66699 -51.167 -4 -79.5 -4s-55.166 1.33301 -80.499 4v72zM221.508 386.502c-12.333 3 -23.668 1 -34.001 -6
s-15 -16.333 -14 -28s5.33301 -22.334 13 -32.001s17.834 -16 30.501 -19s24.667 0.333008 36 10s16.166 19.834 14.499 30.501s-6.66699 20 -15 28s-18.666 13.5 -30.999 16.5zM489.006 250.002c27.333 15.333 39.666 36.666 36.999 63.999
c-2 20.667 -13.333 37.334 -34 50.001c-22 14 -42.333 14.333 -61 1c-20 -12 -20.333 -31.333 -1 -58c8.66699 -11.333 18.334 -21.333 29.001 -30l21 -17z" />
    <glyph glyph-name="U0C07" unicode="&#xc07;" horiz-adv-x="651" 
d="M449 -9c-28.667 26.667 -50.6689 48.9971 -66.002 66.9971c-40.667 -29.333 -91.667 -48 -153 -56c-54 -8 -102 -2.66699 -144 16c-20 8 -35.5 19.167 -46.5 33.5s-15.5 30.5 -13.5 48.5s9.16699 33.167 21.5 45.5s27.166 21.833 44.499 28.5c34 14 74 20.333 120 19
c36 0 75.333 -8.33301 118 -25c16 -6.66699 29.167 -13.167 39.5 -19.5s16.833 -10.166 19.5 -11.499c52 48.667 76.667 95.667 74 141c-1.33301 24.667 -16 46 -44 64c-28 12.667 -53 14 -75 4c-11.333 -4.66699 -19 -12.334 -23 -23.001
c-7.33301 -19.333 -13 -37.333 -17 -54h-70c4 14 6 27 6 39c0 27.333 -6 46 -18 56c-7.33301 4.66699 -19 8 -35 10s-31.5 2 -46.5 0s-27.167 -6.66699 -36.5 -14c-14.667 -12.667 -10 -32 14 -58c9.33301 -11.333 21.333 -20.333 36 -27l-70 -55
c-70.667 63.333 -96.667 112.333 -78 147c14.667 24.667 55.334 50.334 122.001 77.001c37.333 14.667 64.833 22.334 82.5 23.001s28.167 -1.33301 31.5 -6c4.66699 -8.66699 9.83398 -22.167 15.501 -40.5s10.167 -32.166 13.5 -41.499c18.667 26 40.334 44.333 65.001 55
c17.333 8 56 2.66699 116 -16c31.333 -10 51.333 -20 60 -30l14 -18c24 -34 30 -77 18 -129c-6 -26.667 -17.333 -52.5 -34 -77.5s-29 -42.5 -37 -52.5s-16 -17.333 -24 -22l71 -58zM129.998 112.997c-6 -24.667 16.667 -38.334 68 -41.001c48 -2 94.333 6.33301 139 25
c-7.33301 8.66699 -21.5 16.834 -42.5 24.501s-43.167 13.167 -66.5 16.5c-58 7.33301 -90.667 -1 -98 -25z" />
    <glyph glyph-name="U0C08" unicode="&#xc08;" horiz-adv-x="800" 
d="M99 430l255 156l35 -84l-263 -114zM476 315c8 -20 10.501 -45.1689 7.50098 -75.502s-11.5 -61 -25.5 -92s-33.5 -59.167 -58.5 -84.5s-55.167 -43.666 -90.5 -54.999c-64.667 -18 -122.334 -4.66699 -173.001 40c-38.667 34.667 -65 79 -79 133
c-4 22 -0.5 47.333 10.5 76s25.5 56 43.5 82s38 48.167 60 66.5s41.667 28.5 59 30.5c86 6.66699 155.667 -15.666 209 -66.999c16.667 -16 29 -34 37 -54zM312.001 74.998c13.333 -0.666992 26.667 6.82812 40 22.4951s24.166 34.334 32.499 56.001
s13.333 44.334 15 68.001s-2.16602 43.834 -11.499 60.501c-35.333 54 -79 80.667 -131 80c-46.667 -1.33301 -81.667 -32.666 -105 -93.999c-27.333 -75.333 -8.33301 -131.333 57 -168c24.667 -13.333 59 -21.666 103 -24.999zM558.502 269.993
c21 -0.666992 36.6689 -1.00098 47.002 -1.00098s23 -3 38 -9s27.833 -14.667 38.5 -26c38.667 -38 34.667 -83.667 -12 -137c-32.667 -38.667 -65.334 -51.667 -98.001 -39c-18 6.66699 -33.667 24.667 -47 54c-8 18 -5.66699 39.333 7 64c5.33301 12 12 23.333 20 34h-551
v70c102 -1.33301 182.833 -2.66602 242.5 -3.99902s107.167 -2.33301 142.5 -3s67.666 -1.16699 96.999 -1.5s54.5 -0.833008 75.5 -1.5zM641.504 119.992c10.333 0.666992 17.668 4.50098 22.001 11.501s2.83301 16 -4.5 27s-16.333 21.167 -27 30.5
s-20.834 16.166 -30.501 20.499s-15.167 3.5 -16.5 -2.5c-4.66699 -20.667 -4 -37.5 2 -50.5s14 -22.5 24 -28.5s20.167 -8.66699 30.5 -8zM637.006 359.993c0 -30.667 -9.00098 -68.334 -27.001 -113.001c-4 -1.33301 -8 -2 -12 -2c-9.33301 0 -19.333 4.66699 -30 14
l12 24c10.667 21.333 16 36.833 16 46.5s-2.66699 15.834 -8 18.501c-9.33301 4 -19.333 -0.333008 -30 -13c-4.66699 -5.33301 -9 -12 -13 -20c-22 0 -40.667 8.66699 -56 26c8.66699 19.333 28.334 34.333 59.001 45c32 12 57.333 13.333 76 4
c8.66699 -5.33301 13 -15.333 13 -30z" />
    <glyph glyph-name="U0C09" unicode="&#xc09;" horiz-adv-x="667" 
d="M322 456l-21 99l74 2l-22 -100zM529 319l-1 -57l-528 -6v61zM473 424c-16.667 -36.667 -27 -60.6641 -31 -71.9971c-8 1.33301 -20.5 3.66602 -37.5 6.99902s-36.167 5.66602 -57.5 6.99902c-50 2 -93.667 -6 -131 -24c-48.667 -27.333 -82.667 -66.333 -102 -117
c-15.333 -39.333 -17.333 -72.333 -6 -99c6 -13.333 16 -23.333 30 -30c9.33301 -2.66699 22.666 0.666016 39.999 9.99902c36.667 20 75.334 46.333 116.001 79c18 -37.333 42 -68.333 72 -93c28.667 -22.667 54 -34 76 -34c25.333 0 41 5.66699 47 17
c-26 -10.667 -57 -5.66699 -93 15c-10 6 -18 13.667 -24 23c-12 16 -18 31.333 -18 46s3.33301 28 10 40c14 25.333 32 41 54 47l23.5 3.5c11 1.66699 23.167 1.16699 36.5 -1.5c32.667 -8 57 -32.667 73 -74c16.667 -44.667 12.667 -84.667 -12 -120
c-24.667 -36 -61.667 -54 -111 -54c-24 0 -44.833 5 -62.5 15s-33.167 20.333 -46.5 31l-34 28c-9.33301 8 -19 8.83301 -29 2.5l-40.5 -26c-17 -11 -33.5 -21.167 -49.5 -30.5c-38.667 -20.667 -64.334 -26 -77.001 -16c-36.667 32 -58.667 73.667 -66 125
c-11.333 79.333 15.667 152.333 81 219c21.333 22.667 46.333 41.334 75 56.001c44.667 24.667 102 36 172 34c27.333 -1.33301 51.833 -3.83301 73.5 -7.5s37.834 -5.83398 48.501 -6.50098zM495 113.003c6 4.66699 8.5 12.998 7.5 24.998s-5.16699 23.333 -12.5 34
c-18 27.333 -41 35.666 -69 24.999c-14 -15.333 -8.33301 -35.666 17 -60.999c10 -9.33301 20.5 -16.666 31.5 -21.999s19.5 -5.66602 25.5 -0.999023z" />
    <glyph glyph-name="U0C0A" unicode="&#xc0a;" horiz-adv-x="846" 
d="M526 318l115.002 -0.999023c30 -1.33301 55.667 -12.333 77 -33c37.333 -36.667 34.666 -79.334 -8.00098 -128.001c-31.333 -34.667 -62.333 -46.667 -93 -36c-16 6 -30 22.667 -42 50c-7.33301 16 -5.33301 35.667 6 59c4.66699 11.333 10.667 22.333 18 33l-599 -6v61
c131.333 0.666992 226.666 1 285.999 1h240zM700.002 189.001c8 12 -0.999023 29.666 -26.999 52.999c-9.33301 8 -18.333 13.833 -27 17.5s-13.334 3.16699 -14.001 -1.5c-6 -20 -6.5 -36.167 -1.5 -48.5s12.167 -21.166 21.5 -26.499s18.833 -7.5 28.5 -6.5
s16.167 5.16699 19.5 12.5zM665.003 429c8 -5.33301 11.998 -18.5 11.998 -39.5s-7.66699 -52.5 -23 -94.5c-3.33301 -1.33301 -7.33301 -2 -12 -2c-10 0 -20.333 4.66699 -31 14c3.33301 6.66699 7.5 14.334 12.5 23.001s9 17 12 25s4.5 15.167 4.5 21.5
s-2.66699 10.833 -8 13.5c-13.333 5.33301 -26.666 -6 -39.999 -34c-9.33301 1.33301 -19.166 4.83301 -29.499 10.5s-17.833 11.167 -22.5 16.5c7.33301 17.333 25.333 31.666 54 42.999c30 11.333 53.667 12.333 71 3zM250.001 450l-21 99l74 2l-21 -100zM358.001 456
l-20 95l74 2l-22 -96zM473.001 424c-16.667 -36.667 -27 -60.6641 -31 -71.9971c-8 1.33301 -20.5 3.66602 -37.5 6.99902s-36.167 5.66602 -57.5 6.99902c-50 2 -93.667 -6 -131 -24c-48.667 -27.333 -82.667 -66.333 -102 -117c-15.333 -39.333 -17.333 -72.333 -6 -99
c6 -13.333 16 -23.333 30 -30c9.33301 -2.66699 22.666 0.666016 39.999 9.99902c36.667 20 75.334 46.333 116.001 79c18 -37.333 42 -68.333 72 -93c28.667 -22.667 54 -34 76 -34c25.333 0 41 5.66699 47 17c-26 -10.667 -57 -5.66699 -93 15c-10 6 -18 13.667 -24 23
c-12 16 -18 31.333 -18 46s3.33301 28 10 40c14 25.333 32 41 54 47l23.5 3.5c11 1.66699 23.167 1.16699 36.5 -1.5c32.667 -8 57 -32.667 73 -74c16.667 -44.667 12.667 -84.667 -12 -120c-24.667 -36 -61.667 -54 -111 -54c-24 0 -44.833 5 -62.5 15
s-33.167 20.333 -46.5 31l-34 28c-9.33301 8 -19 8.83301 -29 2.5l-40.5 -26c-17 -11 -33.5 -21.167 -49.5 -30.5c-38.667 -20.667 -64.334 -26 -77.001 -16c-36.667 32 -58.667 73.667 -66 125c-11.333 79.333 15.667 152.333 81 219
c21.333 22.667 46.333 41.334 75 56.001c44.667 24.667 102 36 172 34c27.333 -1.33301 51.833 -3.83301 73.5 -7.5s37.834 -5.83398 48.501 -6.50098zM495.001 113.003c6 4.66699 8.5 12.998 7.5 24.998s-5.16699 23.333 -12.5 34c-18 27.333 -41 35.666 -69 24.999
c-14 -15.333 -8.33301 -35.666 17 -60.999c10 -9.33301 20.5 -16.666 31.5 -21.999s19.5 -5.66602 25.5 -0.999023z" />
    <glyph glyph-name="U0C0B" unicode="&#xc0b;" horiz-adv-x="1125" 
d="M444 438c44 -36 79.6592 -78.667 106.992 -128c12.667 -22.667 18.334 -43.5 17.001 -62.5s-5.66602 -40.667 -12.999 -65s-18.333 -48.5 -33 -72.5c-34.667 -58 -78.667 -94.667 -132 -110c-13.333 4.66699 -26.333 11.667 -39 21l-36.5 26.5
c-11.667 8.33301 -23 15.666 -34 21.999s-21 8.83301 -30 7.5s-23.833 -6.16602 -44.5 -14.499l-66 -26.5c-64 -24 -102.667 -36 -116 -36c-6 2 -11.833 9.83301 -17.5 23.5s-7.16699 30.834 -4.5 51.501c5.33301 52.667 39.333 101.667 102 147
c-27.333 -5.33301 -56 6.66699 -86 36c-19.333 18 -25 40.667 -17 68c4 14.667 13.667 30.667 29 48c24 28 50.167 46.333 78.5 55s54.833 10.834 79.5 6.50098s45.834 -13.5 63.501 -27.5s27.834 -30 30.501 -48c2.66699 -52.667 -28.666 -97 -93.999 -133
c-34 -18.667 -58 -40 -72 -64c-17.333 -28 -19.666 -47 -6.99902 -57c6 -4.66699 17.833 -3.83398 35.5 2.49902s35.334 15.666 53.001 27.999s32.167 23.5 43.5 33.5s19.833 18.167 25.5 24.5s9.5 8 11.5 5s6.5 -11.5 13.5 -25.5s15.833 -28.333 26.5 -43
c29.333 -38 53.333 -54 72 -48c4 0.666992 11.333 5.16699 22 13.5s21 19.5 31 33.5c38.667 56 38 116 -2 180c-31.333 49.333 -67.666 92 -108.999 128h112zM87.9922 381c-9.33301 -15.333 -11.167 -30.001 -5.5 -44.001s14.667 -25.5 27 -34.5s25.5 -14.833 39.5 -17.5
s24.667 -0.666992 32 6c8.66699 21.333 9 38.833 1 52.5s-18.5 23.834 -31.5 30.501s-26 10.5 -39 11.5s-20.833 -0.5 -23.5 -4.5zM496.991 124.999c35.333 -8.66699 72.002 -23.665 110.002 -44.998c15.333 6 30.666 19.167 45.999 39.5s24.666 46.166 27.999 77.499
s-2.66699 67.666 -18 108.999s-46.333 85.333 -93 132h144c40 -66.667 60 -137.667 60 -213c0 -50.667 -14 -100.667 -42 -150c-15.333 -26 -36 -51.333 -62 -76c-40.667 28 -101.334 36.667 -182.001 26c-27.333 -3.33301 -53.666 -9.33301 -78.999 -18
c28.667 36 58 75.333 88 118zM926.993 -0.999023c-40.667 28 -101.333 36.6709 -182 26.0039c-27.333 -3.33301 -53.666 -9.33301 -78.999 -18l44 65c15.333 22 27 40 35 54c20.667 -2.66699 43.834 -9.83398 69.501 -21.501s42.167 -19.834 49.5 -24.501
c15.333 6 30.666 19.167 45.999 39.5s24.666 46.166 27.999 77.499s-2.66699 67.666 -18 108.999s-46.333 85.333 -93 132h144c40 -66.667 60 -137.667 60 -213c0 -50.667 -14.333 -100.667 -43 -150c-14.667 -26 -35 -51.333 -61 -76z" />
    <glyph glyph-name="U0C0C" unicode="&#xc0c;" horiz-adv-x="768" 
d="M586 272c46 -3.33301 70.0039 -16.6582 72.0039 -39.9912c-15.333 -98.667 -59 -171.667 -131 -219c-32 -20.667 -60.667 -33.334 -86 -38.001s-49.5 -5.33398 -72.5 -2.00098s-42.5 8.16602 -58.5 14.499s-33 14.5 -51 24.5s-34.833 21.333 -50.5 34
s-27.834 26 -36.501 40c-18.667 33.333 -13 62.666 17 87.999c19.333 17.333 40.5 29.166 63.5 35.499s46 11.5 69 15.5s45.333 9.5 67 16.5s40.5 19.5 56.5 37.5c10.667 13.333 11.334 31.666 2.00098 54.999c-8.66699 22 -20 38.333 -34 49c-16.667 10.667 -31 16 -43 16
c-30 0 -48 -12.333 -54 -37c-2 -8 -4.16699 -16 -6.5 -24s-4.16602 -17 -5.49902 -27h-68c2.66699 15.333 4 29 4 41c0 28.667 -4.83301 46.834 -14.5 54.501s-22.5 12.667 -38.5 15s-31.333 2.5 -46 0.5s-26.667 -7 -36 -15s-11 -18.333 -5 -31
c15.333 -32.667 32.333 -53.334 51 -62.001l-70 -55c-39.333 36.667 -65 72.334 -77 107.001c-6.66699 17.333 -6.83398 31.833 -0.500977 43.5s15.833 22.667 28.5 33s27.167 20 43.5 29s33.666 17.333 51.999 25s35.166 13.5 50.499 17.5c34 8.66699 54.333 8.66699 61 0
c6 -10.667 11.5 -25.334 16.5 -44.001s9.16699 -33.334 12.5 -44.001c19.333 27.333 42 47.333 68 60c13.333 6 32.5 5.66699 57.5 -1s48.5 -15.5 70.5 -26.5s39.333 -23.167 52 -36.5c20.667 -23.333 31 -58.333 31 -105c0 -43.333 -24.333 -81 -73 -113
c-44.667 -28 -98 -45.667 -160 -53c-28 -10.667 -41.333 -21.334 -40 -32.001c0.666992 -6 7.66699 -17 21 -33s28.166 -26 44.499 -30s33.166 -5.33301 50.499 -4c36 2 65.333 12 88 30c40.667 35.333 70.667 77.666 90 126.999c8.66699 22 14.667 43 18 63z" />
    <glyph glyph-name="U0C0E" unicode="&#xc0e;" horiz-adv-x="566" 
d="M368 0c-48 21.333 -87.332 31.332 -117.999 29.999c-12 0 -28 -3.33301 -48 -10c-38 -13.333 -59.833 -20 -65.5 -20s-14 1.16699 -25 3.5s-22.667 6 -35 11s-24.333 11.5 -36 19.5s-21.167 17.333 -28.5 28c-16.667 25.333 -15.834 53.666 2.49902 84.999
s39.5 53 63.5 65s47.167 18.667 69.5 20s42.166 -1 59.499 -7s28.333 -13 33 -21c10.667 -22.667 19.334 -51.334 26.001 -86.001c6.66699 -17.333 18 -29.333 34 -36c7.33301 -3.33301 15.833 -2.66602 25.5 2.00098s17.5 16.334 23.5 35.001s9.66699 40.334 11 65.001
c3.33301 61.333 -6 108.333 -28 141c-33.333 40 -79.333 76 -138 108l150 6c44.667 -40.667 80 -82.334 106 -125.001c12.667 -22 19 -42.333 19 -61c0 -41.333 -33.667 -125.666 -101 -252.999zM164.001 61.999c6 7.33301 10.5 17.334 13.5 30.001s3.16699 25.5 0.5 38.5
s-9.16699 24.833 -19.5 35.5s-25.833 17.667 -46.5 21c-6.66699 0.666992 -12.167 -4.5 -16.5 -15.5s-5.33301 -24 -3 -39s8.83301 -29.333 19.5 -43s28 -22.834 52 -27.501z" />
    <glyph glyph-name="U0C0F" unicode="&#xc0f;" horiz-adv-x="625" 
d="M366 0c-48 21.333 -87.3379 31.333 -118.005 30c-11.333 0 -27 -3.33301 -47 -10c-38 -13.333 -59.667 -20 -65 -20s-13.666 1.16699 -24.999 3.5s-23.166 6 -35.499 11s-24.666 11.5 -36.999 19.5s-21.833 17.333 -28.5 28c-15.333 26 -14 54.5 4 85.5s39 52.5 63 64.5
s47.167 18.667 69.5 20s42 -1 59 -7s27.833 -13 32.5 -21c10.667 -22.667 19.334 -51.334 26.001 -86.001c8.66699 -18 20.667 -30 36 -36c20 -8.66699 37.333 4.33301 52 39c18 44.667 24.667 93 20 145c-2 26 -9.33301 47.333 -22 64c-24 32.667 -43.667 55.167 -59 67.5
s-27.666 21.833 -36.999 28.5l152 7c20 -36.667 35.167 -71.167 45.5 -103.5s15.5 -57.833 15.5 -76.5c0 -41.333 -33.667 -125.666 -101 -252.999zM162.995 62c14 20 19 42.668 15 68.001c-2.66699 13.333 -9 25.333 -19 36s-25 17.667 -45 21
c-8 0.666992 -14.333 -4.5 -19 -15.5s-6 -24 -4 -39s8.5 -29.333 19.5 -43s28.5 -22.834 52.5 -27.501zM60.9951 338.001c-3.33301 24 -1.66895 45 4.99805 63c14 36.667 35.333 67 64 91c26 22 75.333 34.667 148 38c30.667 1.33301 62.334 0.333008 95.001 -3v-45
c-23.333 1.33301 -44.666 2 -63.999 2c-50 0 -83.667 -3.33301 -101 -10s-28.333 -16.667 -33 -30c-9.33301 -26 -10.333 -56 -3 -90z" />
    <glyph glyph-name="U0C10" unicode="&#xc10;" horiz-adv-x="671" 
d="M377 501c66.667 -4.66699 116.334 -25.666 149.001 -62.999c24.667 -28 38.5 -67.333 41.5 -118s-6.5 -106.667 -28.5 -168c-15.333 -36.667 -32.666 -67.667 -51.999 -93c-34.667 -46.667 -58.334 -65.667 -71.001 -57c-37.333 20.667 -74.666 28 -111.999 22
c-16.667 -3.33301 -33.834 -7.5 -51.501 -12.5s-36.167 -8.5 -55.5 -10.5c-69.333 -12 -117 0 -143 36c-21.333 28.667 -27 67.334 -17 116.001c4 19.333 10.167 36.666 18.5 51.999s16.833 25 25.5 29c74 36 123.333 35.333 148 -2
c7.33301 -10.667 14.166 -22.334 20.499 -35.001s13.666 -25.5 21.999 -38.5s21.5 -25.333 39.5 -37s35.167 -18.667 51.5 -21s30.833 -0.5 43.5 5.5c44.667 20 68.334 83.333 71.001 190c0 42.667 -8.5 73.167 -25.5 91.5s-36.667 26.833 -59 25.5
s-37.833 -6.33301 -46.5 -15c-18.667 -18.667 -28 -43 -28 -73h-86c-0.666992 4 -1 7.66699 -1 11c-0.666992 3.33301 -1 6.5 -1 9.5s-0.666992 7.83301 -2 14.5s-5.33301 15.5 -12 26.5s-15.334 20.833 -26.001 29.5c-24 19.333 -47.333 24 -70 14
c-23.333 -10.667 -32.333 -36 -27 -76c2.66699 -17.333 8.33398 -36 17.001 -56h-97c-12 22 -15.667 44.833 -11 68.5s14 45.334 28 65.001s31 36 51 49s40 19.833 60 20.5c34 1.33301 66.667 -10.334 98 -35.001c12.667 -10.667 23.667 -23 33 -37
c8.66699 22.667 32 43.667 70 63c11.333 6 23 9 35 9zM206 68.001c4 18 6 33.832 6 47.499s-2 25.5 -6 35.5c-6 16.667 -17.5 29.334 -34.5 38.001s-37.167 12 -60.5 10c-12 -20.667 -15.167 -40.667 -9.5 -60s14.667 -35.833 27 -49.5s26.333 -23 42 -28
s27.5 -2.83301 35.5 6.5z" />
    <glyph glyph-name="U0C12" unicode="&#xc12;" horiz-adv-x="652" 
d="M549 255c5.33301 -66.667 -2.32715 -122.666 -22.9941 -167.999c-11.333 -24 -28.333 -40.833 -51 -50.5s-45.334 -18.167 -68.001 -25.5s-46.334 -11 -71.001 -11c-55.333 1.33301 -107 25.333 -155 72c-20 0 -65.667 -21.333 -137 -64
c-12.667 -8 -20.334 -12.167 -23.001 -12.5s-5.83398 5.66699 -9.50098 18s-6.5 27.5 -8.5 45.5c-5.33301 47.333 -2.83301 82.666 7.5 105.999s23.5 41 39.5 53c30 22.667 67.333 39.334 112 50.001c-45.333 0 -84 8 -116 24c-33.333 18 -47.333 47 -42 87
c6.66699 53.333 48 89.666 124 108.999c38.667 9.33301 69.334 12.833 92.001 10.5s36 -5.16602 40 -8.49902c15.333 -9.33301 25 -22 29 -38s4.66699 -40.333 2 -73s-11.334 -58.667 -26.001 -78s-31.5 -34.833 -50.5 -46.5s-38 -21.667 -57 -30
s-33.833 -17.833 -44.5 -28.5c-14.667 -12 -21.667 -27.333 -21 -46c1.33301 -17.333 7.33301 -26 18 -26c8.66699 0 24.334 7.33301 47.001 22c41.333 27.333 64.833 41.666 70.5 42.999s11.167 0 16.5 -4s11.166 -9.5 17.499 -16.5s13.166 -15 20.499 -24
s14.166 -17 20.499 -24s14.333 -15.167 24 -24.5s20.167 -17.333 31.5 -24c28.667 -14.667 55 -14.667 79 0c8 4.66699 14 15.167 18 31.5s5.16699 34.166 3.5 53.499s-7 38.333 -16 57s-22.833 32.334 -41.5 41.001h148zM198.007 307.001
c5.33301 14.667 7.99902 29.167 7.99902 43.5s-1.66699 27.5 -5 39.5c-5.33301 19.333 -21 31 -47 35c-28.667 4.66699 -46 0 -52 -14c-6.66699 -14.667 -6.66699 -35 0 -61c4 -16 21.333 -28.333 52 -37c12.667 -3.33301 27.334 -5.33301 44.001 -6z" />
    <glyph glyph-name="U0C13" unicode="&#xc13;" horiz-adv-x="652" 
d="M22 -3c-7.33301 -1.33301 -12.9961 13.334 -16.9961 44.001c-8 60 -6 104.333 6 133c21.333 44 71.666 75.333 150.999 94c-46 0 -84.333 8 -115 24c-33.333 18 -47.333 47.333 -42 88c6.66699 54 47.667 90 123 108c38 10 68.333 13.833 91 11.5
s36.334 -4.83301 41.001 -7.5c15.333 -10 24.5 -23 27.5 -39s3.5 -40.333 1.5 -73s-10.333 -58.667 -25 -78s-31.5 -34.833 -50.5 -46.5s-37.833 -21.667 -56.5 -30s-32.667 -17 -42 -26s-15.5 -17.5 -18.5 -25.5s-4.5 -15.667 -4.5 -23c1.33301 -17.333 7.33301 -26 18 -26
c8 0 23.333 7 46 21c42 26.667 65.833 41.167 71.5 43.5s11.167 1.33301 16.5 -3s11.166 -10 17.499 -17s13.166 -15 20.499 -24l20 -24.5c6 -7.33301 13.667 -15.5 23 -24.5s19.666 -16.833 30.999 -23.5c28 -16 55 -16.333 81 -1c8 4.66699 13.833 15.167 17.5 31.5
s4.66699 34.166 3 53.499s-7 38.333 -16 57s-22.5 32.667 -40.5 42h148c5.33301 -66.667 -2.33398 -122.667 -23.001 -168c-11.333 -24 -28.333 -40.667 -51 -50c-57.333 -24.667 -103.666 -37 -138.999 -37c-54.667 0 -107.334 23.667 -158.001 71
c-19.333 0 -64 -21.333 -134 -64c-12.667 -7.33301 -20 -11 -22 -11zM116.004 426c-5.33301 -2.66699 -10.501 -9.33398 -15.501 -20.001s-5.33301 -25 -1 -43s11.5 -30 21.5 -36c18.667 -11.333 44.334 -17.666 77.001 -18.999c9.33301 33.333 11.5 58.5 6.5 75.5
s-12.5 27.833 -22.5 32.5c-19.333 10.667 -41.333 14 -66 10zM230.003 488c-24 -2 -41.3311 -2.99902 -51.998 -2.99902h-36c-10 10 -15.833 24.167 -17.5 42.5s-0.833984 33.833 2.49902 46.5s9.66602 24.667 18.999 36c20 23.333 53.667 36.333 101 39
c63.333 2 105.666 -22 126.999 -72c8.66699 -22.667 12.334 -49 11.001 -79l-76 -3c8 18.667 6.33301 43 -5 73c-5.33301 13.333 -13 24.5 -23 33.5s-24.5 12 -43.5 9s-30.5 -11.167 -34.5 -24.5c-8 -26.667 1 -59.334 27 -98.001z" />
    <glyph glyph-name="U0C14" unicode="&#xc14;" horiz-adv-x="730" 
d="M93 150c0 -17.333 5.66602 -25.998 16.999 -25.998c10 0 26 7.33301 48 22c41.333 26.667 64.833 40.834 70.5 42.501s11.334 0.5 17.001 -3.5s11.834 -9.66699 18.501 -17c10.667 -12 23.334 -28 38.001 -48c51.333 -56.667 96.333 -73 135 -49
c8.66699 4.66699 15.167 15.167 19.5 31.5s5.66602 34.166 3.99902 53.499s-7 38.333 -16 57s-22.5 32.667 -40.5 42h148c4 -65.333 -4.66699 -121.333 -26 -168c-11.333 -24 -28 -41 -50 -51c-56.667 -24 -103 -36 -139 -36c-54 0 -106 23.667 -156 71
c-22.667 0 -68.334 -21 -137.001 -63c-12.667 -7.33301 -20.334 -11.333 -23.001 -12s-5.83398 5.16602 -9.50098 17.499s-6.5 27.5 -8.5 45.5c-5.33301 47.333 -1.66602 85.333 11.001 114c21.333 44 70.666 75.333 147.999 94c-45.333 0 -84 8.33301 -116 25
c-33.333 17.333 -47.333 46.333 -42 87c6.66699 53.333 48 89.666 124 108.999c38.667 9.33301 69.334 12.833 92.001 10.5s36 -5.16602 40 -8.49902c15.333 -9.33301 25 -22 29 -38s4.83301 -37.667 2.5 -65s-7.16602 -48.833 -14.499 -64.5s-16.5 -29 -27.5 -40
s-22.833 -20.333 -35.5 -28s-25.334 -14.834 -38.001 -21.501l-36 -18.5c-11.333 -5.66699 -20.666 -11.834 -27.999 -18.501c-12.667 -13.333 -19 -28.666 -19 -45.999zM118.999 425.002c-6 -2.66699 -12.001 -9.33398 -18.001 -20.001s-6.66699 -25 -2 -43s12 -30 22 -36
c18.667 -11.333 44.334 -17.666 77.001 -18.999c12 26.667 14 54 6 82c-6.66699 20 -23 32 -49 36c-12 2 -24 2 -36 0zM223.998 468.002h-7h7zM1.99805 605.002c-2 22 -12.9971 51.3389 -32.9971 88.0059c79.333 3.33301 208 -1.66699 386 -15
c83.333 -6 135.666 -12.333 156.999 -19s38.166 -15.334 50.499 -26.001s22.166 -22 29.499 -34c11.333 -18.667 19.666 -44 24.999 -76c4 -34.667 -5.66699 -65 -29 -91c-31.333 -34 -70.333 -40 -117 -18c-40.667 19.333 -64.667 43.333 -72 72
c-14 51.333 -11 87.666 9 108.999c-30.667 5.33301 -61.167 9.16602 -91.5 11.499s-56.833 5.16602 -79.5 8.49902c16 -2.66699 29.667 -13.667 41 -33c12 -18 18 -36.667 18 -56c0 -9.33301 -13.333 -22 -40 -38c-9.33301 -5.33301 -18.166 -9.83301 -26.499 -13.5
s-12.5 -5.83398 -12.5 -6.50098c-9.33301 -2 -22.166 -3 -38.499 -3s-34 0.333008 -53 1s-37.5 2 -55.5 4l-50 4l47 49l68 -4c5.33301 0 12 0.333008 20 1c24 0 36 5.66699 36 17c2 19.333 -3 34.333 -15 45s-27.333 18 -46 22
c-34.667 7.33301 -77.334 7.66602 -128.001 0.999023zM459.501 523.508c3 -9.66699 9.33496 -19.333 19.002 -29s19.167 -15.167 28.5 -16.5s17.666 0.333984 24.999 5.00098c16.667 11.333 21 29.333 13 54c-3.33301 9.33301 -10.833 19.166 -22.5 29.499
s-25.167 14.5 -40.5 12.5c-4.66699 -0.666992 -9.33398 -3.66699 -14.001 -9s-8 -12 -10 -20s-1.5 -16.833 1.5 -26.5z" />
    <glyph glyph-name="U0C15" unicode="&#xc15;" horiz-adv-x="463" 
d="M-3 367l-16 64l353 173l32 -109zM372 455l-4.99902 -92.999c-106.667 -22.667 -183 -44 -229 -64c-8.66699 -4 -14.667 -8 -18 -12c63.333 -8.66699 122 -24.667 176 -48c60 -24.667 88.667 -48.334 86 -71.001c-2 -13.333 -4.83301 -29.5 -8.5 -48.5
s-10.834 -37.167 -21.501 -54.5c-25.333 -42.667 -67 -64 -125 -64h-226l-1 133c126 -56 210.333 -74 253 -54c23.333 10 36.333 22.5 39 37.5s-2.16602 30 -14.499 45s-30.833 28.833 -55.5 41.5s-47.334 20.667 -68.001 24s-38 6.33301 -52 9
c-27.333 4 -56.666 7.33301 -87.999 10l-16 76l125.5 50l79 31c20.333 8 40.166 15 59.499 21c46.667 16 77.667 25.333 93 28z" />
    <glyph glyph-name="U0C16" unicode="&#xc16;" horiz-adv-x="609" 
d="M223 30l50 1l-18 -107l-77 -3zM295 137c25.333 -8.66699 56.0049 -27.6631 92.0049 -56.9961c45.333 48.667 60.333 108.667 45 180c-14 61.333 -46.667 120.666 -98 177.999h130c21.333 -26.667 36.666 -57.167 45.999 -91.5s14.666 -65.333 15.999 -93
s-1.33398 -55.834 -8.00098 -84.501c-16.667 -65.333 -55 -121.666 -115 -168.999c-10.667 4 -22.334 10.5 -35.001 19.5s-26 17.167 -40 24.5c-34.667 16.667 -63.334 18 -86.001 4c-74.667 -40.667 -130 -55.334 -166 -44.001c-54 14 -79.333 51.667 -76 113
c0.666992 11.333 8.16699 22.5 22.5 33.5s32.833 19.5 55.5 25.5c53.333 14.667 106 10.667 158 -12c6.66699 15.333 8.33398 32 5.00098 50c-5.33301 27.333 -14 48.666 -26 63.999c-62.667 -52.667 -105.334 -71.667 -128.001 -57c-29.333 19.333 -50.666 39 -63.999 59
s-20.833 37.667 -22.5 53s4 29.666 17 42.999s28.167 25 45.5 35s34.666 17 51.999 21c40 10 70 5.66699 90 -13c44.667 -32 75 -74.333 91 -127c5.33301 -20 7.83301 -38.5 7.5 -55.5s-0.5 -33 -0.5 -48s-2.66699 -32.167 -8 -51.5zM139.505 292.004
c9.66699 0 18.666 3.33203 26.999 9.99902s10.833 14.834 7.5 24.501s-10 18.834 -20 27.501c-24.667 20.667 -50.667 27 -78 19c-6 -1.33301 -9 -5.16602 -9 -11.499s1.83301 -13.333 5.5 -21s9 -15.334 16 -23.001s14.833 -13.834 23.5 -18.501s17.834 -7 27.501 -7z
M146.504 126.003c-37.667 0 -57.166 -8.00195 -58.499 -24.002c-2.66699 -20 7.33301 -31.333 30 -34c18 -1.33301 36.333 1.33398 55 8.00098c32 12.667 47.333 23.334 46 32.001c-10.667 12 -34.834 18 -72.501 18z" />
    <glyph glyph-name="U0C17" unicode="&#xc17;" horiz-adv-x="559" 
d="M49 429l389 120l17 -112l-401 -68zM44 0c-28.667 40.667 -42.999 87.999 -42.999 141.999c0 64 19.667 123 59 177c40.667 56.667 92 88.334 154 95.001c63.333 6 118.666 -10.333 165.999 -49c51.333 -42 76.333 -98.667 75 -170
c-1.33301 -58 -15.666 -112.333 -42.999 -163l-17 -31l-115 -1c23.333 34.667 39.666 65.5 48.999 92.5s16.833 53 22.5 78s6.5 49.167 2.5 72.5s-12 43 -24 59c-26 34.667 -65 50 -117 46c-58 -5.33301 -95.333 -54.666 -112 -147.999c-6 -37.333 4 -82.333 30 -135
c11.333 -22.667 25.333 -44.334 42 -65.001h-129z" />
    <glyph glyph-name="U0C18" unicode="&#xc18;" horiz-adv-x="795" 
d="M590 -2c-44.667 18 -92.999 24.333 -144.999 19c-35.333 0 -73.333 -4.33301 -114 -13c7.33301 12 15.166 23.5 23.499 34.5l26.5 36l29 38.5c4.66699 4.66699 18 3.66699 40 -3c42.667 -12 68.334 -23 77.001 -33c22 7.33301 41.333 26.333 58 57
c18 33.333 21.667 73.333 11 120c-13.333 56 -48 112.667 -104 170h138c58 -93.333 75.333 -186 52 -278c-14.667 -54.667 -45.334 -104 -92.001 -148zM56.001 358l-18 51l305 189l44 -105zM453.001 247c0 -63.333 -39.333 -145.333 -118 -246c-2 0 -7.5 2.33301 -16.5 7
s-20.167 10 -33.5 16c-51.333 24.667 -99.666 31.667 -144.999 21c-20 -4.66699 -39.5 -10.5 -58.5 -17.5s-32.667 -10.667 -41 -11s-15.833 4.66699 -22.5 15s-11.334 23.166 -14.001 38.499c-8 40 -6 73.167 6 99.5s26 45.833 42 58.5s32 21 48 25s30.333 4 43 0
s20.667 -11.667 24 -23c13.333 -41.333 35.666 -71.666 66.999 -90.999c52.667 -32.667 91.334 -25.667 116.001 21c30 57.333 27 115.333 -9 174c-8 13.333 -17.333 27 -28 41l118 46c16 -62.667 23.333 -120.667 22 -174zM81.501 129
c-2.33301 -10.667 -0.163086 -19.5 6.50391 -26.5s15 -8.66699 25 -5s18.667 10.167 26 19.5s12.166 19.5 14.499 30.5s0.166016 18.833 -6.50098 23.5c-8.66699 8.66699 -17.834 11.167 -27.501 7.5s-17.834 -10.167 -24.501 -19.5s-11.167 -19.333 -13.5 -30zM152.004 30
l50 1l-19 -107l-77 -3z" />
    <glyph glyph-name="U0C19" unicode="&#xc19;" horiz-adv-x="728" 
d="M621 259c5.33301 -64.667 -2.67285 -120.666 -24.0059 -167.999c-10.667 -24 -27.167 -40.833 -49.5 -50.5s-45 -18.167 -68 -25.5s-46.833 -11 -71.5 -11c-56 1.33301 -107.333 25.333 -154 72c-22.667 0 -68.667 -21.333 -138 -64
c-13.333 -8 -21.166 -12.167 -23.499 -12.5s-5.33301 5.66699 -9 18s-6.5 27.5 -8.5 45.5c-7.33301 64 3 113.667 31 149l25 28c9.33301 8.66699 19.666 17 30.999 25c-70 -7.33301 -118 6.66699 -144 42c-15.333 20 -20 47.667 -14 83
c8.66699 53.333 50.334 89.333 125.001 108c39.333 9.33301 69.5 12.666 90.5 9.99902s34 -6.5 39 -11.5s10.333 -10 16 -15s9.83398 -10.833 12.501 -17.5c8.66699 -22.667 -1.66602 -61 -30.999 -115c-9.33301 -18 -19.333 -36 -30 -54
c-25.333 -44.667 -39 -72.5 -41 -83.5s-4.16699 -21.333 -6.5 -31s-4.16602 -18.5 -5.49902 -26.5c-2.66699 -17.333 0 -26 8 -26c8.66699 0 24.667 7.33301 48 22c44 28.667 68.333 43.5 73 44.5s9.83398 -0.666992 15.501 -5s11.5 -10 17.5 -17s12.5 -15 19.5 -24
s13.833 -17 20.5 -24l24.5 -24.5c9.66699 -9.33301 20.5 -17 32.5 -23c28.667 -14.667 54.334 -15 77.001 -1c8 4.66699 14.333 15 19 31s6 33.667 4 53c-5.33301 48.667 -24 81.667 -56 99h145zM98.9941 357.001c4 -15.333 21.332 -27.332 51.999 -35.999
c12.667 -4 27.334 -6.33301 44.001 -7c12 28 14 55.333 6 82c-5.33301 17.333 -21 28.666 -47 33.999c-12 2 -24.667 2.66699 -38 2c-18 -10 -23.667 -35 -17 -75zM380.993 492.002h17.001c9.33301 0 19.666 0.333008 30.999 1s25 1.33398 41 2.00098l-49 -181l-92 -9l22 75
c18.667 61.333 28.667 98.666 30 111.999zM269.994 420.002l266 16l9 -69h-304z" />
    <glyph glyph-name="U0C1A" unicode="&#xc1a;" horiz-adv-x="659" 
d="M165 403l317 132l14 -115l-328 -73zM190 354c0.666992 2 1.00293 5.66992 1.00293 11.0029s-1.33301 18 -4 38c4.66699 4 17.167 6.33301 37.5 7s44.666 -1 72.999 -5s58.333 -10.333 90 -19s61.167 -20 88.5 -34c61.333 -33.333 92.666 -75.333 93.999 -126
c1.33301 -70 -21.334 -127.667 -68.001 -173c-18 -18 -36.167 -31.167 -54.5 -39.5s-34.833 -13.333 -49.5 -15s-29.334 1.33301 -44.001 9s-27.5 16.834 -38.5 27.501s-21 21.167 -30 31.5s-17.833 16.5 -26.5 18.5c-14.667 5.33301 -33.667 -0.333984 -57 -17.001
s-53.333 -41.334 -90 -74.001c-20 49.333 -21.333 98.666 -4 147.999c7.33301 22.667 17.333 43 30 61l-138 -33l16 112l243 13c-24 -36.667 -39.833 -70.834 -47.5 -102.501s-9 -49.834 -4 -54.501s12.167 -5.66699 21.5 -3c14 4 29.333 12.667 46 26
c16.667 11.333 29.334 17.5 38.001 18.5s16.167 -2.33301 22.5 -10l23 -27.5c9 -10.667 19.167 -20.667 30.5 -30c27.333 -21.333 50.666 -27 69.999 -17c18.667 16 29.834 35.667 33.501 59s1.83398 47 -5.49902 71s-19 46.333 -35 67s-33 35.334 -51 44.001
c-28.667 14.667 -72.334 22 -131.001 22c-26 0 -52.667 -1.33301 -80 -4z" />
    <glyph glyph-name="U0C1B" unicode="&#xc1b;" horiz-adv-x="659" 
d="M482 535l14 -115l-328 -73l-1 50zM190 354c0.666992 2 1.00293 5.66992 1.00293 11.0029s-1.33301 18 -4 38c4.66699 4 17.167 6.33301 37.5 7s44.666 -1 72.999 -5s58.333 -10.333 90 -19s61.167 -20 88.5 -34c61.333 -33.333 92.666 -75.333 93.999 -126
c1.33301 -70 -21.334 -127.667 -68.001 -173c-18 -18 -36.167 -31.167 -54.5 -39.5s-34.833 -13.333 -49.5 -15s-29.334 1.33301 -44.001 9s-27.5 16.834 -38.5 27.501s-21 21.167 -30 31.5s-17.833 16.5 -26.5 18.5c-14.667 5.33301 -33.667 -0.333984 -57 -17.001
s-53.333 -41.334 -90 -74.001c-20 49.333 -21.333 98.666 -4 147.999c7.33301 22.667 17.333 43 30 61l-138 -33l16 112l243 13c-24 -36.667 -39.833 -70.834 -47.5 -102.501s-9 -49.834 -4 -54.501s12.167 -5.66699 21.5 -3c14 4 29.333 12.667 46 26
c16.667 11.333 29.334 17.5 38.001 18.5s16.167 -2.33301 22.5 -10l23 -27.5c9 -10.667 19.167 -20.667 30.5 -30c27.333 -21.333 50.666 -27 69.999 -17c18.667 16 29.834 35.667 33.501 59s1.83398 47 -5.49902 71s-19 46.333 -35 67s-33 35.334 -51 44.001
c-28.667 14.667 -72.334 22 -131.001 22c-26 0 -52.667 -1.33301 -80 -4zM150.003 -81.9971h87l34 119h-56z" />
    <glyph glyph-name="U0C1C" unicode="&#xc1c;" horiz-adv-x="726" 
d="M375 512l131.001 -10.001c5.33301 -45.333 4.66602 -90 -2.00098 -134c-4 -25.333 -11.333 -45.166 -22 -59.499s-21 -23.833 -31 -28.5c-38 -20 -77 -20 -117 0c-28 14 -52.667 34.333 -74 61c-12.667 14.667 -12 37.334 2 68.001c6.66699 12.667 16 26.334 28 41.001
c2 -16.667 7.33301 -31.834 16 -45.501s17.834 -23.5 27.501 -29.5l27 -17.5c8.33301 -5.66699 16.166 -10.167 23.499 -13.5c16.667 -6.66699 27.667 -6.5 33 0.5s7.33301 17.167 6 30.5s-4.33301 27.666 -9 42.999c-5.33301 16.667 -18.333 48 -39 94zM621.001 258.999
c2.66699 -63.333 -6.33301 -119.002 -27 -167.002c-10 -24 -26.167 -40.833 -48.5 -50.5s-44.833 -18.167 -67.5 -25.5s-46 -10.666 -70 -9.99902c-54 0.666992 -106.333 25 -157 73c-23.333 -1.33301 -68.333 -23 -135 -65c-12.667 -8 -20.334 -12.333 -23.001 -13
c-2 -1.33301 -4.83301 4.16699 -8.5 16.5s-6.5 27.5 -8.5 45.5c-8.66699 66 1 116.333 29 151c20 24.667 38 43 54 55c-47.333 -6 -86.333 -0.333008 -117 17c-35.333 19.333 -48.666 54 -39.999 104c6 37.333 29.333 66.666 70 87.999c31.333 16.667 69.333 26.667 114 30
c36.667 2.66699 60.334 -0.333008 71.001 -9c15.333 -12 24.666 -22.333 27.999 -31c7.33301 -16 6 -38.667 -4 -68c-12.667 -29.333 -27.667 -58.666 -45 -87.999c-32 -54.667 -49 -88.667 -51 -102c-16.667 -54.667 -17.667 -82 -3 -82c8 0 23.667 7.33301 47 22
c44 28.667 68.667 43.334 74 44.001c5.33301 3.33301 13.333 -1.33398 24 -14.001c16.667 -17.333 32.667 -35.666 48 -54.999c18.667 -22.667 35.334 -38 50.001 -46c29.333 -15.333 57.666 -15.333 84.999 0c6.66699 4 12 14 16 30s5 33.667 3 53
c-5.33301 50 -24 82.333 -56 97h148zM113.001 435.997c-17.333 -8.66699 -21.667 -33.666 -13 -74.999c3.33301 -24 35 -39.333 95 -46c14 57.333 9.33301 92.666 -14 105.999c-17.333 10 -40 15 -68 15z" />
    <glyph glyph-name="U0C1D" unicode="&#xc1d;" horiz-adv-x="1005" 
d="M537 6c-31.333 14 -71.333 21.002 -120 21.002h-25c-32.667 0 -70.667 -4.66699 -114 -14c10 15.333 23.167 34 39.5 56l38.5 52c4 5.33301 17.667 5 41 -1c43.333 -10.667 69 -22.334 77 -35.001c16 6 31.667 18.667 47 38s24.5 43.833 27.5 73.5
s-3.16699 64.167 -18.5 103.5s-46 82.333 -92 129h142c42 -66.667 62.667 -135 62 -205c-1.33301 -80.667 -36.333 -153.334 -105 -218.001zM797 0.00195312c-50.667 18.667 -98.999 25.001 -144.999 19.001c-34.667 0 -73.667 -4.33301 -117 -13l25 36l24.5 34.5l27.5 38.5
c6 6 20.333 5.33301 43 -2c44 -12.667 70.333 -24 79 -34c23.333 8 42.333 27.333 57 58c27.333 57.333 19.666 123.666 -23.001 198.999c-16.667 28.667 -40 58.667 -70 90h138c41.333 -66 62 -134.667 62 -206c0 -82.667 -33.667 -156 -101 -220zM20.001 411.003l271 176
l59 -76l-306 -144zM334.001 414.003c78.667 -36 113.667 -93.3311 105 -171.998c-7.33301 -70 -36.333 -130 -87 -180c-26 -25.333 -57.333 -43.333 -94 -54c-66.667 -19.333 -125.667 -6.33301 -177 39c-22 19.333 -39.667 41.666 -53 66.999s-21.833 47.166 -25.5 65.499
s-3.5 36.333 0.5 54s10.5 35.5 19.5 53.5s20 36 33 54s26.5 33.667 40.5 47c30 30 58.333 46.333 85 49c54.667 6.66699 105.667 -1 153 -23zM264.001 77.0049c13.333 -2.66699 25.833 3.33203 37.5 17.999s21 32.834 28 54.501s10.5 44.667 10.5 69
s-5.16699 44.5 -15.5 60.5s-23 30.167 -38 42.5s-30.5 21.833 -46.5 28.5c-37.333 16.667 -65 17.334 -83 2.00098c-7.33301 -4.66699 -15.833 -13.834 -25.5 -27.501s-18 -29.5 -25 -47.5s-11.333 -37.667 -13 -59s2.5 -41.333 12.5 -60c24 -43.333 76.667 -70.333 158 -81
zM435.001 -127.996h87l35 119h-56z" />
    <glyph glyph-name="U0C1E" unicode="&#xc1e;" horiz-adv-x="901" 
d="M581 170c30 102 46.333 164.333 49 187c22 0 51.667 2.33301 89 7l-49 -184zM528 292l256 13l13 -65l-308 -4zM473 123c-8.66699 -12.667 -16.334 -21.999 -23.001 -27.999l72 -59l-72 -46c-10 10.667 -18.833 20.5 -26.5 29.5s-15.5 17.5 -23.5 25.5s-14.333 15 -19 21
c-41.333 -33.333 -91.666 -54 -150.999 -62c-56.667 -8 -104.667 -2.66699 -144 16c-42 19.333 -61.667 49 -59 89c4 35.333 25.667 62.333 65 81c32 14.667 72.667 21.334 122 20.001c33.333 -1.33301 72 -10.666 116 -27.999c20 -8 40.333 -18.333 61 -31
c15.333 12.667 29.666 29.667 42.999 51s22 40.166 26 56.499s5.5 30.166 4.5 41.499s-3.83301 21.333 -8.5 30c-6.66699 12.667 -19.667 25 -39 37c-15.333 8 -32 12.167 -50 12.5s-31.667 -6.16699 -41 -19.5c-9.33301 -14.667 -16.333 -37.334 -21 -68.001h-68
c2.66699 14 4 26.667 4 38c0 30 -4.83301 48.833 -14.5 56.5s-22.334 12.834 -38.001 15.501s-31 2.83398 -46 0.500977s-27.167 -7.33301 -36.5 -15s-11 -18.167 -5 -31.5c15.333 -32 32.333 -52.333 51 -61l-66 -55c-38.667 36 -65 71.333 -79 106
c-7.33301 18 -7.33301 33.667 0 47c7.33301 15.333 22.833 30.666 46.5 45.999s48.667 28.5 75 39.5s50.333 18.5 72 22.5s34.834 2 39.501 -6c6.66699 -13.333 12.334 -28.666 17.001 -45.999s8.66699 -31.333 12 -42c20 28 42.667 47.667 68 59
c20 8.66699 59 2.66699 117 -18c31.333 -11.333 49.833 -20.833 55.5 -28.5l20.5 -27.5c8 -10.667 13.667 -24 17 -40c6 -28.667 5.16699 -60.334 -2.5 -95.001s-31.5 -79.334 -71.5 -134.001zM165.5 150.501c-19 -3.66699 -30.165 -12.5 -33.498 -26.5
s1.66699 -24.5 15 -31.5s30.666 -11.167 51.999 -12.5c47.333 -2.66699 93.666 5.33301 138.999 24c-8 10.667 -22.667 20.167 -44 28.5s-43.333 14.333 -66 18s-43.5 3.66699 -62.5 0z" />
    <glyph glyph-name="U0C1F" unicode="&#xc1f;" horiz-adv-x="656" 
d="M502 423c9.33301 -16 19.999 -46.0029 31.999 -90.0029c22 -80 31 -139.667 27 -179c-5.33301 -36.667 -18.5 -69.167 -39.5 -97.5s-50.5 -47.166 -88.5 -56.499c-21.333 -3.33301 -48.333 4.66699 -81 24c-13.333 8 -26.833 15.333 -40.5 22s-27.667 10 -42 10
s-27.166 -2 -38.499 -6s-21.333 -8.66699 -30 -14s-16.5 -11.166 -23.5 -17.499s-13.5 -11.5 -19.5 -15.5c-18.667 7.33301 -45 31 -79 71c-36 42 -61 83 -75 123c-11.333 34 2.66699 76.333 42 127c16 20 32.333 37.833 49 53.5l37 35.5
c42 30.667 91.333 15.334 148 -45.999c26 -30.667 34 -56.667 24 -78c-5.33301 -10 -13.833 -19.5 -25.5 -28.5s-24.5 -19.5 -38.5 -31.5c-22.667 -19.333 -51 -30.666 -85 -33.999c-16 -1.33301 -31.333 -0.666016 -46 2.00098c0 -22.667 9 -43.334 27 -62.001
c19.333 -20.667 43 -31 71 -31c16 0 35.667 10.667 59 32c8 7.33301 14.833 14.333 20.5 21s9.5 10 11.5 10s4.83301 -3.66699 8.5 -11s9.5 -15 17.5 -23c22.667 -22.667 49 -33.334 79 -32.001c18.667 0 36 12.333 52 37c16.667 24 22.667 50.333 18 79
c-8.66699 62 -46 130.667 -112 206h141zM121.999 277.997c0.666992 -15.333 8.33301 -22.668 23 -22.001c14 0.666992 26.833 5.33398 38.5 14.001s19.667 16 24 22s5 13 2 21s-7.83301 14.833 -14.5 20.5s-14.167 9.5 -22.5 11.5s-15.5 0.666992 -21.5 -4
s-11 -10.667 -15 -18c-10 -16.667 -14.667 -31.667 -14 -45zM131.998 537.995c2 5.33301 11.334 7.66602 28.001 6.99902s28.5 -2.5 35.5 -5.5s9.83301 -8.16699 8.5 -15.5c-2.66699 -5.33301 -6.33398 -11.666 -11.001 -18.999s-9 -15 -13 -23
c-8.66699 -20.667 -9.66699 -37.334 -3 -50.001c6 -5.33301 2 -13.333 -12 -24c-6.66699 -5.33301 -14.667 -10.333 -24 -15c-22 19.333 -32.333 46 -31 80c0.666992 18.667 8 40.334 22 65.001z" />
    <glyph glyph-name="U0C20" unicode="&#xc20;" horiz-adv-x="538" 
d="M28 402l255 187l58 -73l-291 -152zM393.5 376c17 -16 29.498 -34.498 37.498 -55.498s10.5 -47 7.5 -78s-11.833 -62 -26.5 -93s-34.834 -59.333 -60.501 -85s-56.667 -43.834 -93 -54.501s-69.333 -11.667 -99 -3s-55.5 22.667 -77.5 42s-39.833 41.666 -53.5 66.999
s-22.5 48.666 -26.5 69.999c-4.66699 21.333 -1.66699 46.333 9 75s25.334 55.834 44.001 81.501s39.334 47.667 62.001 66s45.5 28.833 68.5 31.5s47.833 2 74.5 -2s51.334 -11.333 74.001 -22s42.5 -24 59.5 -40zM263.998 79.002c13.333 -2.66699 25.833 3.33301 37.5 18
s21 32.834 28 54.501s10.667 44.667 11 69s-4.16699 44.833 -13.5 61.5c-22.667 32 -51.667 56 -87 72c-36 15.333 -63.667 15.333 -83 0c-17.333 -11.333 -34 -36.333 -50 -75c-18 -44.667 -17.667 -84.334 1 -119.001c24 -43.333 76 -70.333 156 -81zM260.998 262.502
c11.333 -8.33301 17 -18.333 17 -30s-5.66699 -21.667 -17 -30s-24.333 -12.5 -39 -12.5s-27.667 4.16699 -39 12.5s-17 18.333 -17 30s5.66699 21.667 17 30s24.333 12.5 39 12.5s27.667 -4.16699 39 -12.5z" />
    <glyph glyph-name="U0C21" unicode="&#xc21;" horiz-adv-x="646" 
d="M43 346l-21 43l393 225l36 -84zM453 424c-12 -22.667 -22.333 -46.6641 -31 -71.9971c-8 1.33301 -20.667 3.66602 -38 6.99902s-36.666 5.66602 -57.999 6.99902c-50.667 2 -94 -6 -130 -24c-32 -17.333 -57.333 -39.666 -76 -66.999
c-23.333 -31.333 -36.333 -65.666 -39 -102.999c-3.33301 -38 9 -63.333 37 -76c8.66699 -2.66699 21.334 0.666016 38.001 9.99902c40.667 22 79.667 48.333 117 79c20 -38 44.333 -69 73 -93c28.667 -22.667 54 -34 76 -34c25.333 0 41 5.66699 47 17
c-16 -6.66699 -33 -7.33398 -51 -2.00098c-34 10 -56.5 23.167 -67.5 39.5s-16.5 31.833 -16.5 46.5s3.33301 28 10 40c12.667 24.667 30.334 40.334 53.001 47.001l23.5 3.5c11 1.66699 22.833 1.16699 35.5 -1.5c33.333 -8 58 -32.667 74 -74c18 -44 14.333 -84 -11 -120
c-24.667 -36 -61.667 -54 -111 -54c-35.333 0 -72 15.333 -110 46l-33 28c-9.33301 8 -19.166 8.83301 -29.499 2.5l-40.5 -26c-16.667 -11 -33 -21.167 -49 -30.5c-38.667 -20.667 -64.334 -26 -77.001 -16c-57.333 49.333 -79 115.666 -65 198.999
c9.33301 53.333 35.666 101.666 78.999 144.999c22 22.667 47.333 41.334 76 56.001c44.667 24.667 102 36 172 34c27.333 -1.33301 51.666 -3.83301 72.999 -7.5s37.666 -5.83398 48.999 -6.50098zM449 114.003c11.333 -5.33301 19.833 -5.66797 25.5 -1.00098s8 13 7 25
s-4.83301 23.333 -11.5 34c-18 27.333 -41.333 35.666 -70 24.999c-14 -15.333 -8.33301 -35.666 17 -60.999c10 -9.33301 20.667 -16.666 32 -21.999z" />
    <glyph glyph-name="U0C22" unicode="&#xc22;" horiz-adv-x="646" 
d="M219 30l50 1l-18 -107l-77 -3zM43 346l-21 43l411 234l36 -84zM453 424c-18.667 -37.333 -29.666 -58.998 -32.999 -64.998c-40.667 16.667 -86.667 21.667 -138 15c-43.333 -5.33301 -84.333 -24 -123 -56c-30 -25.333 -52 -56.333 -66 -93
c-14.667 -39.333 -16.334 -72.333 -5.00098 -99c5.33301 -13.333 15.333 -23.333 30 -30c8.66699 -2.66699 21.334 0.666016 38.001 9.99902c40.667 22 79.667 48.333 117 79c20 -38 44.333 -69 73 -93c28.667 -22.667 54 -34 76 -34c25.333 0 41 5.66699 47 17
c-16 -6.66699 -33 -7.33398 -51 -2.00098c-34 10 -56.5 23.167 -67.5 39.5s-16.5 31.833 -16.5 46.5s3.33301 28 10 40c12.667 24.667 30.334 40.334 53.001 47.001l23.5 3.5c11 1.66699 22.833 1.16699 35.5 -1.5c33.333 -8 58 -32.667 74 -74c18 -44 14.333 -84 -11 -120
c-24.667 -36 -61.667 -54 -111 -54c-35.333 0 -72 15.333 -110 46l-33 28c-9.33301 8 -19.166 8.83301 -29.499 2.5l-40.5 -26c-16.667 -11 -33 -21.167 -49 -30.5c-38.667 -20.667 -64.334 -26 -77.001 -16c-57.333 49.333 -79 115.666 -65 198.999
c10 54.667 37 103 81 145c23.333 22 49.333 40.333 78 55c63.333 35.333 143.666 44.333 240.999 27c21.333 -3.33301 37.666 -5.33301 48.999 -6zM449.001 114.002c11.333 -5.33301 19.833 -5.66797 25.5 -1.00098s8 13 7 25s-4.83301 23.333 -11.5 34
c-18 27.333 -41.333 35.666 -70 24.999c-14 -15.333 -8.33301 -35.666 17 -60.999c10 -9.33301 20.667 -16.666 32 -21.999z" />
    <glyph glyph-name="U0C23" unicode="&#xc23;" horiz-adv-x="646" 
d="M236 2c-32.667 -4.66699 -69.3369 -4.33105 -110.004 1.00195c-19.333 2.66699 -40 20.334 -62 53.001c-30.667 44.667 -44 85.334 -40 122.001c0.666992 11.333 6.66699 19.666 18 24.999c34 16.667 62.333 26 85 28l1 16c-24.667 4.66699 -48.334 13 -71.001 25
c-43.333 25.333 -62 53.666 -56 84.999c2.66699 23.333 28.667 46.666 78 69.999c51.333 23.333 93.666 35 126.999 35c18.667 0 30.334 -4 35.001 -12l10.5 -26c3.66699 -8.66699 6.83398 -16.667 9.50098 -24c6 -17.333 9 -26.666 9 -27.999l5 -17l10 16
c4 8 12 16.667 24 26c22 17.333 49.333 26 82 26h12c109.333 -6 162 -63.667 158 -173c-1.33301 -52 -24 -108 -68 -168c-19.333 -24 -39.5 -43.667 -60.5 -59s-39.167 -23 -54.5 -23c-22.667 0 -42.167 9.83301 -58.5 29.5s-27.333 39.5 -33 59.5s-7.5 35 -5.5 45
c4 20 16 39.667 36 59s42.333 29 67 29s49.334 -13.333 74.001 -40l7 -8l5 9c12 17.333 18 38.333 18 63c0 43.333 -9 73.333 -27 90c-15.333 16 -33 24 -53 24c-41.333 0 -66.333 -11 -75 -33c-2 -3.33301 -4 -8.16602 -6 -14.499s-4.33301 -12.833 -7 -19.5
c-5.33301 -16.667 -8.66602 -28.334 -9.99902 -35.001h-61c1.33301 4.66699 3 17 5 37c0 33.333 -8 55.666 -24 66.999c-13.333 11.333 -36.333 17 -69 17c-22 0 -38.5 -2.5 -49.5 -7.5s-17.5 -9.83301 -19.5 -14.5c-4.66699 -10.667 -4 -20 2 -28
c12.667 -21.333 39.667 -38.333 81 -51c8.66699 -2.66699 16 -4.33398 22 -5.00098l-8 -63c-46 -13.333 -74.333 -29.666 -85 -48.999c-2 -7.33301 -0.5 -14.833 4.5 -22.5s11.333 -13.834 19 -18.501s15.834 -8.66699 24.501 -12c16.667 -6 32.834 -9 48.501 -9
s27.5 1 35.5 3v-100zM345.997 144.003c-1.33301 -16.667 2.66602 -30 11.999 -40c16.667 -18 36 -27 58 -27c14 0 22.667 8.33301 26 25c2.66699 11.333 0.666992 24 -6 38c-11.333 26.667 -28.666 40 -51.999 40s-36 -12 -38 -36z" />
    <glyph glyph-name="U0C24" unicode="&#xc24;" horiz-adv-x="593" 
d="M122 378l-10 60l302 176l18 -106l-179 -76c-18 -6.66699 -35.167 -13.5 -51.5 -20.5l-45 -19zM394 369c32.667 0 57.501 -6.66895 74.501 -20.002s27.667 -30.666 32 -51.999s3.66602 -44.5 -2.00098 -69.5s-14.167 -49.333 -25.5 -73s-24.833 -45 -40.5 -64
s-31.167 -32.5 -46.5 -40.5c-56.667 -32 -108.5 -48.667 -155.5 -50s-87.5 5.83398 -121.5 21.501s-60.333 36.5 -79 62.5c-34 45.333 -39.333 92 -16 140c24 50 59.333 86.667 106 110c23.333 11.333 45.5 16 66.5 14s36.667 -7.83301 47 -17.5s15.833 -21.5 16.5 -35.5
c2.66699 -29.333 -11 -61.666 -41 -96.999c-24 -28.667 -52.333 -38.334 -85 -29.001c-14.667 4 -28.667 11.333 -42 22c3.33301 -28.667 15 -51.334 35 -68.001c27.333 -22.667 71.333 -37 132 -43c58 -6 99.667 4 125 30c11.333 10.667 19.166 22.334 23.499 35.001
s8.5 23.667 12.5 33c-4.66699 -4 -12.667 -7.33301 -24 -10s-23.666 -3 -36.999 -1c-34 5.33301 -56.333 22 -67 50c-17.333 53.333 -11 94 19 122c8.66699 8 18.667 16.667 30 26c-12 30.667 -36.667 47.667 -74 51c-17.333 2 -35.333 1 -54 -3
c-42.667 12 -64.667 24.667 -66 38c76.667 18.667 139.667 15 189 -11c20 -10.667 35.5 -23 46.5 -37s18.167 -25.333 21.5 -34zM115.001 292.998c-3.33301 -8 -3.5 -17.499 -0.5 -28.499s8.16699 -20.833 15.5 -29.5c18.667 -20.667 41 -24.334 67 -11.001
c2 21.333 -1 37 -9 47c-16 18.667 -40.333 26 -73 22zM416.001 220.999c3.33301 21.333 0 40.667 -10 58c-19.333 32 -42.333 48.667 -69 50c-7.33301 -36.667 -2.33301 -63.667 15 -81c16 -16 37.333 -25 64 -27z" />
    <glyph glyph-name="U0C25" unicode="&#xc25;" horiz-adv-x="594" 
d="M32 407l341 144l10 -100l-345 -95zM446.5 311.5c23.667 -27 37.668 -57.668 42.001 -92.001s1.66602 -65 -8.00098 -92s-22.334 -50 -38.001 -69s-33 -33.5 -52 -43.5s-35.667 -15.667 -50 -17s-26.833 0.333984 -37.5 5.00098s-21.5 10.5 -32.5 17.5
s-22.667 13.5 -35 19.5s-26.5 9 -42.5 9s-34 -4.33301 -54 -13s-37.333 -20.667 -52 -36c-54.667 46 -83 102 -85 168c-0.666992 20.667 0.5 45.167 3.5 73.5s13 53.5 30 75.5s34.833 40 53.5 54c82 54.667 173 56.667 273 6c32.667 -16.667 60.834 -38.5 84.501 -65.5z
M306.501 81.499c11 -8.33301 22.1631 -12.1709 33.4961 -11.5039s21.333 4.83398 30 12.501s15.834 17.834 21.501 30.501s9.5 27.334 11.5 44.001s1 34 -3 52c-9.33301 38.667 -34.666 72.667 -75.999 102c-38 26.667 -77.333 40 -118 40
c-31.333 0 -55.666 -8.33301 -72.999 -25c-25.333 -24 -41.666 -54.667 -48.999 -92c-9.33301 -46.667 -7.33301 -83.334 6 -110.001c14.667 -27.333 34.667 -32.666 60 -15.999l59 35.5c16.667 10.333 27 15.5 31 15.5c3.33301 -1.33301 8 -6.83301 14 -16.5
s13.5 -20.167 22.5 -31.5s19 -21.166 30 -29.499zM265.497 288.994c10.333 -8.66699 15.5 -19.167 15.5 -31.5s-5.16699 -22.833 -15.5 -31.5s-23.333 -13 -39 -13s-28.5 4.33301 -38.5 13s-15 19.167 -15 31.5s5 22.833 15 31.5s22.833 13 38.5 13s28.667 -4.33301 39 -13z
M172.997 29.9941l50 1l-18 -107l-77 -3z" />
    <glyph glyph-name="U0C26" unicode="&#xc26;" horiz-adv-x="593" 
d="M32 407l341 144l10 -100l-345 -95zM446.5 311.5c23.667 -27 37.668 -57.668 42.001 -92.001s1.66602 -65 -8.00098 -92s-22.334 -50 -38.001 -69s-33 -33.5 -52 -43.5s-35.667 -15.667 -50 -17s-26.833 0.333984 -37.5 5.00098s-21.5 10.5 -32.5 17.5
s-22.667 13.5 -35 19.5s-26.5 9 -42.5 9s-34 -4.33301 -54 -13s-37.333 -20.667 -52 -36c-54.667 46 -83 102 -85 168c-0.666992 20.667 0.5 45.167 3.5 73.5s13 53.5 30 75.5s34.833 40 53.5 54c82 54.667 173 56.667 273 6c32.667 -16.667 60.834 -38.5 84.501 -65.5z
M306.501 81.499c11 -8.33301 22.1631 -12.1709 33.4961 -11.5039s21.333 4.83398 30 12.501s15.834 17.834 21.501 30.501s9.5 27.334 11.5 44.001s1 34 -3 52c-9.33301 38.667 -34.666 72.667 -75.999 102c-38 26.667 -77.333 40 -118 40
c-31.333 0 -55.666 -8.33301 -72.999 -25c-25.333 -24 -41.666 -54.667 -48.999 -92c-9.33301 -46.667 -7.33301 -83.334 6 -110.001c14.667 -27.333 34.667 -32.666 60 -15.999l59 35.5c16.667 10.333 27 15.5 31 15.5c3.33301 -1.33301 8 -6.83301 14 -16.5
s13.5 -20.167 22.5 -31.5s19 -21.166 30 -29.499z" />
    <glyph glyph-name="U0C27" unicode="&#xc27;" horiz-adv-x="593" 
d="M32 407l341 144l10 -100l-345 -95zM446.5 311.5c23.667 -27 37.668 -57.668 42.001 -92.001s1.66602 -65 -8.00098 -92s-22.334 -50 -38.001 -69s-33 -33.5 -52 -43.5s-35.667 -15.667 -50 -17s-26.833 0.333984 -37.5 5.00098s-21.5 10.5 -32.5 17.5
s-22.667 13.5 -35 19.5s-26.5 9 -42.5 9s-34 -4.33301 -54 -13s-37.333 -20.667 -52 -36c-54.667 46 -83 102 -85 168c-0.666992 20.667 0.5 45.167 3.5 73.5s13 53.5 30 75.5s34.833 40 53.5 54c82 54.667 173 56.667 273 6c32.667 -16.667 60.834 -38.5 84.501 -65.5z
M306.501 81.499c11 -8.33301 22.1631 -12.1709 33.4961 -11.5039s21.333 4.83398 30 12.501s15.834 17.834 21.501 30.501s9.5 27.334 11.5 44.001s1 34 -3 52c-9.33301 38.667 -34.666 72.667 -75.999 102c-38 26.667 -77.333 40 -118 40
c-31.333 0 -55.666 -8.33301 -72.999 -25c-25.333 -24 -41.666 -54.667 -48.999 -92c-9.33301 -46.667 -7.33301 -83.334 6 -110.001c14.667 -27.333 34.667 -32.666 60 -15.999l59 35.5c16.667 10.333 27 15.5 31 15.5c3.33301 -1.33301 8 -6.83301 14 -16.5
s13.5 -20.167 22.5 -31.5s19 -21.166 30 -29.499zM172.997 29.9941l50 1l-18 -107l-77 -3z" />
    <glyph glyph-name="U0C28" unicode="&#xc28;" horiz-adv-x="583" 
d="M69 450l311 111l13 -111l-317 -69zM6 -32c-2 11.333 -4.00293 41.998 -6.00293 91.998c6 70.667 31 122.667 75 156c35.333 27.333 72.333 37.666 111 30.999c6.66699 -38 22.667 -75.667 48 -113c12.667 -18.667 26.334 -33.167 41.001 -43.5s28.667 -11.833 42 -4.5
c66.667 52.667 83.334 108.334 50.001 167.001c-16 28 -39 53.667 -69 77c-12 10 -23 18 -33 24c-26.667 17.333 -89.667 26 -189 26c83.333 35.333 138 49.666 164 42.999c68 -24 120 -50.667 156 -80s60 -59.166 72 -89.499s14.5 -60 7.5 -89s-19.333 -55.167 -37 -78.5
s-38.5 -42.666 -62.5 -57.999s-46.333 -24.333 -67 -27s-39 -0.666992 -55 6s-29.833 15.667 -41.5 27s-22.167 24 -31.5 38l-25 38.5c-7.33301 11.667 -14 20.834 -20 27.501s-11.667 9 -17 7s-9.16602 -6 -11.499 -12s-3.5 -13.333 -3.5 -22
c-1.33301 -29.333 6.66699 -76 24 -140z" />
    <glyph glyph-name="U0C2A" unicode="&#xc2a;" horiz-adv-x="546" 
d="M24 326l-23 55l309 169l42 -91zM417 374c27.333 -52.667 40.3359 -103.002 39.0029 -151.002s-9.83301 -91.167 -25.5 -129.5s-39.834 -65.5 -72.501 -81.5c-36.667 -22 -81.334 -14 -134.001 24c-12.667 9.33301 -23.5 16.833 -32.5 22.5s-19 5.83398 -30 0.500977
s-21.833 -12.333 -32.5 -21l-30 -25c-9.33301 -8 -16 -12 -20 -12c-14.667 0 -28.167 6 -40.5 18s-21.833 26.667 -28.5 44c-16.667 41.333 -16 77 2 107c21.333 32.667 47.666 51 78.999 55c33.333 4.66699 58.333 -9 75 -41c20 -37.333 44 -64.666 72 -81.999
c18.667 -10.667 38.5 -16 59.5 -16s39.5 11.167 55.5 33.5s22.667 51.833 20 88.5c-3.33301 32.667 -23 74.667 -59 126zM105.003 76.998c12.667 3.33301 19.833 10.332 21.5 20.999s0.5 21.334 -3.5 32.001s-10.167 20 -18.5 28s-16.166 11 -23.499 9
c-12.667 -3.33301 -19.834 -10.333 -21.501 -21s-0.166992 -21.5 4.5 -32.5s11 -20.333 19 -28s15.333 -10.5 22 -8.5z" />
    <glyph glyph-name="U0C2B" unicode="&#xc2b;" horiz-adv-x="548" 
d="M47 332l-22 57l311 168l42 -91zM417 374c27.333 -52.667 40.3359 -103.002 39.0029 -151.002s-9.83301 -91.167 -25.5 -129.5s-39.834 -65.5 -72.501 -81.5c-36.667 -22 -81.334 -14 -134.001 24c-12.667 9.33301 -23.5 16.833 -32.5 22.5s-19 5.83398 -30 0.500977
s-21.833 -12.333 -32.5 -21l-30 -25c-9.33301 -8 -16 -12 -20 -12c-14.667 0 -28.167 6 -40.5 18s-21.833 26.667 -28.5 44c-16.667 41.333 -16 77 2 107c21.333 32.667 47.666 51 78.999 55c33.333 4.66699 58.333 -9 75 -41c20 -37.333 44 -64.666 72 -81.999
c18.667 -10.667 38.5 -16 59.5 -16s39.5 11.167 55.5 33.5s22.667 51.833 20 88.5c-3.33301 32.667 -23 74.667 -59 126zM105.003 76.998c12.667 3.33301 19.833 10.332 21.5 20.999s0.5 21.334 -3.5 32.001s-10.167 20 -18.5 28s-16.166 11 -23.499 9
c-12.667 -3.33301 -19.834 -10.333 -21.501 -21s-0.166992 -21.5 4.5 -32.5s11 -20.333 19 -28s15.333 -10.5 22 -8.5zM143.002 29.9971l51 1l-19 -107l-77 -3z" />
    <glyph glyph-name="U0C2C" unicode="&#xc2c;" horiz-adv-x="663" 
d="M418 438c54.667 -39.333 96.0039 -82.002 124.004 -128.002c12.667 -20.667 18.167 -40.667 16.5 -60s-5.83398 -41.166 -12.501 -65.499s-16.834 -48.333 -30.501 -72s-30.834 -45.5 -51.501 -65.5s-43.667 -34.667 -69 -44c-15.333 -8 -31.5 -7.66699 -48.5 1
s-33.667 17.667 -50 27s-32.333 17.5 -48 24.5s-30.834 7.83301 -45.501 2.5c-10.667 -2.66699 -34 -10.667 -70 -24c-65.333 -25.333 -101.333 -36 -108 -32c-6 1.33301 -11.833 9 -17.5 23s-7.5 31.667 -5.5 53c6 54.667 39.667 104.334 101 149.001
c-10.667 -2 -24.334 -0.333008 -41.001 5s-30.834 14.333 -42.501 27s-18 28.667 -19 48s9.83301 42.333 32.5 69s48 44.167 76 52.5s54.167 10.333 78.5 6s44.833 -13.5 61.5 -27.5s26.167 -31.5 28.5 -52.5s-1.5 -39.833 -11.5 -56.5s-22.167 -30.5 -36.5 -41.5
s-28.833 -20.333 -43.5 -28s-28 -16.5 -40 -26.5s-22 -22.667 -30 -38s-12.167 -29 -12.5 -41s2.66699 -21 9 -27s15.166 -7 26.499 -3c37.333 13.333 65.833 26.833 85.5 40.5s31.834 22 36.501 25s7.83398 3.33301 9.50098 1s6.33398 -8.33301 14.001 -18
s16.834 -19.167 27.501 -28.5c28 -24 52.333 -32.667 73 -26c4 0.666992 11.167 5.16699 21.5 13.5s20.166 19.5 29.499 33.5c24.667 35.333 33 72 25 110c-10.667 52 -50 106.667 -118 164c-19.333 16.667 -31.333 26.667 -36 30h111zM87.0039 381.998
c-8.66699 -16 -10.167 -30.999 -4.5 -44.999s14.334 -25.5 26.001 -34.5s24.5 -14.833 38.5 -17.5s24.667 -1 32 5c9.33301 21.333 10.166 38.666 2.49902 51.999s-18 23.5 -31 30.5s-26.167 11.167 -39.5 12.5s-21.333 0.333008 -24 -3z" />
    <glyph glyph-name="U0C2D" unicode="&#xc2d;" horiz-adv-x="659" 
d="M318 457l203 155l10 -111l-206 -95zM387 438c37.333 -5.33301 70.1748 -20.002 98.5078 -44.002s47.666 -49.333 57.999 -76s14.833 -49.667 13.5 -69s-5.33301 -41 -12 -65s-16.834 -47.667 -30.501 -71s-31.334 -44.833 -53.001 -64.5s-47.167 -33.5 -76.5 -41.5
c-14 4.66699 -27.833 9.83398 -41.5 15.501s-26.834 10.5 -39.501 14.5c-28 9.33301 -50 12.333 -66 9c-8.66699 -0.666992 -36 -6.66699 -82 -18c-84 -20.667 -128.667 -29.667 -134 -27c-6 1.33301 -11.667 9 -17 23s-6.66602 31.667 -3.99902 53
c6.66699 54 39.667 103.667 99 149c-29.333 -5.33301 -57.333 5.33398 -84 32.001c-17.333 17.333 -22 40 -14 68c4.66699 14 14.667 30 30 48c22.667 27.333 47.667 45.166 75 53.499s53.166 10.333 77.499 6s44.833 -13.5 61.5 -27.5s26.167 -31.5 28.5 -52.5
s-1.33398 -39.833 -11.001 -56.5s-21.5 -30.5 -35.5 -41.5s-28.167 -20.333 -42.5 -28s-27.666 -16.5 -39.999 -26.5s-22.5 -22.667 -30.5 -38s-12.167 -29 -12.5 -41s2.66699 -21 9 -27s18.166 -5.83301 35.499 0.5s34.166 14 50.499 23s29.666 17 39.999 24s18 12 23 15
s8.33301 3.33301 10 1s6.33398 -8.33301 14.001 -18s16.834 -19.167 27.501 -28.5c27.333 -24 50.666 -32.667 69.999 -26c4.66699 0.666992 12.167 5.16699 22.5 13.5s20.166 19.5 29.499 33.5c19.333 27.333 30.666 69 33.999 125c-4 26 -9.5 46.5 -16.5 61.5
s-18.5 29.333 -34.5 43s-31.833 23.334 -47.5 29.001l-40.5 14.5zM87.0088 380.998c-8.66699 -16 -10.168 -30.999 -4.50098 -44.999s14.334 -25.5 26.001 -34.5s24.5 -14.833 38.5 -17.5s24.667 -1 32 5c8 21.333 8.33301 38.666 1 51.999s-17.5 23.5 -30.5 30.5
s-26 11.167 -39 12.5s-20.833 0.333008 -23.5 -3zM212.008 29.999l50 1l-18 -107l-77 -3z" />
    <glyph glyph-name="U0C2E" unicode="&#xc2e;" horiz-adv-x="819" 
d="M49 374l21.998 48.9941c123.333 12.667 220.333 -5 291 -53c64.667 -44.667 97 -106.667 97 -186c0 -34 -8.33301 -67.333 -25 -100s-41 -57 -73 -73c-36.667 -22 -81.667 -13.667 -135 25c-12 8.66699 -22.5 15.834 -31.5 21.501s-19 5.83398 -30 0.500977
s-22 -12.166 -33 -20.499s-21 -16.666 -30 -24.999s-15.5 -12.5 -19.5 -12.5c-14.667 -1.33301 -28 4 -40 16s-21.667 26.833 -29 44.5s-11.166 36.334 -11.499 56.001s4.5 37.334 14.5 53.001s21.833 28.167 35.5 37.5s27.834 15 42.501 17
c33.333 4.66699 58.333 -9 75 -41c20 -37.333 44.333 -64.333 73 -81c18 -11.333 37.5 -17 58.5 -17s39.167 10.167 54.5 30.5s23 49.166 23 86.499c0 44.667 -19.667 85.334 -59 122.001c-33.333 31.333 -83 50 -149 56c-34 2.66699 -74.333 0.666992 -121 -6z
M85.998 84.4941c8 -7.66699 16.832 -10.168 26.499 -7.50098s15.334 9.33398 17.001 20.001s0.5 21.334 -3.5 32.001s-10.167 20 -18.5 28s-17.333 10.667 -27 8s-15.5 -9.33398 -17.5 -20.001s-0.666992 -21.5 4 -32.5s11 -20.333 19 -28zM39.9971 422.993l319 134l25 -91
l-344 -95v52zM347.997 3.99316l61.998 115.001c20.667 0 46.834 -5 78.501 -15s52.834 -18 63.501 -24c24 9.33301 43.333 29.666 58 60.999c28.667 58.667 20.667 127 -24 205c-16.667 29.333 -40.667 60 -72 92h143c42.667 -69.333 63.667 -140.333 63 -213
c-1.33301 -50.667 -16 -100.667 -44 -150c-15.333 -26 -36 -51.333 -62 -76c-48 20 -86.667 30 -116 30c-59.333 0 -109.333 -8.33301 -150 -25z" />
    <glyph glyph-name="U0C2F" unicode="&#xc2f;" horiz-adv-x="946" 
d="M784 422c43.333 -63.333 65.0029 -130.999 65.0029 -202.999c0 -48.667 -14 -97.334 -42 -146.001c-14.667 -25.333 -34.334 -50 -59.001 -74c-37.333 14.667 -76 23.334 -116 26.001c-24 1.33301 -45.333 0.666016 -64 -2.00098c-37.333 -5.33301 -62 -9.33301 -74 -12
l24 28c12 14 29.667 36 53 66c5.33301 6 17 6.33301 35 1c35.333 -10.667 61.666 -20 78.999 -28c22.667 10 42 30 58 60c27.333 51.333 20.333 117.333 -21 198c-14.667 28 -38.334 56.667 -71.001 86h133zM481.003 424.001c13.333 -2 28.4971 -8.33301 45.4971 -19
s33.167 -25 48.5 -43c37.333 -44 56 -94.667 56 -152c0 -51.333 -18.333 -97.666 -55 -138.999c-35.333 -39.333 -77.666 -63.333 -126.999 -72c-11.333 1.33301 -23.166 5.5 -35.499 12.5l-37.5 20.5c-30 17.333 -52 23.166 -66 17.499l-33.5 -13.5
c-8.33301 -3.33301 -15.833 -6.66602 -22.5 -9.99902c-8.66699 -5.33301 -26 -13.666 -52 -24.999c-26.667 2 -53.167 10.5 -79.5 25.5s-49.166 34.833 -68.499 59.5c-44.667 56 -61.334 117.667 -50.001 185c5.33301 20 15.666 41.833 30.999 65.5s31.833 42.667 49.5 57
s34.334 24.666 50.001 30.999s26.834 9.83301 33.501 10.5c78 8.66699 136.333 -3 175 -35c31.333 -26.667 50.333 -65.667 57 -117c7.33301 -37.333 1 -90.333 -19 -159c4.66699 0 12.334 -4 23.001 -12c22.667 -16 38 -31.667 46 -47c37.333 8.66699 64.666 33 81.999 73
c8 19.333 12.5 47.5 13.5 84.5s-4.16699 67.5 -15.5 91.5s-23.333 42 -36 54c-16 13.333 -34.333 21.666 -55 24.999l-11 40c20 2.66699 37.667 -0.333008 53 -9zM214 67.001c12.667 0 25.833 8.66895 39.5 26.002s25.167 38.833 34.5 64.5s15.333 49.667 18 72
s0 46.166 -8 71.499s-23 46.166 -45 62.499s-52.667 23.833 -92 22.5c-24 -1.33301 -42.333 -31.333 -55 -90c-11.333 -50.667 -10 -98 4 -142c8 -25.333 20.333 -46.333 37 -63s39 -24.667 67 -24zM599.999 567.003l11 -103l-187 -77l-7 50z" />
    <glyph glyph-name="U0C30" unicode="&#xc30;" horiz-adv-x="538" 
d="M48 422l258 179l63 -95l-298 -131zM334 414c77.333 -36.667 111.996 -93.998 103.996 -171.998c-6 -68.667 -34.333 -128.334 -85 -179.001c-25.333 -25.333 -56.166 -43.5 -92.499 -54.5s-69.5 -12.167 -99.5 -3.5s-56.167 22.667 -78.5 42s-40.333 41.666 -54 66.999
s-22.667 48.833 -27 70.5s-1.16602 46.667 9.50098 75s25.334 55.5 44.001 81.5s39.334 48.167 62.001 66.5s45.667 28.5 69 30.5c52.667 6 102 -2 148 -24zM263.996 77.002c13.333 -2 25.833 4.33203 37.5 18.999s21 32.834 28 54.501s10.667 44.667 11 69
s-4.16699 44.833 -13.5 61.5c-24.667 31.333 -53.667 54.333 -87 69c-37.333 16.667 -65 17.334 -83 2.00098c-17.333 -11.333 -34 -36.333 -50 -75c-18 -44.667 -17.667 -84.334 1 -119.001c24 -43.333 76 -70.333 156 -81z" />
    <glyph glyph-name="U0C31" unicode="&#xc31;" horiz-adv-x="718" 
d="M404.5 424c13.667 11.333 26.002 18.832 37.002 22.499s26.667 3.83398 47 0.500977s40.833 -12.333 61.5 -27c48.667 -36.667 73 -99 73 -187c0 -52 -10.333 -98.167 -31 -138.5s-46.334 -70.5 -77.001 -90.5c-6 -3.33301 -12.333 -4.33301 -19 -3s-16 3.33301 -28 6
c-37.333 8.66699 -79.666 13 -126.999 13c-46 2 -93.667 -6.66699 -143 -26c-7.33301 -2.66699 -14.333 -3.66699 -21 -3c-31.333 7.33301 -63 22.333 -95 45c-48.667 35.333 -75.667 76.333 -81 123c-5.33301 52 8.33398 104 41.001 156c17.333 26.667 39.333 50.667 66 72
s53 33.666 79 36.999s49.333 1.33301 70 -6s37.5 -18.5 50.5 -33.5s19.833 -29.167 20.5 -42.5c1.33301 -26.667 -7.66699 -51.334 -27 -74.001s-45.333 -39.667 -78 -51c-24 -8.66699 -50.333 -5.66699 -79 9c-12 6.66699 -22.667 14.667 -32 24
c-17.333 -52 -13.333 -93.667 12 -125c19.333 -22.667 50 -37.667 92 -45c31.333 -6 58.666 -6 81.999 0c15.333 3.33301 27.666 11.333 36.999 24c3.33301 6 5.33301 12 6 18c19.333 -34.667 54.333 -50 105 -46c40 2.66699 69.333 25.667 88 69
c9.33301 22.667 12.666 53.334 9.99902 92.001c-1.33301 37.333 -12 67 -32 89c-20.667 22.667 -49.334 29 -86.001 19c-12.667 -3.33301 -15.667 -13.666 -9 -30.999c5.33301 -13.333 17.333 -34.666 36 -63.999c16.667 -26 16.667 -51.667 0 -77
c-17.333 -26.667 -42.666 -41.334 -75.999 -44.001c-36.667 -4 -86 -4 -148 0v72h142c16 0 24.833 3.5 26.5 10.5s-0.833008 16.5 -7.5 28.5c-35.333 49.333 -42 96 -20 140c9.33301 18 20.833 32.667 34.5 44zM187.002 360.999
c-10.667 -6.66699 -15.668 -16.333 -15.001 -29s4.83398 -23.834 12.501 -33.501s17.5 -16.167 29.5 -19.5s23.833 0.333984 35.5 11.001s16.5 21.5 14.5 32.5s-7.16699 20.667 -15.5 29s-18.333 14 -30 17s-22.167 0.5 -31.5 -7.5z" />
    <glyph glyph-name="U0C32" unicode="&#xc32;" horiz-adv-x="579" 
d="M313 434c10.667 -3.33301 49.9971 -3.33203 117.997 0.000976562c34.667 -48.667 49.667 -106.667 45 -174c-4.66699 -60 -24 -115.333 -58 -166c-34 -50 -72.667 -79.667 -116 -89c-61.333 -13.333 -121.333 -8.66602 -180 14.001c-28.667 11.333 -54 27.666 -76 48.999
s-36.167 48.833 -42.5 82.5s-4.66602 67.667 5.00098 102s23.167 65.5 40.5 93.5s36 50.667 56 68s38 26 54 26c36.667 -1.33301 62.834 -8.83301 78.501 -22.5s24.334 -30 26.001 -49s-1.66602 -39.5 -9.99902 -61.5s-18.833 -41.333 -31.5 -58
c-20 -30.667 -50 -37.334 -90 -20.001c-18 8 -35.333 20 -52 36c2 -66.667 25.333 -116.334 70 -149.001c32 -24 66.333 -36 103 -36c46.667 0 83.667 24.667 111 74c9.33301 18 16.666 40 21.999 66c8.66699 42.667 -1 91.334 -29 146.001c-12 23.333 -26.667 46 -44 68z
M114.997 381.001c-14.667 -17.333 -15 -37 -1 -59c12 -18 29.167 -31.5 51.5 -40.5s37.5 -6.5 45.5 7.5c8.66699 26 5.66699 47.667 -9 65c-10 13.333 -27 22.666 -51 27.999c-20.667 4.66699 -32.667 4.33398 -36 -0.999023z" />
    <glyph glyph-name="U0C33" unicode="&#xc33;" horiz-adv-x="556" 
d="M260 423l-11 43l219 145l40 -71zM353 248c34 -14.667 59.501 -32.1719 76.501 -52.5049s25.167 -41.333 24.5 -63s-10 -42.667 -28 -63s-42.5 -36.666 -73.5 -48.999s-63 -19.166 -96 -20.499s-64.167 1.66699 -93.5 9s-54.666 19.5 -75.999 36.5s-34 38.5 -38 64.5
c-4.66699 36.667 0.333008 64.167 15 82.5s34 32.833 58 43.5c-8.66699 3.33301 -16.667 6.83301 -24 10.5s-17.666 7.83398 -30.999 12.501c-61.333 40.667 -80.333 87.667 -57 141c11.333 26.667 28.666 49.667 51.999 69c9.33301 8 18.333 14.167 27 18.5
s23.167 3.83301 43.5 -1.5s39.5 -14.166 57.5 -26.499s31.833 -27.833 41.5 -46.5s9.83398 -38.334 0.500977 -59.001c-16.667 -36 -38.667 -54 -66 -54c-12.667 -0.666992 -25.334 2.33301 -38.001 9c6 -10 38 -20.333 96 -31c16 -3.33301 30.667 -5.66602 44 -6.99902
c32 10.667 57.333 28 76 52c18.667 20.667 25 38.667 19 54c-12.667 36 -46.334 51.667 -101.001 47l-3 27c24.667 11.333 54.834 12.833 90.501 4.5s61.5 -21.666 77.5 -39.999s23.167 -38 21.5 -59s-10.834 -41.667 -27.501 -62s-39.334 -35.833 -68.001 -46.5z
M81.001 394.495c1.33301 -10.333 6.99707 -19.833 16.9971 -28.5c22.667 -22 39.334 -27 50.001 -15c6.66699 4.66699 9.33398 12 8.00098 22s-6.66602 20 -15.999 30s-19.333 16.167 -30 18.5s-19 1.5 -25 -2.5c-4 -6 -5.33301 -14.167 -4 -24.5zM313.998 65.9951
c20 8.66699 34.1689 22.333 42.502 41s6.16602 39 -6.50098 61c-12 23.333 -39.333 39.333 -82 48c-34.667 8 -61.334 8.66699 -80.001 2c-38 -20.667 -53 -44.667 -45 -72c7.33301 -26.667 23 -46 47 -58c28.667 -15.333 55 -23.833 79 -25.5s39 -0.5 45 3.5z" />
    <glyph glyph-name="U0C35" unicode="&#xc35;" horiz-adv-x="554" 
d="M49 374l21.998 48.9941c123.333 12.667 220.333 -5 291 -53c64.667 -44.667 97 -106.667 97 -186c0 -34 -8.33301 -67.333 -25 -100s-41 -57 -73 -73c-36.667 -22 -81.667 -13.667 -135 25c-12 8.66699 -22.5 15.834 -31.5 21.501s-19 5.83398 -30 0.500977
s-22 -12.166 -33 -20.499s-21 -16.666 -30 -24.999s-15.5 -12.5 -19.5 -12.5c-14.667 -1.33301 -28 4 -40 16s-21.667 26.833 -29 44.5s-11.166 36.334 -11.499 56.001s4.5 37.334 14.5 53.001s21.833 28.167 35.5 37.5s27.834 15 42.501 17
c33.333 4.66699 58.333 -9 75 -41c20 -37.333 44.333 -64.333 73 -81c18 -11.333 37.5 -17 58.5 -17s39.167 10.167 54.5 30.5s23 49.166 23 86.499c0 44.667 -19.667 85.334 -59 122.001c-33.333 31.333 -83 50 -149 56c-34 2.66699 -74.333 0.666992 -121 -6z
M85.998 84.4941c8 -7.66699 16.832 -10.168 26.499 -7.50098s15.334 9.33398 17.001 20.001s0.5 21.334 -3.5 32.001s-10.167 20 -18.5 28s-17.333 10.667 -27 8s-15.5 -9.33398 -17.5 -20.001s-0.666992 -21.5 4 -32.5s11 -20.333 19 -28zM39.9971 422.993l319 134l25 -91
l-344 -95v52z" />
    <glyph glyph-name="U0C36" unicode="&#xc36;" horiz-adv-x="591" 
d="M128 420c50 7.33301 95.832 10.999 137.499 10.999s74.167 -2.5 97.5 -7.5s40.833 -11.5 52.5 -19.5s19.334 -16.5 23.001 -25.5s4.5 -18.167 2.5 -27.5s-5.33301 -18.333 -10 -27c-6.66699 -12 -16.334 -23 -29.001 -33c49.333 -24.667 77.666 -55.334 84.999 -92.001
c6 -30.667 -4 -63 -30 -97c-23.333 -31.333 -52.333 -55.666 -87 -72.999c-52 -28 -111.333 -34.333 -178 -19c-29.333 6.66699 -54.5 18.5 -75.5 35.5s-33 37 -36 60s-2.66699 42.5 1 58.5s9.83398 30 18.501 42c16 21.333 39.333 37.666 70 48.999
c-34 -2 -73.333 -12.333 -118 -31c-18 -7.33301 -35.333 -16 -52 -26v84c171.333 37.333 286.666 45.333 345.999 24c4.66699 14.667 4.66699 32.334 0 53.001c-5.33301 18.667 -30.666 29.334 -75.999 32.001c-43.333 2 -90.666 -1 -141.999 -9v38zM303.499 65.999
c15.667 0 28.8369 1.17188 39.5039 3.50488s19.667 7.66602 27 15.999s12.666 18.666 15.999 30.999s5 25.666 5 39.999s-2 28.166 -6 41.499c-7.33301 24 -32.333 41.333 -75 52c-16.667 4.66699 -32.334 7.16699 -47.001 7.5s-24.334 -0.5 -29.001 -2.5
c-26.667 -14.667 -45.334 -36.334 -56.001 -65.001c-11.333 -28.667 -10.333 -53.667 3 -75c10 -20 35 -34.333 75 -43c16 -4 31.833 -6 47.5 -6zM128.002 382.004l-17 48l273 164l39 -91z" />
    <glyph glyph-name="U0C37" unicode="&#xc37;" horiz-adv-x="569" 
d="M76 332l-23 52l308 197l42 -111zM456 378c10 -51.333 14.332 -103.998 12.999 -157.998c0 -54 -24 -111 -72 -171l-40 -48c-1.33301 0 -7.33301 1.83301 -18 5.5s-24 7.83398 -40 12.501c-62.667 18.667 -117 23.334 -163 14.001c-31.333 -6 -55.833 -13 -73.5 -21
s-30.167 -12.833 -37.5 -14.5s-13.166 3.66602 -17.499 15.999s-6.83301 27.5 -7.5 45.5c-0.666992 44.667 7.33301 79 24 103c15.333 22 41.333 40.667 78 56c15.333 6.66699 29 10.667 41 12s19.333 -0.666992 22 -6c14 -30.667 42.333 -58.334 85 -83.001
c34.667 -20.667 60.667 -31 78 -31c10 -2.66699 22.333 10 37 38c14 27.333 21 53.666 21 78.999c-2.66699 24 -8.16699 44.667 -16.5 62s-15.833 31.666 -22.5 42.999zM79.999 83.002c8.66699 -8.66699 18.1689 -11.166 28.502 -7.49902s19 10.167 26 19.5s12 19.333 15 30
s1.16699 18.667 -5.5 24s-14.834 5.66602 -24.501 0.999023s-18.334 -11.167 -26.001 -19.5s-13.167 -17.333 -16.5 -27s-2.33301 -16.5 3 -20.5zM538.001 -14.9971c-31.333 -33.333 -52.333 -52 -63 -56c-32.667 26 -56 71.667 -70 137c-7.33301 34 -9 77 -5 129l69 19
c-4 -59.333 3 -114 21 -164c10 -26 26 -47.667 48 -65z" />
    <glyph glyph-name="U0C38" unicode="&#xc38;" horiz-adv-x="559" 
d="M3 -66c-2 28 -2.99902 47.999 -2.99902 59.999v39c1.33301 44.667 20.666 85.667 57.999 123c15.333 15.333 30.833 26.666 46.5 33.999s26.834 10.166 33.501 8.49902s17.167 -8.66699 31.5 -21l47.5 -39.5c46 -38 74.5 -56.667 85.5 -56s20.833 5.83398 29.5 15.501
s15.667 21.834 21 36.501c21.333 56.667 21.666 107.334 0.999023 152.001c-14 31.333 -30.333 55 -49 71l115 59c26 -60.667 38 -125 36 -193c-2.66699 -64.667 -23.667 -119.667 -63 -165c-16.667 -18.667 -34.667 -33 -54 -43s-36.5 -14.833 -51.5 -14.5
s-30.667 6 -47 17s-32.333 22.833 -48 35.5l-43 34c-13 10 -22.167 14.667 -27.5 14c-37.333 -3.33301 -45.333 -48 -24 -134zM49.001 333.999l-19 53l301 183l49 -101z" />
    <glyph glyph-name="U0C39" unicode="&#xc39;" horiz-adv-x="808" 
d="M697 159c-7.33301 -20 -18.6689 -34.6709 -34.002 -44.0039c-25.333 -17.333 -50.333 -20.333 -75 -9c-47.333 28.667 -74 52 -80 70c-6 16.667 -5.5 32 1.5 46s15.667 27.5 26 40.5s27.833 28.5 52.5 46.5l-154 -9c16 -42.667 24 -83.334 24 -122.001
c0 -80.667 -30 -136 -90 -166c-38.667 -22.667 -86 -14.667 -142 24c-13.333 9.33301 -24.5 16.833 -33.5 22.5s-19 5.83398 -30 0.500977s-22 -12.166 -33 -20.499s-21 -16.666 -30 -24.999s-15.5 -12.5 -19.5 -12.5c-14.667 -1.33301 -28 4 -40 16
s-21.667 26.833 -29 44.5s-11.166 36.334 -11.499 56.001s4.5 37.334 14.5 53.001s21.833 28.167 35.5 37.5s27.834 15 42.501 17c33.333 4.66699 58.333 -9 75 -41c20 -37.333 44.333 -64.666 73 -81.999c18 -10.667 37.5 -16 58.5 -16s38.833 7.66699 53.5 23
s22 41.333 22 78c0 32 -12.667 76 -38 132c-8 18.667 -18 36.667 -30 54h268c32.667 0 62.667 -13.667 90 -41c46.667 -46.667 57.667 -104.334 33 -173.001zM105.997 76.9961c12.667 3.33301 19.833 10.332 21.5 20.999s0.5 21.334 -3.5 32.001s-10.167 20 -18.5 28
s-16.166 11 -23.499 9c-12.667 -3.33301 -19.834 -10.333 -21.501 -21s-0.166992 -21.5 4.5 -32.5s11 -20.333 19 -28s15.333 -10.5 22 -8.5zM618.496 169.495c10.333 -3.66699 20.167 -0.666992 29.5 9s13 20.667 11 33s-6.83301 23.5 -14.5 33.5s-16.667 16.833 -27 20.5
s-19.5 1.16699 -27.5 -7.5s-11.333 -19.667 -10 -33s5.5 -25 12.5 -35s15.667 -16.833 26 -20.5zM2.99707 370.995l269 196l54 -74l-294 -164z" />
    <glyph glyph-name="uni0C3D" unicode="&#xc3d;" horiz-adv-x="766" 
d="M218 385c-60.667 0 -110.669 -39.335 -150.002 -118.002c-1.33301 0 -5 4.33301 -11 13l-20 28l-29 41c37.333 31.333 65.333 52.333 84 63c40.667 23.333 82.667 35 126 35s76.5 -3.83301 99.5 -11.5s40.5 -17.5 52.5 -29.5c20 -20.667 28.333 -49.667 25 -87
c-10 -44 -54 -89.333 -132 -136l-54.5 -32c-16.333 -9.33301 -29.166 -17.166 -38.499 -23.499s-13 -11.166 -11 -14.499c-1.33301 -10.667 36.334 -16 113.001 -16c118 0 226 6.33301 324 19c69.333 8.66699 110.333 20.334 123 35.001
c-7.33301 -36 -13.166 -67 -17.499 -93s-7.83301 -41.833 -10.5 -47.5s-6.33398 -8.5 -11.001 -8.5c-70 -1.33301 -136.333 2.16699 -199 10.5s-119.167 16.5 -169.5 24.5s-93.5 13.333 -129.5 16s-61.667 -2 -77 -14c-8 -6.66699 -13.667 -11.667 -17 -15l-8 -8
c-2 -2 -4 -4.16699 -6 -6.5s-5.66699 -5.5 -11 -9.5c-7.33301 2 -14.5 8.5 -21.5 19.5s-11.5 23.167 -13.5 36.5c-5.33301 36 7 61 37 75c18 12.667 39.167 24.5 63.5 35.5s47.5 23.833 69.5 38.5c53.333 35.333 80 80 80 134c0 15.333 -7.33301 27.666 -22 36.999
c-9.33301 6 -22 9 -38 9z" />
    <glyph glyph-name="U0C3E" unicode="&#xc3e;" horiz-adv-x="956" 
d="M674.5 286c-23 23.333 -34.5 49.999 -34.5 79.999s6.66699 53 20 69l-2 7l-52 -7h-606v66h731c40 0 74.167 -12.833 102.5 -38.5s42.5 -55.667 42.5 -90s-11.5 -63.166 -34.5 -86.499s-50.833 -35 -83.5 -35s-60.5 11.667 -83.5 35zM712 415.999
c-12.667 -12.667 -19 -28.167 -19 -46.5s6.33301 -33.666 19 -45.999s28 -18.5 46 -18.5s33.5 6.16699 46.5 18.5s19.5 27.666 19.5 45.999s-6.5 33.833 -19.5 46.5s-28.5 19 -46.5 19s-33.333 -6.33301 -46 -19z" />
    <glyph glyph-name="U0C3F" unicode="&#xc3f;" 
d="M-102 521c33.333 -20.667 66.502 -30.998 99.502 -30.998s61.167 9.66699 84.5 29s35 42.666 35 69.999l-7 2c-20.667 -27.333 -53.334 -41 -98.001 -41s-81.834 10.167 -111.501 30.5s-44.5 45.5 -44.5 75.5s15 55.833 45 77.5s66.333 32.5 109 32.5
c48 -7.33301 88 -25.833 120 -55.5s48 -65.834 48 -108.501s-17.5 -80.667 -52.5 -114s-77.5 -50 -127.5 -50c-54 0 -97.667 13.333 -131 40zM-52.498 615.002c17 -12.667 36.667 -19 59 -19s41 5.66699 56 17s22.5 25 22.5 41s-7.5 29.833 -22.5 41.5
s-33.667 17.5 -56 17.5s-42 -5.16699 -59 -15.5s-25.5 -23.5 -25.5 -39.5s8.5 -30.333 25.5 -43z" />
    <glyph glyph-name="U0C40" unicode="&#xc40;" 
d="M-109 528c28.667 -21.333 61.667 -32.002 99 -32.002s66.666 9 87.999 27s32 40 32 66l-5 5c-24 -25.333 -57.833 -38 -101.5 -38s-80.334 10.333 -110.001 31s-44.5 45.334 -44.5 74.001c0 17.333 6.33301 33.5 19 48.5s29.334 25.5 50.001 31.5v5
c-16 5.33301 -28.833 14.5 -38.5 27.5s-14.5 27.833 -14.5 44.5c0 28.667 13.333 53.167 40 73.5s59.667 30.5 99 30.5s73.333 -11.833 102 -35.5s41.334 -51.167 38.001 -82.5h-71c0 18 -7.16699 33.333 -21.5 46s-31 19 -50 19s-35.167 -5 -48.5 -15s-20 -21.667 -20 -35
s6.83301 -25.166 20.5 -35.499s30.5 -16.833 50.5 -19.5c48 -6.66699 87.833 -24.834 119.5 -54.501s47.5 -65.667 47.5 -108s-16.667 -80.166 -50 -113.499s-73.333 -50 -120 -50c-44.667 0 -91.667 10.667 -141 32zM-59.5 624.498c17 -9.66699 36.667 -14.5 59 -14.5
s41 4.83301 56 14.5s22.5 21.667 22.5 36s-7.5 26.666 -22.5 36.999s-33.667 15.5 -56 15.5s-42 -5.16699 -59 -15.5s-25.5 -22.666 -25.5 -36.999s8.5 -26.333 25.5 -36z" />
    <glyph glyph-name="U0C41" unicode="&#xc41;" horiz-adv-x="240" 
d="M-61 423h137.998c78 -123.333 84.667 -239.666 20 -348.999c-14.667 -25.333 -34.667 -50 -60 -74c-28 11.333 -55.5 19.333 -82.5 24s-48.5 6.66699 -64.5 6c-57.333 -2.66699 -105 -6.33398 -143 -11.001c8.66699 10.667 17 21.667 25 33
c16.667 25.333 33.667 49.666 51 72.999c6 6 23.667 4.33301 53 -5c58 -18 91 -31.667 99 -41c9.33301 3.33301 19.333 10 30 20s19.834 22.5 27.501 37.5s12.334 31.333 14.001 49s0.166992 39.834 -4.5 66.501c-10.667 54.667 -45 111.667 -103 171z" />
    <glyph glyph-name="U0C42" unicode="&#xc42;" horiz-adv-x="540" 
d="M440 289c5.33301 -64.667 -4.66895 -112.666 -30.002 -143.999c-7.33301 -8.66699 -15.333 -15.334 -24 -20.001c-18 -12.667 -39.667 -18 -65 -16c-6.66699 -4.66699 -19 -0.666992 -37 12s-36 28 -54 46c-19.333 16.667 -27.333 37 -24 61
c4.66699 38 36.334 78.667 95.001 122l-268 -22l-85 95h337c36.667 0 71.334 -15.667 104.001 -47c29.333 -28 46.333 -57 51 -87zM366.998 197.001c12 12 16.998 25.332 14.998 39.999s-7.16699 27.667 -15.5 39s-18.666 19.333 -30.999 24s-22.833 3 -31.5 -5
c-10 -12.667 -14.167 -26.667 -12.5 -42s6.66699 -28.666 15 -39.999s18.333 -19.333 30 -24s21.834 -2 30.501 8zM-59.0039 423l137.998 -0.00390625c78 -123.333 84.667 -239.666 20 -348.999c-14.667 -25.333 -34.667 -50 -60 -74c-19.333 8 -43.333 13.667 -72 17
c-32.667 4.66699 -59.667 7 -81 7c-27.333 0 -52.5 -1.5 -75.5 -4.5l-50.5 -6.5c11.333 14.667 24.333 32.834 39 54.501s26.667 38.834 36 51.501c6.66699 5.33301 23.667 4.33301 51 -3c52.667 -15.333 83 -27.666 91 -36.999c9.33301 3.33301 19.333 10 30 20
s19.834 22.5 27.501 37.5s12.834 32.5 15.501 52.5s1 42.333 -5 67c-13.333 54 -48 109.667 -104 167z" />
    <glyph glyph-name="U0C43" unicode="&#xc43;" horiz-adv-x="190" 
d="M-40 233c60 -8 107.999 -40.334 143.999 -97.001c13.333 -20.667 23.5 -47 30.5 -79s8.66699 -62.167 5 -90.5s-11.167 -53.333 -22.5 -75s-25.5 -40 -42.5 -55s-34.5 -27.167 -52.5 -36.5c-70 -36.667 -129.333 -31.667 -178 15c-24 23.333 -35.333 48.333 -34 75
c1.33301 28.667 22.333 51.334 63 68.001c54.667 21.333 89.334 6.33301 104.001 -45c5.33301 -22.667 6.33301 -50.667 3 -84c42.667 20 70 53 82 99c11.333 42.667 8.33301 86.667 -9 132c-12 27.333 -33 47.333 -63 60c-6.66699 3.33301 -11.667 5 -15 5z
M-66.001 -164.001c5.33301 -2 7.66797 2.66602 7.00098 13.999s-4.33398 21.833 -11.001 31.5s-14.667 14.834 -24 15.501s-18 -2.66602 -26 -9.99902c-7.33301 -5.33301 -10 -11.833 -8 -19.5s6.66699 -14.834 14 -21.501c17.333 -16 33.333 -19.333 48 -10z" />
    <glyph glyph-name="U0C44" unicode="&#xc44;" horiz-adv-x="387" 
d="M-34 183c112 -4 181 -5.99805 207 -5.99805s47.167 -4.16699 63.5 -12.5s30.833 -18.5 43.5 -30.5c26.667 -26.667 42.334 -54 47.001 -82c4 -44.667 0.333008 -78.667 -11 -102c-21.333 -46 -54 -67.667 -98 -65c-24.667 5.33301 -53 24 -85 56
c-33.333 28.667 -35.333 64 -6 106c12 18 29.333 35 52 51h-125c22.667 -36 33 -77.167 31 -123.5s-8.66699 -83.333 -20 -111s-25.666 -50 -42.999 -67s-36.666 -30 -57.999 -39s-42.333 -15.167 -63 -18.5s-40.334 -5 -59.001 -5h-45c-31.333 0 -55.333 16.667 -72 50
s-18.667 66 -6 98c6 15.333 16.167 28.5 30.5 39.5s31.666 17.333 51.999 19s36.333 0.666992 48 -3s20.5 -8.83398 26.5 -15.501c23.333 -24 21.666 -69 -5.00098 -135c53.333 6 91 29 113 69c20.667 36 26.667 80.667 18 134c-6 39.333 -23.333 66.666 -52 81.999z
M-195 -191.998c7.33301 -3.33301 14.998 -3.83301 22.998 -1.5s12.833 6.66602 14.5 12.999s0.833984 12.5 -2.49902 18.5c-9.33301 16.667 -23.333 21.667 -42 15c-15.333 -8 -18.666 -18.667 -9.99902 -32c4 -5.33301 9.66699 -9.66602 17 -12.999zM232.498 -39.998
c11 -4 21.002 -0.832031 30.002 9.50098s12.5 22.166 10.5 35.499s-6.83301 24.833 -14.5 34.5s-16.834 16.667 -27.501 21s-19.334 2.5 -26.001 -5.5c-10.667 -10 -15.167 -22 -13.5 -36s6.16699 -26.333 13.5 -37s16.5 -18 27.5 -22z" />
    <glyph glyph-name="U0C46" unicode="&#xc46;" 
d="M49 659c30 0 55.832 -10.668 77.499 -32.001s32.5 -47.333 32.5 -78s-11.167 -57 -33.5 -79s-49.166 -33 -80.499 -33h-123v66h132c10.667 0 20 4.5 28 13.5s12 19.833 12 32.5s-4 23.334 -12 32.001s-17.667 13 -29 13h-387v65h383z" />
    <glyph glyph-name="U0C47" unicode="&#xc47;" 
d="M-23 657c-17.333 17.333 -26 38.498 -26 63.498s10.167 46.833 30.5 65.5s45.166 28 74.499 28s54.833 -11.5 76.5 -34.5s32.5 -50.833 32.5 -83.5h-53c0 18 -5 33.5 -15 46.5s-22 19.5 -36 19.5s-26 -5.16699 -36 -15.5s-15 -21.5 -15 -33.5
c0 -24 18.667 -42.667 56 -56c28 -10 50.5 -25.167 67.5 -45.5s25.5 -44 25.5 -71s-11.167 -51.333 -33.5 -73s-49.166 -32.5 -80.499 -32.5h-199v66h208c10.667 0 20 4.33301 28 13s12 19.334 12 32.001s-4 23.334 -12 32.001s-17.667 13 -29 13h-387v66h273l35 -4z" />
    <glyph glyph-name="U0C48" unicode="&#xc48;" horiz-adv-x="734" 
d="M556 659c30.667 0 56.665 -10.668 77.998 -32.001s32 -47.333 32 -78s-11.167 -57 -33.5 -79s-49.166 -33 -80.499 -33h-124v66h134c10.667 0 19.834 4.5 27.501 13.5s11.5 19.833 11.5 32.5s-4 23.334 -12 32.001s-17.667 13 -29 13h-387v65h383zM138.998 -209.501
c12.667 -13 28 -19.5 46 -19.5s33.333 6.5 46 19.5s19 28.5 19 46.5s-6.33301 33.333 -19 46s-28 19 -46 19s-33.333 -6.33301 -46 -19s-19 -28 -19 -46s6.33301 -33.5 19 -46.5zM302.998 -163.001c0 -20.667 -9.66699 -42.667 -29 -66l2 -5l56 5h300v-66h-435
c-36 0 -66.5 12.833 -91.5 38.5s-37.5 55.667 -37.5 90s11.5 63 34.5 86s50.667 34.5 83 34.5s60 -11.5 83 -34.5s34.5 -50.5 34.5 -82.5z" />
    <glyph glyph-name="U0C4A" unicode="&#xc4a;" horiz-adv-x="580" 
d="M380 479.5c-22.667 23 -34.002 49.8291 -34.002 80.4961s6.66699 53.334 20 68.001l-3 4l-34 -4h-51c-28 0 -52.167 -6.5 -72.5 -19.5s-30.5 -28.5 -30.5 -46.5h-61c0 18 -12.333 33.5 -37 46.5s-54.5 19.5 -89.5 19.5s-64.833 -6.66699 -89.5 -20
s-37 -29.666 -37 -48.999s8.5 -35.666 25.5 -48.999s37.5 -20 61.5 -20h62v-55h-62c-42 0 -77.833 12 -107.5 36s-44.5 53.833 -44.5 89.5s18.833 66.834 56.5 93.501s82.834 40 135.501 40c76 0 127.333 -16 154 -48h6c26.667 32 70 48 130 48h184
c32.667 0 60.667 -13 84 -39s35 -56 35 -90s-11.667 -62.5 -35 -85.5s-51.166 -34.5 -83.499 -34.5s-59.833 11.5 -82.5 34.5zM415.998 514.996c12.667 -12.667 28.167 -19 46.5 -19s34 6.33301 47 19s19.5 28.167 19.5 46.5s-6.5 34 -19.5 47s-28.667 19.5 -47 19.5
s-33.833 -6.5 -46.5 -19.5s-19 -28.667 -19 -47s6.33301 -33.833 19 -46.5z" />
    <glyph glyph-name="U0C4B" unicode="&#xc4b;" horiz-adv-x="577" 
d="M376.5 479.5c-23 23 -34.501 49.332 -34.501 78.999s7 52.834 21 69.501l-3 4l-39 -4h-45c-28 0 -52.167 -6.5 -72.5 -19.5s-30.5 -28.5 -30.5 -46.5h-62c0 18 -11.5 33.5 -34.5 46.5s-51.5 19.5 -85.5 19.5s-63.333 -7 -88 -21s-37 -30.667 -37 -50
s7.83301 -35.333 23.5 -48s34.5 -19 56.5 -19h68v-55h-68c-40 0 -74.333 11.833 -103 35.5s-43 53.334 -43 89.001s18.833 67 56.5 94s82.834 40.5 135.501 40.5c73.333 0 123.333 -16 150 -48c28 32 56.333 48 85 48h119l33 -4l3 4c-17.333 14.667 -26 35.5 -26 62.5
s10.833 49.333 32.5 67s47.667 26.5 78 26.5s55.833 -11.833 76.5 -35.5s29.667 -51.167 27 -82.5h-53c1.33301 17.333 -3 32.666 -13 45.999s-22.333 20 -37 20s-27.167 -4.5 -37.5 -13.5s-15.5 -20.333 -15.5 -34s4.66699 -26.167 14 -37.5s20.666 -18.333 33.999 -21
c33.333 -6 61 -21.167 83 -45.5s33 -52.5 33 -84.5s-11.667 -59.5 -35 -82.5s-51.166 -34.5 -83.499 -34.5s-60 11.5 -83 34.5zM412.999 514.999c12.667 -12.667 28.167 -19 46.5 -19s34 6.33301 47 19s19.5 28.167 19.5 46.5s-6.5 34 -19.5 47s-28.667 19.5 -47 19.5
s-33.833 -6.5 -46.5 -19.5s-19 -28.667 -19 -47s6.33301 -33.833 19 -46.5z" />
    <glyph glyph-name="U0C4C" unicode="&#xc4c;" horiz-adv-x="614" 
d="M227 591c14.667 -12 21.999 -27.002 21.999 -45.002c0 -30.667 -10.167 -56.834 -30.5 -78.501s-44.5 -32.5 -72.5 -32.5h-188v66h186c10.667 0 19.834 4.33301 27.501 13s11.5 19.334 11.5 32.001s-4 23.334 -12 32.001s-17.667 13 -29 13h-334v66h662
c40 0 74 -12.667 102 -38s42 -55.166 42 -89.499s-11.5 -62.833 -34.5 -85.5s-51.167 -34 -84.5 -34s-62 11.333 -86 34s-36 50 -36 82s8 53.667 24 65l-3 5l-44 -5h-85l-35 5zM449.999 479.998c12.667 -12.667 28 -19 46 -19s33.5 6.33301 46.5 19s19.5 28.167 19.5 46.5
s-6.5 33.666 -19.5 45.999s-28.5 18.5 -46.5 18.5s-33.333 -6.16699 -46 -18.5s-19 -27.666 -19 -45.999s6.33301 -33.833 19 -46.5z" />
    <glyph glyph-name="U0C4D" unicode="&#xc4d;" 
d="M68 628c-27.333 20 -41.001 46 -41.001 78s11.667 59.667 35 83s51.333 35 84 35h295v-65h-294c-14.667 0 -27.334 -5.16699 -38.001 -15.5s-16 -22.833 -16 -37.5s3.83301 -27 11.5 -37s16.834 -15 27.501 -15h142v-65h-140c-11.333 0 -21 -3.83301 -29 -11.5
s-12 -17 -12 -28s3.83301 -20.333 11.5 -28s16.834 -11.5 27.501 -11.5h103v-65h-105c-29.333 5.33301 -53.833 17.833 -73.5 37.5s-29.5 39.5 -29.5 59.5c0 38.667 13.667 66 41 82v4z" />
    <glyph glyph-name="U0C55" unicode="&#xc55;" horiz-adv-x="387" 
d="M114 474c-30.667 25.333 -46 58.999 -46 100.999c0 28.667 12.667 53.334 38 74.001s53.666 31 84.999 31s58 -8.5 80 -25.5s38 -39.833 48 -68.5l-57 -24c-20 34.667 -40.167 52 -60.5 52s-36.666 -5.16699 -48.999 -15.5s-18.5 -22.5 -18.5 -36.5
c0 -26 15.667 -52.667 47 -80z" />
    <glyph glyph-name="U0C56" unicode="&#xc56;" 
d="M-331 -231l-164.001 -2.00098h-31c-40.667 1.33301 -72 16.333 -94 45c-21.333 28.667 -25.333 56.667 -12 84c14 32 47.333 51 100 57c54.667 6.66699 87.334 -11.333 98.001 -54c4 -19.333 3 -41.666 -3 -66.999l259 23v-85c-54.667 0 -105.667 -0.333008 -153 -1z
M-519.501 -109.001c-7.66699 4 -16.667 3.99902 -27 -0.000976562s-16.833 -10 -19.5 -18s-2 -15.167 2 -21.5s11.5 -11 22.5 -14s24.833 -1.5 41.5 4.5c4.66699 2 6.83398 6.33301 6.50098 13s-2.83301 13.334 -7.5 20.001s-10.834 12 -18.501 16z" />
    <glyph glyph-name="U0C58" unicode="&#xc58;" horiz-adv-x="720" 
d="M165 403l317 132l14 -115l-328 -73zM190 354c0.666992 2 1.00293 5.66992 1.00293 11.0029s-1.33301 18 -4 38c4.66699 4 17.167 6.33301 37.5 7s44.666 -1 72.999 -5s58.333 -10.333 90 -19s61.167 -20 88.5 -34c61.333 -33.333 92.666 -75.333 93.999 -126
c1.33301 -70 -21.334 -127.667 -68.001 -173c-18 -18 -36.167 -31.167 -54.5 -39.5s-34.833 -13.333 -49.5 -15s-29.334 1.33301 -44.001 9s-27.5 16.834 -38.5 27.501s-21 21.167 -30 31.5s-17.833 16.5 -26.5 18.5c-14.667 5.33301 -33.667 -0.333984 -57 -17.001
s-53.333 -41.334 -90 -74.001c-20 49.333 -21.333 98.666 -4 147.999c7.33301 22.667 17.333 43 30 61l-138 -33l16 112l243 13c-24 -36.667 -39.833 -70.834 -47.5 -102.501s-9 -49.834 -4 -54.501s12.167 -5.66699 21.5 -3c14 4 29.333 12.667 46 26
c16.667 11.333 29.334 17.5 38.001 18.5s16.167 -2.33301 22.5 -10l23 -27.5c9 -10.667 19.167 -20.667 30.5 -30c27.333 -21.333 50.666 -27 69.999 -17c18.667 16 29.834 35.667 33.501 59s1.83398 47 -5.49902 71s-19 46.333 -35 67s-33 35.334 -51 44.001
c-28.667 14.667 -72.334 22 -131.001 22c-26 0 -52.667 -1.33301 -80 -4zM428.003 572.003c-11.333 -7.33301 -26.333 -12.333 -45 -15s-44.667 -3.83398 -78 -3.50098s-68.333 1.5 -105 3.5s-71.834 4.16699 -105.501 6.5l-79.5 5.5c0 19.333 5.66699 48 17 86
c18 -2.66699 39.5 -6.66699 64.5 -12s49.833 -10.333 74.5 -15c64.667 -13.333 105.334 -19.666 122.001 -18.999c-13.333 20 -14 45.667 -2 77c5.33301 14.667 18 27.5 38 38.5s39 17 57 18s33 -0.666992 45 -5s22 -10.833 30 -19.5c24 -26 28 -58 12 -96
c-8 -20 -23 -36.667 -45 -50zM388.003 688.003c-8.66699 -0.666992 -17.668 -4.00293 -27.001 -10.0029s-15.5 -12.5 -18.5 -19.5s-3.66699 -13.333 -2 -19s4.66699 -10.667 9 -15s9 -7 14 -8s10.5 -0.666992 16.5 1s12 3.83398 18 6.50098c22 10.667 30 25.334 24 44.001
c-5.33301 14.667 -16.666 21.334 -33.999 20.001z" />
    <glyph glyph-name="uni0C59" unicode="&#xc59;" horiz-adv-x="723" 
d="M375 512l131.001 -10.001c5.33301 -45.333 4.66602 -90 -2.00098 -134c-4 -25.333 -11.333 -45.166 -22 -59.499s-21 -23.833 -31 -28.5c-38 -20 -77 -20 -117 0c-28 14 -52.667 34.333 -74 61c-12.667 14.667 -12 37.334 2 68.001c6.66699 12.667 16 26.334 28 41.001
c2 -16.667 7.33301 -31.834 16 -45.501s17.834 -23.5 27.501 -29.5l27 -17.5c8.33301 -5.66699 16.166 -10.167 23.499 -13.5c16.667 -6.66699 27.667 -6.5 33 0.5s7.33301 17.167 6 30.5s-4.33301 27.666 -9 42.999c-5.33301 16.667 -18.333 48 -39 94zM621.001 258.999
c2.66699 -63.333 -6.33301 -119.002 -27 -167.002c-10 -24 -26.167 -40.833 -48.5 -50.5s-44.833 -18.167 -67.5 -25.5s-46 -10.666 -70 -9.99902c-54 0.666992 -106.333 25 -157 73c-23.333 -1.33301 -68.333 -23 -135 -65c-12.667 -8 -20.334 -12.333 -23.001 -13
c-2 -1.33301 -4.83301 4.16699 -8.5 16.5s-6.5 27.5 -8.5 45.5c-8.66699 66 1 116.333 29 151c20 24.667 38 43 54 55c-47.333 -6 -86.333 -0.333008 -117 17c-35.333 19.333 -48.666 54 -39.999 104c6 37.333 29.333 66.666 70 87.999c31.333 16.667 69.333 26.667 114 30
c36.667 2.66699 60.334 -0.333008 71.001 -9c15.333 -12 24.666 -22.333 27.999 -31c7.33301 -16 6 -38.667 -4 -68c-12.667 -29.333 -27.667 -58.666 -45 -87.999c-32 -54.667 -49 -88.667 -51 -102c-16.667 -54.667 -17.667 -82 -3 -82c8 0 23.667 7.33301 47 22
c44 28.667 68.667 43.334 74 44.001c5.33301 3.33301 13.333 -1.33398 24 -14.001c16.667 -17.333 32.667 -35.666 48 -54.999c18.667 -22.667 35.334 -38 50.001 -46c29.333 -15.333 57.666 -15.333 84.999 0c6.66699 4 12 14 16 30s5 33.667 3 53
c-5.33301 50 -24 82.333 -56 97h148zM113.001 435.997c-17.333 -8.66699 -21.667 -33.666 -13 -74.999c3.33301 -24 35 -39.333 95 -46c14 57.333 9.33301 92.666 -14 105.999c-17.333 10 -40 15 -68 15zM428 571.998c-11.333 -7.33301 -26.333 -12.333 -45 -15
s-44.667 -3.83398 -78 -3.50098s-68.333 1.5 -105 3.5s-71.834 4.16699 -105.501 6.5l-79.5 5.5c0 19.333 5.66699 48 17 86c18 -2.66699 39.5 -6.66699 64.5 -12s49.833 -10.333 74.5 -15c64.667 -13.333 105.334 -19.666 122.001 -18.999c-13.333 20 -14 45.667 -2 77
c5.33301 14.667 18 27.5 38 38.5s39 17 57 18s33 -0.666992 45 -5s22 -10.833 30 -19.5c24 -26 28 -58 12 -96c-8 -20 -23 -36.667 -45 -50zM388 687.998c-8.66699 -0.666992 -17.668 -4.00293 -27.001 -10.0029s-15.5 -12.5 -18.5 -19.5s-3.66699 -13.333 -2 -19
s4.66699 -10.667 9 -15s9 -7 14 -8s10.5 -0.666992 16.5 1s12 3.83398 18 6.50098c22 10.667 30 25.334 24 44.001c-5.33301 14.667 -16.666 21.334 -33.999 20.001z" />
    <glyph glyph-name="U0C60" unicode="&#xc60;" horiz-adv-x="1414" 
d="M1320 293c1.33301 -20 0.999023 -39 -1.00098 -57s-5.66699 -33.667 -11 -47c-19.333 -48.667 -54.333 -71.667 -105 -69c-15.333 -6.66699 -46.666 13 -93.999 59c-34.667 36.667 -33 77.334 5 122.001c16.667 21.333 39 41.666 67 60.999l-280 -16l-71 92h337
c38 0 72.333 -15.333 103 -46c30 -30 46.667 -63 50 -99zM1249 209c12.667 12.667 18.001 26.5 16.001 41.5s-7.66699 28 -17 39s-20 18.667 -32 23s-22.833 1.5 -32.5 -8.5s-13.334 -22.667 -11.001 -38s7.5 -29 15.5 -41s18 -20.167 30 -24.5s22.333 -1.5 31 8.5zM444 438
c44 -36 79.6592 -78.667 106.992 -128c12.667 -22.667 18.334 -43.5 17.001 -62.5s-5.66602 -40.667 -12.999 -65s-18.333 -48.5 -33 -72.5c-34.667 -58 -78.667 -94.667 -132 -110c-13.333 4.66699 -26.333 11.667 -39 21l-36.5 26.5
c-11.667 8.33301 -23 15.666 -34 21.999s-21 8.83301 -30 7.5s-23.833 -6.16602 -44.5 -14.499l-66 -26.5c-64 -24 -102.667 -36 -116 -36c-6 2 -11.833 9.83301 -17.5 23.5s-7.16699 30.834 -4.5 51.501c5.33301 52.667 39.333 101.667 102 147
c-27.333 -5.33301 -56 6.66699 -86 36c-19.333 18 -25 40.667 -17 68c4 14.667 13.667 30.667 29 48c24 28 50.167 46.333 78.5 55s54.833 10.834 79.5 6.50098s45.834 -13.5 63.501 -27.5s27.834 -30 30.501 -48c2.66699 -52.667 -28.666 -97 -93.999 -133
c-34 -18.667 -58 -40 -72 -64c-17.333 -28 -19.666 -47 -6.99902 -57c6 -4.66699 17.833 -3.83398 35.5 2.49902s35.334 15.666 53.001 27.999s32.167 23.5 43.5 33.5s19.833 18.167 25.5 24.5s9.5 8 11.5 5s6.5 -11.5 13.5 -25.5s15.833 -28.333 26.5 -43
c29.333 -38 53.333 -54 72 -48c4 0.666992 11.333 5.16699 22 13.5s21 19.5 31 33.5c38.667 56 38 116 -2 180c-31.333 49.333 -67.666 92 -108.999 128h112zM87.9922 381c-9.33301 -15.333 -11.167 -30.001 -5.5 -44.001s14.667 -25.5 27 -34.5s25.5 -14.833 39.5 -17.5
s24.667 -0.666992 32 6c8.66699 21.333 9 38.833 1 52.5s-18.5 23.834 -31.5 30.501s-26 10.5 -39 11.5s-20.833 -0.5 -23.5 -4.5zM496.991 124.999c35.333 -8.66699 72.002 -23.665 110.002 -44.998c15.333 6 30.666 19.167 45.999 39.5s24.666 46.166 27.999 77.499
s-2.66699 67.666 -18 108.999s-46.333 85.333 -93 132h144c40 -66.667 60 -137.667 60 -213c0 -50.667 -14 -100.667 -42 -150c-15.333 -26 -36 -51.333 -62 -76c-40.667 28 -101.334 36.667 -182.001 26c-27.333 -3.33301 -53.666 -9.33301 -78.999 -18
c28.667 36 58 75.333 88 118zM926.993 -0.999023c-40.667 28 -101.333 36.6709 -182 26.0039c-27.333 -3.33301 -53.666 -9.33301 -78.999 -18l44 65c15.333 22 27 40 35 54c20.667 -2.66699 43.834 -9.83398 69.501 -21.501s42.167 -19.834 49.5 -24.501
c15.333 6 30.666 19.167 45.999 39.5s24.666 46.166 27.999 77.499s-2.66699 67.666 -18 108.999s-46.333 85.333 -93 132h144c40 -66.667 60 -137.667 60 -213c0 -50.667 -14.333 -100.667 -43 -150c-14.667 -26 -35 -51.333 -61 -76z" />
    <glyph glyph-name="U0C61" unicode="&#xc61;" horiz-adv-x="993" 
d="M767 310c34.667 0 66.3369 -15.9912 95.0039 -47.9912c35.333 -40.667 49.333 -90.334 42 -149.001c-5.33301 -40 -20.666 -67.667 -45.999 -83c-16.667 -10.667 -36 -15.667 -58 -15c-10 1.33301 -23.333 8.16602 -40 20.499s-31.667 26.5 -45 42.5
c-34 35.333 -36.333 69.333 -7 102c12 15.333 29.333 29.333 52 42h-76.5c-17.667 0 -26.834 -0.333008 -27.501 -1c-11.333 -62 -36 -115 -74 -159c-42.667 -48.667 -93 -78.334 -151 -89.001c-18.667 -3.33301 -39.5 -3.33301 -62.5 0s-42.5 8.16602 -58.5 14.499
s-33 14.5 -51 24.5s-34.833 21.333 -50.5 34s-27.834 26 -36.501 40c-18.667 33.333 -13 62.666 17 87.999c19.333 17.333 40.5 29.166 63.5 35.499s46 11.5 69 15.5s45.333 9.5 67 16.5s40.5 19.5 56.5 37.5c10.667 13.333 11.334 31.666 2.00098 54.999
c-8.66699 22 -20 38.333 -34 49c-16.667 10.667 -31 16 -43 16c-30 0 -48 -12.333 -54 -37c-2 -8 -4.16699 -16 -6.5 -24s-4.16602 -17 -5.49902 -27h-68c2.66699 15.333 4 29 4 41c0 28.667 -4.83301 46.834 -14.5 54.501s-22.5 12.667 -38.5 15s-31.333 2.5 -46 0.5
s-26.667 -7 -36 -15s-11 -18.333 -5 -31c15.333 -32.667 32.333 -53.334 51 -62.001l-70 -55c-39.333 36.667 -65 72.334 -77 107.001c-6.66699 17.333 -6.83398 31.833 -0.500977 43.5s15.833 22.667 28.5 33s27.167 20 43.5 29s33.666 17.333 51.999 25
s35.166 13.5 50.499 17.5c34 8.66699 54.333 8.66699 61 0c6 -10.667 11.5 -25.334 16.5 -44.001s9.16699 -33.334 12.5 -44.001c19.333 27.333 42 47.333 68 60c13.333 6 32.5 5.66699 57.5 -1s48.5 -15.5 70.5 -26.5s39.333 -23.167 52 -36.5
c20.667 -23.333 31 -58.333 31 -105c0 -43.333 -24.333 -81 -73 -113c-44.667 -28 -98 -45.667 -160 -53c-28 -10.667 -41.333 -21.334 -40 -32.001c0.666992 -6 7.66699 -17 21 -33s28.166 -26 44.499 -30s33.166 -5.33301 50.499 -4c36 2 65.333 12 88 30
c20 18 38.667 38.333 56 61c36.667 52 57.667 107.667 63 167h170zM842.003 101.009c10.667 13.333 14.998 26.334 12.998 39.001s-7.16699 23 -15.5 31s-17.833 12.833 -28.5 14.5s-20 -1.5 -28 -9.5c-10 -12.667 -14.167 -25.667 -12.5 -39s6.33398 -24.333 14.001 -33
s16.834 -13.834 27.501 -15.501s20.667 2.5 30 12.5z" />
    <glyph glyph-name="uni0C62" unicode="&#xc62;" 
d="M-159 -208c17.333 0 31.001 -3.33594 41.001 -10.0029c4 -2.66699 6.66699 -5.66699 8 -9c-3.33301 -70.667 -31 -125 -83 -163c-22 -16.667 -41.667 -25.667 -59 -27c-5.33301 -0.666992 -12.166 -1 -20.499 -1s-18.833 0.833008 -31.5 2.5s-26.667 6.83398 -42 15.501
s-28.666 19.334 -39.999 32.001c-25.333 28 -29.333 58.667 -12 92c11.333 12 23.833 20.167 37.5 24.5s27.5 8 41.5 11s27.5 7.16699 40.5 12.5s23 12.333 30 21s10.5 16.5 10.5 23.5s-1.33301 13.833 -4 20.5c-4.66699 14.667 -12 26 -22 34c-6.66699 8 -16 11.667 -28 11
c-14.667 0 -24.334 -8.66699 -29.001 -26c-2.66699 -10.667 -5.33398 -22 -8.00098 -34h-39c1.33301 9.33301 2 18 2 26c0 21.333 -4.33301 35.333 -13 42c-9.33301 9.33301 -21.666 12.666 -36.999 9.99902c-30.667 -4 -42 -15.667 -34 -35
c5.33301 -22 14.666 -35.333 27.999 -40l-38 -42c-22.667 24 -37.667 45.833 -45 65.5s-9 35.167 -5 46.5c5.33301 9.33301 15.166 19.333 29.499 30s29.5 19.667 45.5 27c39.333 18 61.666 21.667 66.999 11c10.667 -28 17 -48.667 19 -62c10 18.667 23.333 33 40 43
c15.333 8.66699 41 2.33398 77 -18.999c25.333 -15.333 40.666 -35.333 45.999 -60c2.66699 -12 4 -25.833 4 -41.5s-4 -30.167 -12 -43.5s-18.667 -24.666 -32 -33.999c-27.333 -20 -59.666 -33 -96.999 -39c-9.33301 -3.33301 -15.666 -6.83301 -18.999 -10.5
s-4.66602 -7.83398 -3.99902 -12.501c1.33301 -7.33301 7 -16 17 -26c10 -14 27 -20 51 -18c24 2.66699 42.667 10.334 56 23.001c21.333 20 38.666 48.333 51.999 85c6 15.333 9.66699 30 11 44z" />
    <glyph glyph-name="uni0C63" unicode="&#xc63;" horiz-adv-x="51" 
d="M31 -354c-12 -24 -31.001 -35.3311 -57.001 -33.998c-11.333 0 -27.666 12.333 -48.999 37c-18 21.333 -18.667 42.333 -2 63c8 9.33301 18.333 17.666 31 24.999h-68c-22 0 -33 15.667 -33 47c0 5.33301 0.333008 8 1 8h100c20.667 0 39.334 -10 56.001 -30
c15.333 -19.333 24.166 -40.333 26.499 -63s0.5 -40.334 -5.5 -53.001zM-17.001 -343.998c6.66699 -0.666992 12.834 2.66504 18.501 9.99805s8 14.833 7 22.5s-3.83301 13.834 -8.5 18.501s-10.334 7.33398 -17.001 8.00098s-12.5 -2.33301 -17.5 -9s-7.16699 -14 -6.5 -22
s3.16699 -14.5 7.5 -19.5s9.83301 -7.83301 16.5 -8.5zM-147.001 -207.999c17.333 0 31.001 -3.33594 41.001 -10.0029c4 -2.66699 6.66699 -5.66699 8 -9c-3.33301 -70.667 -31 -125 -83 -163c-22 -16.667 -41.667 -25.667 -59 -27
c-5.33301 -0.666992 -12.166 -1 -20.499 -1s-18.833 0.833008 -31.5 2.5s-26.667 6.83398 -42 15.501s-28.666 19.334 -39.999 32.001c-25.333 28 -29.333 58.667 -12 92c11.333 12 23.833 20.167 37.5 24.5s27.5 8 41.5 11s27.5 7.16699 40.5 12.5s23 12.333 30 21
s10.5 16.5 10.5 23.5s-1.33301 13.833 -4 20.5c-4.66699 14.667 -12 26 -22 34c-6.66699 8 -16 11.667 -28 11c-14.667 0 -24.334 -8.66699 -29.001 -26c-2.66699 -10.667 -5.33398 -22 -8.00098 -34h-39c1.33301 9.33301 2 18 2 26c0 21.333 -4.33301 35.333 -13 42
c-9.33301 9.33301 -21.666 12.666 -36.999 9.99902c-30.667 -4 -42 -15.667 -34 -35c5.33301 -22 14.666 -35.333 27.999 -40l-38 -42c-22.667 24 -37.667 45.833 -45 65.5s-9 35.167 -5 46.5c5.33301 9.33301 15.166 19.333 29.499 30s29.5 19.667 45.5 27
c39.333 18 61.666 21.667 66.999 11c10.667 -28 17 -48.667 19 -62c10 18.667 23.333 33 40 43c15.333 8.66699 41 2.33398 77 -18.999c25.333 -15.333 40.666 -35.333 45.999 -60c2.66699 -12 4 -25.833 4 -41.5s-4 -30.167 -12 -43.5s-18.667 -24.666 -32 -33.999
c-27.333 -20 -59.666 -33 -96.999 -39c-9.33301 -3.33301 -15.666 -6.83301 -18.999 -10.5s-4.66602 -7.83398 -3.99902 -12.501c1.33301 -7.33301 7 -16 17 -26c10 -14 27 -20 51 -18c24 2.66699 42.667 10.334 56 23.001c21.333 20 38.666 48.333 51.999 85
c6 15.333 9.66699 30 11 44z" />
    <glyph glyph-name="U0C66" unicode="&#xc66;" horiz-adv-x="552" 
d="M404 387.5c17.333 -17.667 30.334 -37.665 39.001 -59.998s11.334 -49.333 8.00098 -81s-12.333 -63.5 -27 -95.5s-35 -61.167 -61 -87.5s-58.167 -45 -96.5 -56s-72.833 -12 -103.5 -3s-57.167 23.667 -79.5 44s-40.333 43.5 -54 69.5s-22.5 48.333 -26.5 67
s-3.83301 37.167 0.5 55.5s11.166 37.166 20.499 56.499s20.5 38.166 33.5 56.499s26.833 35.166 41.5 50.499c31.333 32 60.5 49.333 87.5 52s54 1.83398 81 -2.49902s52.167 -12 75.5 -23s43.666 -25.333 60.999 -43zM272.001 75.002
c14 -1.33301 27.167 5.83398 39.5 21.501s21.833 35 28.5 58s10 47 10 72s-5.5 46 -16.5 63s-24 31.833 -39 44.5s-30.5 22.667 -46.5 30c-36 14.667 -64.667 14.667 -86 0c-6 -4.66699 -14 -14 -24 -28s-18.5 -30.333 -25.5 -49s-11.333 -38.834 -13 -60.501
s2.5 -42.5 12.5 -62.5c24 -47.333 77.333 -77 160 -89z" />
    <glyph glyph-name="U0C67" unicode="&#xc67;" horiz-adv-x="568" 
d="M0 0c0.666992 12.667 0.666016 32.166 -0.000976562 58.499s0 55.666 2 87.999s7 65.333 15 99s21 64.5 39 92.5c40 62.667 103.333 94.667 190 96c74.667 0 132 -22.333 172 -67c32 -36.667 51.167 -86.5 57.5 -149.5s-0.166992 -135.5 -19.5 -217.5h-124l10 51
c3.33301 16.667 6.5 34.334 9.5 53.001s7 41.667 12 69s5.33301 55.833 1 85.5s-13.166 54.834 -26.499 75.501c-28 43.333 -70.667 59 -128 47c-74 -28 -112.667 -100.333 -116 -217c-1.33301 -51.333 4.66699 -106 18 -164h-112z" />
    <glyph glyph-name="U0C68" unicode="&#xc68;" horiz-adv-x="654" 
d="M541 106c-11.333 -20 -20.9961 -33.666 -28.9961 -40.999c-29.333 -34.667 -73 -56.334 -131 -65.001h-384l48 129l264 1c59.333 0.666992 102.333 11.667 129 33c32 36.667 45.333 80.334 40 131.001c-2.66699 40 -12.334 74.667 -29.001 104
c-22 40.667 -62.333 64.334 -121 71.001c4 -15.333 6 -27.333 6 -36c-2.66699 -40 -20 -67 -52 -81c-25.333 -12 -51.833 -17.833 -79.5 -17.5s-51.667 9.16602 -72 26.499s-27.833 41.666 -22.5 72.999c11.333 48 59.333 74.333 144 79c110 6.66699 189.333 -21 238 -83
c25.333 -30.667 43.166 -62.5 53.499 -95.5s17.166 -67.667 20.499 -104s-4.33398 -77.833 -23.001 -124.5zM187.004 400.001c7.33301 -11.333 16.168 -18.999 26.501 -22.999s20.166 -3.33301 29.499 2s14.666 13.666 15.999 24.999s-1.5 22.833 -8.5 34.5
s-15.833 19.667 -26.5 24s-20.5 3.83301 -29.5 -1.5s-14.167 -13.833 -15.5 -25.5s1.33398 -23.5 8.00098 -35.5z" />
    <glyph glyph-name="U0C69" unicode="&#xc69;" horiz-adv-x="542" 
d="M287.5 -3c-22.333 2 -48.1709 2.99707 -77.5039 2.99707s-55.833 -0.166992 -79.5 -0.5s-44.5 2.83398 -62.5 9.50098c-41.333 14.667 -64.333 55.334 -69 122.001c0 3.33301 9 5.33301 27 6c37.333 2.66699 66.666 5 87.999 7c-2.66699 -28.667 8 -51.667 32 -69
c12.667 -8.66699 32 -13 58 -13c58 0 93.333 24 106 72c6 24.667 3.33301 43 -8 55s-25.833 20 -43.5 24s-30.334 7.66699 -38.001 11s-13.5 6.83301 -17.5 10.5s-6 7.16699 -6 10.5s5 7 15 11s20.167 9.16699 30.5 15.5s18.833 13.833 25.5 22.5
c12.667 16.667 19 44.334 19 83.001c0 28 -12.333 43.667 -37 47c-7.33301 1.33301 -14.666 2 -21.999 2c-32.667 2.66699 -56.667 -0.666016 -72 -9.99902c-30 -19.333 -41 -46.333 -33 -81l-98 49c-1.33301 43.333 17.667 72 57 86c28.667 10 78.334 15 149.001 15
c56 0 95 -3.83301 117 -11.5s38.333 -17.667 49 -30s15.334 -31.166 14.001 -56.499s-3.66602 -46.166 -6.99902 -62.499s-7.66602 -28.833 -12.999 -37.5s-12.333 -14.334 -21 -17.001s-19 -5.33398 -31 -8.00098c23.333 -4.66699 42.333 -17.334 57 -38.001
c16 -23.333 20 -54.333 12 -93s-16.833 -68 -26.5 -88s-22.167 -33.167 -37.5 -39.5s-34.166 -8.5 -56.499 -6.5z" />
    <glyph glyph-name="U0C6A" unicode="&#xc6a;" horiz-adv-x="522" 
d="M350 248c34 -14.667 59.498 -32.168 76.498 -52.501s25.167 -41.333 24.5 -63s-10 -42.667 -28 -63s-42.5 -36.666 -73.5 -48.999s-63 -19.166 -96 -20.499s-64.167 1.66699 -93.5 9s-54.666 19.5 -75.999 36.5s-34 38.5 -38 64.5
c-4.66699 36.667 0.333008 64.167 15 82.5s34 32.833 58 43.5c-58 33.333 -93 70.666 -105 111.999c-8.66699 30.667 -2.66699 60.667 18 90c14 21.333 30.667 37.333 50 48l51 -54c-30 -15.333 -44.333 -37 -43 -65c1.33301 -24.667 13 -44 35 -58
c30.667 -19.333 77.334 -32 140.001 -38c32.667 12 58 29.333 76 52c18.667 20.667 25.167 38.667 19.5 54s-13.167 27 -22.5 35c-18.667 14 -41 23.667 -67 29l52 59c39.333 -12 68.333 -29.667 87 -53s28.334 -48 29.001 -74s-6.83301 -50.667 -22.5 -74
s-37.834 -40.333 -66.501 -51zM310.998 65.999c20 8.66699 34.167 22.333 42.5 41s6.16602 39 -6.50098 61c-12 23.333 -39.667 39.333 -83 48c-33.333 8 -59.666 8.66699 -78.999 2c-38 -20.667 -53 -44.667 -45 -72c7.33301 -26.667 23 -46 47 -58
c28.667 -15.333 55 -23.833 79 -25.5s39 -0.5 45 3.5z" />
    <glyph glyph-name="U0C6B" unicode="&#xc6b;" horiz-adv-x="578" 
d="M151 84c49.333 30.667 91.6689 62.334 127.002 95.001s65.666 62.334 90.999 89.001c-64 44 -99.333 91 -106 141c-4 28 3 53 21 75s41 34.833 69 38.5s53.167 -3.83301 75.5 -22.5s35.5 -42 39.5 -70c6.66699 -50 -8.33301 -95.333 -45 -136
c15.333 -10.667 29.833 -23.5 43.5 -38.5s25.167 -35.5 34.5 -61.5c7.33301 -36.667 6.33301 -65.334 -3 -86.001s-19.5 -35.334 -30.5 -44.001s-24.167 -15.667 -39.5 -21l-53 31c18 4.66699 34.167 15.334 48.5 32.001s20.166 41.667 17.499 75
c-2 16 -14.667 35.667 -38 59c-39.333 -72.667 -114.666 -135.334 -225.999 -188.001c-8.66699 4 -17.334 14.667 -26.001 32zM347.003 365.5c16 -15.667 29 -21.832 39 -18.499s17.333 13 22 29s6 31.167 4 45.5s-7.66699 26.5 -17 36.5s-20.833 14 -34.5 12
s-24.5 -8.16699 -32.5 -18.5s-10.833 -23.333 -8.5 -39s11.5 -31.334 27.5 -47.001zM20.0029 473.002c16.667 48 29.002 80.6699 37.002 98.0029c16 0 37 -7 63 -21c52 -27.333 88.333 -53 109 -77c22.667 -26.667 23 -99 1 -217
c-16.667 -88.667 -33.334 -157.667 -50.001 -207c-11.333 -32.667 -54.333 -49 -129 -49v61c13.333 -6 33 -1.66699 59 13c22.667 13.333 36 29.666 40 48.999c4.66699 45.333 6 98.666 4 159.999c-2.66699 83.333 -6.33398 134.333 -11.001 153
c-2 21.333 -23 33.666 -63 36.999c-18 2 -38 2 -60 0z" />
    <glyph glyph-name="U0C6C" unicode="&#xc6c;" horiz-adv-x="624" 
d="M505 28c-98.667 -10 -167.167 -16.167 -205.5 -18.5s-66.833 -4.16602 -85.5 -5.49902c-37.333 -2.66699 -63.166 -4 -77.499 -4s-26.166 0.833008 -35.499 2.5s-18.166 6.16699 -26.499 13.5s-17 17.833 -26 31.5l-36.5 56.5c-24.667 45.333 -16 83.666 26 114.999
c18.667 14.667 42.334 27 71.001 37c-10.667 4.66699 -20.334 11 -29.001 19c-22 24 -35 46.167 -39 66.5s-1.5 37 7.5 50s21.833 24.167 38.5 33.5c36 20 77 30 123 30c30.667 0 62.334 -0.666992 95.001 -2l74 -3l34 -77c-30.667 0.666992 -59 1.33398 -85 2.00098
c-58.667 1.33301 -100.334 1 -125.001 -1s-40.834 -6.66699 -48.501 -14s-12 -15.5 -13 -24.5s0.666992 -18 5 -27s9.16602 -15 14.499 -18s12.666 -5.16699 21.999 -6.5s20 -2 32 -2c37.333 -1.33301 103.333 1 198 7l20 -44c-11.333 -0.666992 -25.5 -1.66699 -42.5 -3
s-38 -2.5 -63 -3.5s-55.333 -2.33301 -91 -4s-61.5 -6 -77.5 -13s-26.333 -15.5 -31 -25.5c-7.33301 -14 -5 -33.667 7 -59c5.33301 -12 29 -19.667 71 -23c68.667 -4.66699 172.667 4.66602 312 27.999z" />
    <glyph glyph-name="U0C6D" unicode="&#xc6d;" horiz-adv-x="471" 
d="M20 452c141.333 -20 246.333 -48.999 315 -86.999c28 -25.333 37 -47 27 -65c-12 -18.667 -43.333 -37.667 -94 -57c-12.667 -4.66699 -23 -9.33398 -31 -14.001c-62 -22 -106.333 -47 -133 -75c-30 -31.333 -23.667 -56.333 19 -75
c43.333 -19.333 127.666 -1.33301 252.999 54l-1 -133h-227c-60 0 -102 16 -126 48c-18 24.667 -24.333 55.334 -19 92.001c2.66699 19.333 24.667 43.166 66 71.499s97.333 57.833 168 88.5c12.667 4 19 8.16699 19 12.5s-4 8.5 -12 12.5
c-31.333 14.667 -109.666 27 -234.999 37l-5 93z" />
    <glyph glyph-name="U0C6E" unicode="&#xc6e;" horiz-adv-x="583" 
d="M112 450c-13.333 -58.667 -19.5029 -105.667 -18.5029 -141s3.33301 -63.833 7 -85.5s9.83398 -42.167 18.501 -61.5c19.333 -42 49.666 -71 90.999 -87c57.333 -12 100 0 128 36c28.667 37.333 36.334 91.333 23.001 162c-3.33301 19.333 -6.5 39.333 -9.5 60
s-6.16699 40.5 -9.5 59.5l-10 57.5h124c28.667 -124 29.334 -227.333 2.00098 -310c-19.333 -57.333 -55.666 -98 -108.999 -122c-28 -12.667 -64.333 -18.667 -109 -18s-82.167 10.334 -112.5 29.001s-54.333 42.5 -72 71.5s-30.5 61 -38.5 96s-13 69 -15 102
s-2.5 63.167 -1.5 90.5s0.833008 47.666 -0.5 60.999h112z" />
    <glyph glyph-name="U0C6F" unicode="&#xc6f;" horiz-adv-x="616" 
d="M413 166c-73.333 4.66699 -121.665 7.00195 -144.998 7.00195s-41 -0.333008 -53 -1c-28 -0.666992 -45.333 -2.83398 -52 -6.50098s-12.167 -10 -16.5 -19s-6 -18.167 -5 -27.5s5.33301 -17.5 13 -24.5s19.5 -11.167 35.5 -12.5c34 -2.66699 72 -3.5 114 -2.5
s78.333 1.83301 109 2.5l-34 -77c-42 -3.33301 -98.333 -5 -169 -5c-48 0 -89 10 -123 30c-37.333 21.333 -53 46.333 -47 75c5.33301 28 18.666 52.667 39.999 74c8.66699 8 18.334 14.667 29.001 20c-41.333 14.667 -72.333 33.667 -93 57
c-23.333 27.333 -24.666 58.666 -3.99902 93.999l36.5 57.5c9 13.667 17.667 24.167 26 31.5s17.166 11.833 26.499 13.5s18.833 2.5 28.5 2.5s21.5 -0.333008 35.5 -1s30.333 -1.66699 49 -3s38.667 -3 60 -5c43.333 -4 120.333 -10.333 231 -19l13 -115
c-180.667 30.667 -300 38 -358 22c-13.333 -4 -21.833 -9.83301 -25.5 -17.5s-7 -16.834 -10 -27.501s-1.83301 -21 3.5 -31c12 -23.333 48 -36 108 -38c83.333 -3.33301 134.166 -5.66602 152.499 -6.99902s33.166 -2.33301 44.499 -3z" />
    <glyph glyph-name="uni0C78" unicode="&#xc78;" horiz-adv-x="707" 
d="M534 196c66 -10 100.999 -47.667 104.999 -113c-3.33301 -65.333 -59.666 -116 -168.999 -152c-71.333 -22 -141 -32 -209 -30l-22 65c56 0.666992 96.167 2 120.5 4s57.833 9 100.5 21c80.667 24.667 121 60 121 106c-6 25.333 -37 43 -93 53l40 44zM589.999 484
c14 -40 15.667 -88.001 5 -144.001c-12 -61.333 -35.667 -115.666 -71 -162.999c-39.333 -53.333 -91 -89 -155 -107c-116.667 -34 -209.667 3.33301 -279 112c-25.333 40.667 -42.666 83.667 -51.999 129c-8 36.667 0 82.334 24 137.001c24 52.667 54.667 98.667 92 138
c40 42.667 77.333 65.667 112 69s69 2.16602 103 -3.50098s65.333 -16.167 94 -31.5c59.333 -30.667 101.666 -76 126.999 -136zM385.999 125.999c28 -2.66699 54.667 17.333 80 60c25.333 40.667 42 87.334 50 140.001c8 56 1.66699 100.667 -19 134
c-32.667 49.333 -79.334 84.666 -140.001 105.999c-58.667 20.667 -104.667 19 -138 -5c-9.33301 -6 -21.166 -19.5 -35.499 -40.5s-27 -45.667 -38 -74s-17.667 -59 -20 -92s4.16699 -64.5 19.5 -94.5s42 -57.167 80 -81.5s91.667 -41.833 161 -52.5z" />
    <glyph glyph-name="uni0C79" unicode="&#xc79;" horiz-adv-x="195" 
d="M127 0h-89v684h89v-684z" />
    <glyph glyph-name="uni0C7A" unicode="&#xc7a;" horiz-adv-x="633" 
d="M408 266l-0.998047 -94c0.666992 -6 1.66699 -11 3 -15c-0.666992 -19.333 5 -35.333 17 -48c13.333 -8 25.666 -11 36.999 -9c9.33301 -44 17 -82.333 23 -115c-32 2.66699 -59.667 6.33398 -83 11.001c-43.333 9.33301 -67.333 52 -72 128v147
c-5.33301 -37.333 -31.333 -64.333 -78 -81c-13.333 -4.66699 -39.833 -7.33398 -79.5 -8.00098s-66.334 1.83301 -80.001 7.5s-25.167 12.167 -34.5 19.5c-38.667 28.667 -58.667 89.667 -60 183c0.666992 8 1 18.667 1 32v266h74v-258c0 -20 7 -38.5 21 -55.5
s38 -25.833 72 -26.5l164 1v335h75z" />
    <glyph glyph-name="uni0C7B" unicode="&#xc7b;" horiz-adv-x="836" 
d="M735 269l-1 -94.002c0.666992 -6 1.66699 -11 3 -15c-0.666992 -19.333 5.33301 -35.333 18 -48c13.333 -8 25.666 -11 36.999 -9c9.33301 -44 17 -82.333 23 -115c-32 2.66699 -59.667 6.33398 -83 11.001c-43.333 9.33301 -67.666 52 -72.999 128v147
c-4 -29.333 -19.333 -51.333 -46 -66c-7.33301 -5.33301 -17.666 -10.333 -30.999 -15s-40 -7.33398 -80 -8.00098s-66.833 1.83301 -80.5 7.5s-24.834 12.167 -33.501 19.5c-38.667 28.667 -58.667 89.667 -60 183c0.666992 8.66699 1 19.334 1 32.001v266h73v-258
c0 -19.333 7 -37.666 21 -54.999s38.333 -26.333 73 -27l163 1v335h75zM422 268.998l-76.001 4.99902c-4 -29.333 -19.333 -51.333 -46 -66c-7.33301 -5.33301 -17.666 -10.333 -30.999 -15s-40 -7.33398 -80 -8.00098s-66.833 1.83301 -80.5 7.5
s-24.834 12.167 -33.501 19.5c-39.333 28.667 -59.666 89.667 -60.999 183c0.666992 8.66699 1 19.334 1 32.001v266h74v-258c0 -19.333 7 -37.666 21 -54.999s38 -26.333 72 -27l164 1z" />
    <glyph glyph-name="uni0C7C" unicode="&#xc7c;" horiz-adv-x="797" 
d="M35 309v74h723v-74h-723z" />
    <glyph glyph-name="uni0C7D" unicode="&#xc7d;" horiz-adv-x="750" 
d="M632 4c-70 -1.33301 -132.666 2.33496 -187.999 11.002s-104.166 17 -146.499 25s-78.5 13.167 -108.5 15.5s-54.333 -3.5 -73 -17.5c-10 -6.66699 -17 -11.667 -21 -15s-7.16699 -5.83301 -9.5 -7.5l-7.5 -5.5c-2.66699 -2 -7.66699 -5.33301 -15 -10
c-6.66699 4.66699 -13.667 12 -21 22s-12.333 21.333 -15 34c-6.66699 30 5 58 35 84c92 62.667 158 131.667 198 207c16.667 30.667 25 62 25 94c0 15.333 -7 27.666 -21 36.999c-10 6 -24.333 9 -43 9s-36.5 -4.33301 -53.5 -13s-31.5 -19.334 -43.5 -32.001
c-16 -16.667 -32.333 -40.667 -49 -72c-2 0 -12.333 13.667 -31 41l-29 41l39 31.5c14 11.667 29.667 22.5 47 32.5c41.333 22.667 83.166 34 125.499 34s75 -4 98 -12s40.5 -18 52.5 -30c20 -21.333 28.333 -50 25 -86c-9.33301 -57.333 -54.666 -124 -135.999 -200
l-56 -51c-36.667 -34 -53.667 -53.333 -51 -58c-1.33301 -10.667 36.334 -16 113.001 -16c168.667 0 288.667 11.667 360 35c18 5.33301 31 12.333 39 21c-6.66699 -32.667 -12.334 -62.667 -17.001 -90s-8.33398 -44 -11.001 -50s-6.33398 -9 -11.001 -9z" />
    <glyph glyph-name="uni0C7E" unicode="&#xc7e;" horiz-adv-x="876" 
d="M780 0l-599.998 -0.00488281c-101.333 0 -152 29.333 -152 88c0 27.333 7.5 47.833 22.5 61.5s41.167 24.834 78.5 33.501l300 71c51.333 10 76.333 23.333 75 40c0.666992 16 -23.666 23.333 -72.999 22c-46.667 2 -89.5 4.16699 -128.5 6.5
s-83.5 4.16602 -133.5 5.49902c-91.333 1.33301 -137 24 -137 68c-1.33301 46 38.667 77 120 93l275 58c42 8.66699 64.333 21 67 37c-4.66699 16 -24 24.667 -58 26h-34h-334v82l332 -11c100.667 0 154 -34.333 160 -103c-4.66699 -48 -40 -77.333 -106 -88l-287 -54
c-46.667 -8.66699 -70 -19.167 -70 -31.5s13 -18.166 39 -17.499c22 -2.66699 47 -4.16699 75 -4.5s112 -5.16602 252 -14.499c43.333 -0.666992 74 -11 92 -31c13.333 -19.333 20 -39.666 20 -60.999c0 -15.333 -6.83301 -30.166 -20.5 -44.499
s-31.834 -24.166 -54.501 -29.499l-326 -75c-46 -6.66699 -68.667 -19 -68 -37c0 -18.667 22 -28 66 -28c103.333 8 198.166 14.5 284.499 19.5s194.166 12.833 323.499 23.5v-105z" />
    <glyph glyph-name="uni0C7F" unicode="&#xc7f;" horiz-adv-x="793" 
d="M583 353l106.998 -44c-8.66699 -52.667 -27.167 -99.834 -55.5 -141.501s-62.666 -75.834 -102.999 -102.501s-85 -45.167 -134 -55.5s-96.667 -10.666 -143 -0.999023s-85.833 25 -118.5 46s-59.667 45.5 -81 73.5c-45.333 60.667 -62 125 -50 193
c8.66699 40.667 30.667 80.334 66 119.001c44.667 50 95.334 80.667 152.001 92c14.667 3.33301 26.667 2.66602 36 -2.00098c60 -26.667 83.667 -61.667 71 -105c-6 -18.667 -17.167 -36.334 -33.5 -53.001s-33.5 -31 -51.5 -43c-29.333 -19.333 -59 -14 -89 16
c-13.333 14 -25.333 31.667 -36 53c-37.333 -99.333 -26 -177.333 34 -234c20.667 -18.667 46.667 -36 78 -52c54 -28.667 106 -36.167 156 -22.5s96 41.834 138 84.501c22.667 22.667 39.667 60.334 51 113.001c3.33301 21.333 5.33301 43.333 6 66zM196.998 493
c-19.333 -11.333 -27 -29.6699 -23 -55.0029c2.66699 -21.333 13.167 -40.166 31.5 -56.499s33.5 -19.833 45.5 -10.5c18 20.667 23.333 42.334 16 65.001c-8.66699 24 -27.667 42.333 -57 55c-6.66699 2.66699 -11 3.33398 -13 2.00098z" />
    <glyph glyph-name="afii61664" unicode="&#x200c;" 
d="M0 938h54v-1352h-54v1352z" />
    <glyph glyph-name="afii301" unicode="&#x200d;" 
d="M0 938h231v-54h-177v-1298h-54v1352z" />
    <glyph glyph-name="endash" unicode="&#x2013;" horiz-adv-x="456" 
d="M447 237l-447 -27l10 79h447z" />
    <glyph glyph-name="emdash" unicode="&#x2014;" horiz-adv-x="702" 
d="M693 237l-693 -27l10 79h693z" />
    <glyph glyph-name="quoteleft" unicode="&#x2018;" horiz-adv-x="266" 
d="M136 519c7.33301 6 17.332 9.00098 29.999 9.00098s23.167 -6.83301 31.5 -20.5s12.5 -32.834 12.5 -57.501s-5.33301 -43.167 -16 -55.5s-30.667 -18.5 -60 -18.5s-53 8.66699 -71 26c-4 20 -5.66699 43 -5 69c0 86.667 24 151.667 72 195l61 -49
c-31.333 -26 -50.666 -58 -57.999 -96z" />
    <glyph glyph-name="quoteright" unicode="&#x2019;" horiz-adv-x="266" 
d="M131 513c-7.33301 -6 -17.332 -9.00098 -29.999 -9.00098s-23 6.83301 -31 20.5s-12 32.834 -12 57.501s5.16699 43.167 15.5 55.5s30.333 18.5 60 18.5s53.167 -8.66699 70.5 -26c4 -20 6 -43 6 -69c0 -86.667 -24 -151.667 -72 -195l-62 49
c31.333 26 50.666 58 57.999 96z" />
    <glyph glyph-name="quotesinglbase" unicode="&#x201a;" horiz-adv-x="233" 
d="M114 -3c-7.33301 -6 -17.167 -9.00098 -29.5 -9.00098s-22.666 6.83301 -30.999 20.5s-12.5 32.834 -12.5 57.501s5.16699 43.167 15.5 55.5s30.5 18.5 60.5 18.5s53.333 -8.66699 70 -26c4 -20 6.33301 -43 7 -69c0 -86.667 -24 -151.667 -72 -195l-62 49
c31.333 26 50.666 58 57.999 96z" />
    <glyph glyph-name="quotedblleft" unicode="&#x201c;" horiz-adv-x="471" 
d="M136 519c7.33301 6 17.332 9.00098 29.999 9.00098s23.167 -6.83301 31.5 -20.5s12.5 -32.834 12.5 -57.501s-5.33301 -43.167 -16 -55.5s-30.667 -18.5 -60 -18.5s-53 8.66699 -71 26c-4 20 -5.66699 43 -5 69c0 86.667 24 151.667 72 195l61 -49
c-31.333 -26 -50.666 -58 -57.999 -96zM340.999 519.001c7.33301 6 17.332 9.00098 29.999 9.00098s23 -6.83301 31 -20.5s12 -32.834 12 -57.501s-5.16699 -43.167 -15.5 -55.5s-30.333 -18.5 -60 -18.5s-53.167 8.66699 -70.5 26c-4 20 -6 43 -6 69
c0 86.667 24 151.667 72 195l62 -49c-31.333 -26 -50.666 -58 -57.999 -96z" />
    <glyph glyph-name="quotedblright" unicode="&#x201d;" horiz-adv-x="471" 
d="M131 513c-7.33301 -6 -17.332 -9.00098 -29.999 -9.00098s-23 6.83301 -31 20.5s-12 32.834 -12 57.501s5.16699 43.167 15.5 55.5s30.333 18.5 60 18.5s53.167 -8.66699 70.5 -26c4 -20 6 -43 6 -69c0 -86.667 -24 -151.667 -72 -195l-62 49
c31.333 26 50.666 58 57.999 96zM336.001 512.999c-7.33301 -6 -17.499 -9.00098 -30.499 -9.00098s-23.5 6.83301 -31.5 20.5s-12 32.834 -12 57.501s5.33301 43.167 16 55.5s30.667 18.5 60 18.5s53 -8.66699 71 -26c4 -20 5.66699 -43 5 -69
c0 -86.667 -24 -151.667 -72 -195l-61 49c31.333 26 50.666 58 57.999 96z" />
    <glyph glyph-name="quotedblbase" unicode="&#x201e;" horiz-adv-x="471" 
d="M131 -3c-7.33301 -6 -17.332 -9.00098 -29.999 -9.00098s-23 6.83301 -31 20.5s-12 32.834 -12 57.501s5.16699 43.167 15.5 55.5s30.333 18.5 60 18.5s53.167 -8.66699 70.5 -26c4 -20 6 -43 6 -69c0 -86.667 -24 -151.667 -72 -195l-62 49
c31.333 26 50.666 58 57.999 96zM336.001 -3.00098c-7.33301 -6 -17.499 -9.00098 -30.499 -9.00098s-23.5 6.83301 -31.5 20.5s-12 32.834 -12 57.501s5.33301 43.167 16 55.5s30.667 18.5 60 18.5s53 -8.66699 71 -26c4 -20 5.66699 -43 5 -69
c0 -86.667 -24 -151.667 -72 -195l-61 49c31.333 26 50.666 58 57.999 96z" />
    <glyph glyph-name="dagger" unicode="&#x2020;" horiz-adv-x="528" 
d="M487 341l-146 14l-45 -521h-65l-46 520l-136 -13l-8 125l136 -22l-12 145l198 17l-14 -162l130 22z" />
    <glyph glyph-name="daggerdbl" unicode="&#x2021;" horiz-adv-x="528" 
d="M41 99l162 -17l20 132l-22 142l-152 -15l-8 125l145 -23l-21 146l198 17l-25 -164l141 24l8 -125l-161 15l-20 -130l22 -144l151 17l8 -125l-146 23l23 -146l-198 -17l24 164l-141 -24z" />
    <glyph glyph-name="bullet" unicode="&#x2022;" horiz-adv-x="272" 
d="M41 251.5c0 27 7.83301 48.833 23.5 65.5s39.834 25 72.501 25s56.667 -8.33301 72 -25s23 -38.5 23 -65.5s-7.66699 -48.667 -23 -65s-39.333 -24.5 -72 -24.5s-56.834 8.16699 -72.501 24.5s-23.5 38 -23.5 65z" />
    <glyph glyph-name="uni20B9" unicode="&#x20b9;" horiz-adv-x="624" 
d="M322 495h-229l-22 63h236c-38.667 66 -101 97.667 -187 95h-19l-98 -2l-3 66h544l-27 -66l-195 2c26 -15.333 47.667 -47 65 -95h121l29 -63h-138c3.33301 -59.333 -2 -101.166 -16 -125.499s-29.667 -45.166 -47 -62.499c-6 14.667 -38.667 25 -98 31
c-28.667 0 -58 -3.66699 -88 -11c20 -64.667 65 -133.334 135 -206.001l-28.5 -87c-3.66699 -10.667 -33.5 22.166 -89.5 98.499s-103.333 163.833 -142 262.5c214 -24 313 9.33301 297 100z" />
    <glyph glyph-name="minus" unicode="&#x2212;" horiz-adv-x="640" 
d="M80 312h480v-560h-480v560zM520 -208v480h-400v-480h400z" />
    <glyph glyph-name="uni25CC" unicode="&#x25cc;" horiz-adv-x="870" 
d="M400.5 611.5c9.66699 9.66699 21.167 14.5 34.5 14.5s24.833 -4.83301 34.5 -14.5s14.5 -21.167 14.5 -34.5s-4.83301 -24.833 -14.5 -34.5s-21.167 -14.5 -34.5 -14.5s-24.833 4.83301 -34.5 14.5s-14.5 21.167 -14.5 34.5s4.83301 24.833 14.5 34.5zM400.5 -25.5
c9.66699 9.66699 21.167 14.5 34.5 14.5s24.833 -4.83301 34.5 -14.5s14.5 -21.167 14.5 -34.5s-4.83301 -24.833 -14.5 -34.5s-21.167 -14.5 -34.5 -14.5s-24.833 4.83301 -34.5 14.5s-14.5 21.167 -14.5 34.5s4.83301 24.833 14.5 34.5zM82.5 292.5
c9.66699 9.66699 21.167 14.5 34.5 14.5s24.833 -4.83301 34.5 -14.5s14.5 -21.167 14.5 -34.5s-4.83301 -24.666 -14.5 -33.999s-21.167 -14 -34.5 -14s-24.833 4.66699 -34.5 14s-14.5 20.666 -14.5 33.999s4.83301 24.833 14.5 34.5zM719.5 292.5
c9.66699 9.66699 21.167 14.5 34.5 14.5s24.666 -4.83301 33.999 -14.5s14 -21.167 14 -34.5s-4.66699 -24.666 -14 -33.999s-20.666 -14 -33.999 -14s-24.833 4.66699 -34.5 14s-14.5 20.666 -14.5 33.999s4.83301 24.833 14.5 34.5zM125.5 133.5
c9.66699 9.66699 21.334 14.5 35.001 14.5s25.334 -4.83301 35.001 -14.5s14.5 -21.167 14.5 -34.5s-4.83301 -24.833 -14.5 -34.5s-21.334 -14.5 -35.001 -14.5s-25.334 4.83301 -35.001 14.5s-14.5 21.167 -14.5 34.5s4.83301 24.833 14.5 34.5zM676.5 452
c9.66699 9.33301 21.167 14 34.5 14s24.833 -4.66699 34.5 -14s14.5 -20.666 14.5 -33.999s-4.83301 -24.833 -14.5 -34.5s-21.167 -14.5 -34.5 -14.5s-24.833 4.83301 -34.5 14.5s-14.5 21.167 -14.5 34.5s4.83301 24.666 14.5 33.999zM560 568.5
c9.33301 9.66699 20.666 14.5 33.999 14.5s24.833 -4.83301 34.5 -14.5s14.5 -21.167 14.5 -34.5s-4.83301 -24.666 -14.5 -33.999s-21.167 -14 -34.5 -14s-24.666 4.66699 -33.999 14s-14 20.666 -14 33.999s4.66699 24.833 14 34.5zM241.5 18.5
c9.66699 9.66699 21.167 14.5 34.5 14.5s24.833 -4.83301 34.5 -14.5s14.5 -21.334 14.5 -35.001s-4.83301 -25.334 -14.5 -35.001s-21.167 -14.5 -34.5 -14.5s-24.833 4.83301 -34.5 14.5s-14.5 21.334 -14.5 35.001s4.83301 25.334 14.5 35.001zM125.5 452
c9.66699 9.33301 21.334 14 35.001 14s25.334 -4.66699 35.001 -14s14.5 -20.666 14.5 -33.999s-4.83301 -24.833 -14.5 -34.5s-21.334 -14.5 -35.001 -14.5s-25.334 4.83301 -35.001 14.5s-14.5 21.167 -14.5 34.5s4.83301 24.666 14.5 33.999zM676.5 133.5
c9.66699 9.66699 21.167 14.5 34.5 14.5s24.833 -4.83301 34.5 -14.5s14.5 -21.167 14.5 -34.5s-4.83301 -24.833 -14.5 -34.5s-21.167 -14.5 -34.5 -14.5s-24.833 4.83301 -34.5 14.5s-14.5 21.167 -14.5 34.5s4.83301 24.833 14.5 34.5zM241.5 568.5
c9.66699 9.66699 21.167 14.5 34.5 14.5s24.833 -4.83301 34.5 -14.5s14.5 -21.167 14.5 -34.5s-4.83301 -24.666 -14.5 -33.999s-21.167 -14 -34.5 -14s-24.833 4.66699 -34.5 14s-14.5 20.666 -14.5 33.999s4.83301 24.833 14.5 34.5zM560 18.5
c9.33301 9.66699 20.666 14.5 33.999 14.5s24.833 -4.83301 34.5 -14.5s14.5 -21.334 14.5 -35.001s-4.83301 -25.334 -14.5 -35.001s-21.167 -14.5 -34.5 -14.5s-24.666 4.83301 -33.999 14.5s-14 21.334 -14 35.001s4.66699 25.334 14 35.001z" />
    <glyph glyph-name="uniFFBC" unicode="&#xffbc;" horiz-adv-x="640" 
d="M80 560h480v-560h-480v560zM520 40v480h-400v-480h400z" />
    <glyph glyph-name="uniFFBD" unicode="&#xffbd;" horiz-adv-x="640" 
d="M80 560h480v-560h-480v560zM520 40v480h-400v-480h400z" />
    <glyph glyph-name="uniFFBE" unicode="&#xffbe;" horiz-adv-x="640" 
d="M80 560h480v-560h-480v560zM520 40v480h-400v-480h400z" />
    <glyph glyph-name="uniFFBF" unicode="&#xffbf;" horiz-adv-x="640" 
d="M80 560h480v-560h-480v560zM520 40v480h-400v-480h400z" />
    <glyph glyph-name="uniFFC0" unicode="&#xffc0;" horiz-adv-x="640" 
d="M80 560h480v-560h-480v560zM520 40v480h-400v-480h400z" />
    <glyph glyph-name="uniFFC1" unicode="&#xffc1;" horiz-adv-x="640" 
d="M80 560h480v-560h-480v560zM520 40v480h-400v-480h400z" />
    <glyph glyph-name="uniFFC2" unicode="&#xffc2;" horiz-adv-x="640" 
d="M80 560h480v-560h-480v560zM520 40v480h-400v-480h400z" />
    <glyph glyph-name="uniFFC3" unicode="&#xffc3;" horiz-adv-x="640" 
d="M80 560h480v-560h-480v560zM520 40v480h-400v-480h400z" />
    <glyph glyph-name="uniFFC4" unicode="&#xffc4;" horiz-adv-x="640" 
d="M80 560h480v-560h-480v560zM520 40v480h-400v-480h400z" />
    <glyph glyph-name="uniFFC5" unicode="&#xffc5;" horiz-adv-x="640" 
d="M80 560h480v-560h-480v560zM520 40v480h-400v-480h400z" />
    <glyph glyph-name="uniFFC6" unicode="&#xffc6;" horiz-adv-x="640" 
d="M80 560h480v-560h-480v560zM520 40v480h-400v-480h400z" />
    <glyph glyph-name="uniFFC7" unicode="&#xffc7;" horiz-adv-x="640" 
d="M80 560h480v-560h-480v560zM520 40v480h-400v-480h400z" />
    <glyph glyph-name="uniFFC8" unicode="&#xffc8;" horiz-adv-x="640" 
d="M80 560h480v-560h-480v560zM520 40v480h-400v-480h400z" />
    <glyph glyph-name="uniFFC9" unicode="&#xffc9;" horiz-adv-x="640" 
d="M80 560h480v-560h-480v560zM520 40v480h-400v-480h400z" />
    <glyph glyph-name="uniFFCA" unicode="&#xffca;" horiz-adv-x="640" 
d="M80 560h480v-560h-480v560zM520 40v480h-400v-480h400z" />
    <glyph glyph-name="uniFFCB" unicode="&#xffcb;" horiz-adv-x="640" 
d="M80 560h480v-560h-480v560zM520 40v480h-400v-480h400z" />
    <glyph glyph-name="uniFFCC" unicode="&#xffcc;" horiz-adv-x="640" 
d="M80 560h480v-560h-480v560zM520 40v480h-400v-480h400z" />
    <glyph glyph-name="uniFFCD" unicode="&#xffcd;" horiz-adv-x="640" 
d="M80 560h480v-560h-480v560zM520 40v480h-400v-480h400z" />
    <glyph glyph-name="uniFFCE" unicode="&#xffce;" horiz-adv-x="640" 
d="M80 560h480v-560h-480v560zM520 40v480h-400v-480h400z" />
    <glyph glyph-name="uniFFCF" unicode="&#xffcf;" horiz-adv-x="640" 
d="M80 560h480v-560h-480v560zM520 40v480h-400v-480h400z" />
    <glyph glyph-name="uniFFD0" unicode="&#xffd0;" horiz-adv-x="640" 
d="M80 560h480v-560h-480v560zM520 40v480h-400v-480h400z" />
    <glyph glyph-name="uniFFD1" unicode="&#xffd1;" horiz-adv-x="640" 
d="M80 560h480v-560h-480v560zM520 40v480h-400v-480h400z" />
    <glyph glyph-name="uniFFD2" unicode="&#xffd2;" horiz-adv-x="640" 
d="M80 560h480v-560h-480v560zM520 40v480h-400v-480h400z" />
    <glyph glyph-name="uniFFD3" unicode="&#xffd3;" horiz-adv-x="640" 
d="M80 560h480v-560h-480v560zM520 40v480h-400v-480h400z" />
    <glyph glyph-name="uniFFD4" unicode="&#xffd4;" horiz-adv-x="640" 
d="M80 560h480v-560h-480v560zM520 40v480h-400v-480h400z" />
    <glyph glyph-name="uniFFD5" unicode="&#xffd5;" horiz-adv-x="640" 
d="M80 560h480v-560h-480v560zM520 40v480h-400v-480h400z" />
    <glyph glyph-name="uniFFD6" unicode="&#xffd6;" horiz-adv-x="640" 
d="M80 560h480v-560h-480v560zM520 40v480h-400v-480h400z" />
    <glyph glyph-name="uniFFD7" unicode="&#xffd7;" horiz-adv-x="640" 
d="M80 560h480v-560h-480v560zM520 40v480h-400v-480h400z" />
    <glyph glyph-name="uniFFD8" unicode="&#xffd8;" horiz-adv-x="640" 
d="M80 560h480v-560h-480v560zM520 40v480h-400v-480h400z" />
    <glyph glyph-name="uniFFD9" unicode="&#xffd9;" horiz-adv-x="640" 
d="M80 560h480v-560h-480v560zM520 40v480h-400v-480h400z" />
    <glyph glyph-name="uniFFDA" unicode="&#xffda;" horiz-adv-x="640" 
d="M80 560h480v-560h-480v560zM520 40v480h-400v-480h400z" />
    <glyph glyph-name="uniFFDB" unicode="&#xffdb;" horiz-adv-x="640" 
d="M80 560h480v-560h-480v560zM520 40v480h-400v-480h400z" />
    <glyph glyph-name="uniFFDC" unicode="&#xffdc;" horiz-adv-x="640" 
d="M80 560h480v-560h-480v560zM520 40v480h-400v-480h400z" />
    <glyph glyph-name="uniFFDD" unicode="&#xffdd;" horiz-adv-x="640" 
d="M80 560h480v-560h-480v560zM520 40v480h-400v-480h400z" />
    <glyph glyph-name="uniFFDE" unicode="&#xffde;" horiz-adv-x="640" 
d="M80 560h480v-560h-480v560zM520 40v480h-400v-480h400z" />
    <glyph glyph-name="uniFFDF" unicode="&#xffdf;" horiz-adv-x="640" 
d="M80 560h480v-560h-480v560zM520 40v480h-400v-480h400z" />
    <glyph glyph-name="uniFFE0" unicode="&#xffe0;" horiz-adv-x="640" 
d="M80 560h480v-560h-480v560zM520 40v480h-400v-480h400z" />
    <glyph glyph-name="uniFFE1" unicode="&#xffe1;" horiz-adv-x="640" 
d="M80 560h480v-560h-480v560zM520 40v480h-400v-480h400z" />
    <glyph glyph-name="uniFFE2" unicode="&#xffe2;" horiz-adv-x="640" 
d="M80 560h480v-560h-480v560zM520 40v480h-400v-480h400z" />
    <glyph glyph-name="uniFFE3" unicode="&#xffe3;" horiz-adv-x="640" 
d="M80 560h480v-560h-480v560zM520 40v480h-400v-480h400z" />
    <glyph glyph-name="uniFFE7" unicode="&#xffe7;" horiz-adv-x="640" 
d="M80 560h480v-560h-480v560zM520 40v480h-400v-480h400z" />
    <glyph glyph-name="uniFFE8" unicode="&#xffe8;" horiz-adv-x="1024" 
 />
    <glyph glyph-name="uniFFE9" unicode="&#xffe9;" horiz-adv-x="640" 
d="M80 560h480v-560h-480v560zM520 40v480h-400v-480h400z" />
    <glyph glyph-name="uniFFEA" unicode="&#xffea;" horiz-adv-x="640" 
d="M80 560h480v-560h-480v560zM520 40v480h-400v-480h400z" />
    <glyph glyph-name="uniFFEB" unicode="&#xffeb;" horiz-adv-x="640" 
d="M80 560h480v-560h-480v560zM520 40v480h-400v-480h400z" />
    <glyph glyph-name="uniFFEC" unicode="&#xffec;" horiz-adv-x="640" 
d="M80 560h480v-560h-480v560zM520 40v480h-400v-480h400z" />
    <glyph glyph-name="uniFFED" unicode="&#xffed;" horiz-adv-x="640" 
d="M80 560h480v-560h-480v560zM520 40v480h-400v-480h400z" />
    <glyph glyph-name="uniFFEE" unicode="&#xffee;" horiz-adv-x="640" 
d="M80 560h480v-560h-480v560zM520 40v480h-400v-480h400z" />
    <glyph glyph-name="uniFFEF" unicode="&#xffef;" horiz-adv-x="640" 
d="M80 560h480v-560h-480v560zM520 40v480h-400v-480h400z" />
    <glyph glyph-name="uniFFF0" unicode="&#xfff0;" horiz-adv-x="640" 
d="M80 560h480v-560h-480v560zM520 40v480h-400v-480h400z" />
    <glyph glyph-name="uniFFF1" unicode="&#xfff1;" horiz-adv-x="640" 
d="M80 560h480v-560h-480v560zM520 40v480h-400v-480h400z" />
    <glyph glyph-name="uniFFF2" unicode="&#xfff2;" horiz-adv-x="640" 
d="M80 560h480v-560h-480v560zM520 40v480h-400v-480h400z" />
    <glyph glyph-name="ai_extended" 
d="M-268 -661l-197 -1.99805h-35c-39.333 1.33301 -70 16.666 -92 45.999c-22 28.667 -26.667 57 -14 85c14 30 47.333 48.667 100 56c44 5.33301 73.667 -5.33398 89 -32.001c13.333 -23.333 15.333 -53 6 -89l331 22v-85c-68 0 -130.667 -0.333008 -188 -1zM-493 -538.998
c-8 4 -17.001 3.99902 -27.001 -0.000976562s-16.5 -10 -19.5 -18s-2.5 -15 1.5 -21c11.333 -16.667 33 -20 65 -10c4.66699 2 6.83398 6.33301 6.50098 13s-2.83301 13.334 -7.5 20.001s-11 12 -19 16z" />
    <glyph glyph-name="uniFFB9" horiz-adv-x="640" 
d="M80 560h480v-560h-480v560zM520 40v480h-400v-480h400z" />
    <glyph glyph-name="uniFFBA" horiz-adv-x="640" 
d="M80 560h480v-560h-480v560zM520 40v480h-400v-480h400z" />
    <glyph glyph-name="uniFFBB" horiz-adv-x="640" 
d="M80 560h480v-560h-480v560zM520 40v480h-400v-480h400z" />
    <glyph glyph-name="uniFFE4" horiz-adv-x="640" 
d="M80 560h480v-560h-480v560zM520 40v480h-400v-480h400z" />
    <glyph glyph-name="uniFFE5" horiz-adv-x="640" 
d="M80 560h480v-560h-480v560zM520 40v480h-400v-480h400z" />
    <glyph glyph-name="uniFFE6" horiz-adv-x="640" 
d="M80 560h480v-560h-480v560zM520 40v480h-400v-480h400z" />
    <glyph glyph-name="U0C38_U0C41.psts" horiz-adv-x="792" 
d="M3 -66c-2 28 -2.99902 47.999 -2.99902 59.999v39c1.33301 44.667 20.666 85.667 57.999 123c15.333 15.333 30.833 26.666 46.5 33.999s26.834 10.166 33.501 8.49902s17.167 -8.66699 31.5 -21l47.5 -39.5c46 -38 74.5 -56.667 85.5 -56s20.833 5.83398 29.5 15.501
s15.667 21.834 21 36.501c21.333 56.667 21.666 107.334 0.999023 152.001c-14 31.333 -30.333 55 -49 71l115 59c26 -60.667 38 -125 36 -193c-2.66699 -64.667 -23.667 -119.667 -63 -165c-16.667 -18.667 -34.667 -33 -54 -43s-36.5 -14.833 -51.5 -14.5
s-30.667 6 -47 17s-32.333 22.833 -48 35.5l-43 34c-13 10 -22.167 14.667 -27.5 14c-37.333 -3.33301 -45.333 -48 -24 -134zM49.001 333.999l-19 53l301 183l49 -101zM586.001 -0.000976562c-33.333 12.667 -73.334 18.998 -120.001 18.998h-25
c-29.333 0 -67.333 -3.33301 -114 -10c11.333 14.667 24.333 32.834 39 54.501s26.667 38.834 36 51.501c6.66699 5.33301 21.334 4.66602 44.001 -2.00098c42.667 -12.667 68.334 -24 77.001 -34c22 7.33301 41.333 26.333 58 57c18 33.333 21.667 73.333 11 120
c-13.333 54.667 -48.333 110.334 -105 167.001h139c58.667 -92.667 76 -184.667 52 -276c-14.667 -53.333 -45.334 -102.333 -92.001 -147z" />
    <glyph glyph-name="U0C37_U0C41.psts" horiz-adv-x="839" 
d="M76 332l-23 52l308 197l42 -111zM354 227c-4 35.333 -17 70.333 -39 105l118 46c10 -51.333 14.333 -104 13 -158c0 -54 -24 -111 -72 -171l-39 -48c-1.33301 0 -6.33301 1.83301 -15 5.5s-19.334 7.83398 -32.001 12.501c-78 28 -156.667 24 -236 -12
c-10.667 -4.66699 -19.667 -7.83398 -27 -9.50098s-13.166 3.66602 -17.499 15.999s-6.83301 27.5 -7.5 45.5c-0.666992 44.667 7.33301 79 24 103c15.333 22 41.333 40.667 78 56c15.333 6.66699 29 10.667 41 12s19.333 -0.666992 22 -6c14 -30 37 -57.667 69 -83
c26 -20.667 46.667 -31 62 -31c5.33301 -1.33301 11.5 1.83398 18.5 9.50098s13.5 17.167 19.5 28.5c13.333 28.667 20 55 20 79zM80 83c8.66699 -8.66699 18.1689 -11.166 28.502 -7.49902s19 10.167 26 19.5s12 19.333 15 30s1.16699 18.667 -5.5 24
s-14.834 5.66602 -24.501 0.999023s-18.334 -11.167 -26.001 -19.5s-13.167 -17.333 -16.5 -27s-2.33301 -16.5 3 -20.5zM378.002 195.001l68 18.999c-4 -57.333 3.33301 -112 22 -164c9.33301 -26 25 -47.667 47 -65c-21.333 -24 -37.333 -39.333 -48 -46
c-6 -5.33301 -10.667 -8.66602 -14 -9.99902c-34 26 -57.667 71.667 -71 137c-6.66699 34 -8 77 -4 129zM633.002 0c-33.333 12.667 -73.001 19.001 -119.001 19.001h-26c-41.333 0 -68.666 -4 -81.999 -12c8 44.667 22.667 80.667 44 108
c5.33301 5.33301 19.333 4.66602 42 -2.00098c43.333 -12.667 69.333 -24 78 -34c22 7.33301 41.333 26.333 58 57c18 33.333 21.333 73.333 10 120c-12 54 -46.333 109.667 -103 167h138c58.667 -92.667 75.667 -184.667 51 -276c-14 -53.333 -44.333 -102.333 -91 -147z
" />
    <glyph glyph-name="U0C36_U0C41.psts" horiz-adv-x="855" 
d="M128 417c50 7.33301 95.833 10.998 137.5 10.998s74.167 -2.5 97.5 -7.5s40.833 -11.5 52.5 -19.5s19.334 -16.667 23.001 -26s4.5 -18.5 2.5 -27.5s-5.33301 -17.5 -10 -25.5c-6.66699 -12.667 -16.334 -24 -29.001 -34c49.333 -24.667 77.666 -55.334 84.999 -92.001
c6 -30.667 -4 -63.334 -30 -98.001c-23.333 -30.667 -52.333 -54.667 -87 -72c-52 -28 -111.333 -34.333 -178 -19c-29.333 6.66699 -54.666 18.334 -75.999 35.001c-34.667 28.667 -46 68.334 -34 119.001c9.33301 42.667 38.666 73 87.999 91
c-34 -2 -73.333 -12.333 -118 -31c-18 -7.33301 -35.333 -16 -52 -26v84c171.333 37.333 286.666 45.333 345.999 24c4.66699 14.667 4.66699 32.334 0 53.001c-5.33301 18.667 -30.666 29.334 -75.999 32.001c-43.333 2 -90.666 -1 -141.999 -9v38zM303.5 61.998
c15.667 0 28.8369 1.33496 39.5039 4.00195s19.667 8.16699 27 16.5s12.666 18.666 15.999 30.999s5 25.666 5 39.999s-2 28.166 -6 41.499c-7.33301 24 -32.333 41.667 -75 53c-16.667 4 -32.334 6.16699 -47.001 6.5s-24.334 -0.5 -29.001 -2.5
c-26.667 -14.667 -45.334 -36 -56.001 -64c-11.333 -29.333 -10.333 -54.666 3 -75.999c10 -19.333 35 -34 75 -44c16 -4 31.833 -6 47.5 -6zM128.003 379l-17 48l273 164l39 -91zM690.003 426c42 -67.333 63 -135.999 63 -205.999c0 -48.667 -14 -97.334 -42 -146.001
c-14.667 -25.333 -34.667 -50 -60 -74c-26 10.667 -51.667 17.5 -77 20.5s-47 4.83301 -65 5.5c-30 1.33301 -60.333 0.166016 -91 -3.50098s-55.667 -6.5 -75 -8.5c59.333 35.333 100.666 69 123.999 101c6 6 20.333 5.33301 43 -2c44 -12.667 70.333 -24 79 -34
c9.33301 3.33301 19.333 10 30 20s19.5 22.667 26.5 38s12 32.833 15 52.5s1.5 41.834 -4.5 66.501c-15.333 57.333 -49.666 114 -102.999 170h137z" />
    <glyph glyph-name="U0C33_U0C41.psts" horiz-adv-x="840" 
d="M260 423l-11 43l219 145l40 -71zM353 248c34 -14.667 59.501 -32.1719 76.501 -52.5049s25.167 -41.333 24.5 -63s-10 -42.667 -28 -63s-42.5 -36.666 -73.5 -48.999s-63 -19.166 -96 -20.499s-64.167 1.66699 -93.5 9s-54.666 19.5 -75.999 36.5s-34 38.5 -38 64.5
c-4.66699 36.667 0.333008 64.167 15 82.5s34 32.833 58 43.5c-8.66699 3.33301 -16.667 6.83301 -24 10.5s-17.666 7.83398 -30.999 12.501c-61.333 40.667 -80.333 87.667 -57 141c11.333 26.667 28.666 49.667 51.999 69c9.33301 8 18.333 14.167 27 18.5
s23.167 3.83301 43.5 -1.5s39.5 -14.166 57.5 -26.499s31.833 -27.833 41.5 -46.5s9.83398 -38.334 0.500977 -59.001c-16.667 -36 -38.667 -54 -66 -54c-12.667 -0.666992 -25.334 2.33301 -38.001 9c6 -10 38 -20.333 96 -31c16 -3.33301 30.667 -5.66602 44 -6.99902
c32 10.667 57.333 28 76 52c18.667 20.667 25 38.667 19 54c-12.667 36 -46.334 51.667 -101.001 47l-3 27c24.667 11.333 54.834 12.833 90.501 4.5s61.5 -21.666 77.5 -39.999s23.167 -38 21.5 -59s-10.834 -41.667 -27.501 -62s-39.334 -35.833 -68.001 -46.5z
M81.001 394.495c1.33301 -10.333 6.99707 -19.833 16.9971 -28.5c22.667 -22 39.334 -27 50.001 -15c6.66699 4.66699 9.33398 12 8.00098 22s-6.66602 20 -15.999 30s-19.333 16.167 -30 18.5s-19 1.5 -25 -2.5c-4 -6 -5.33301 -14.167 -4 -24.5zM313.998 65.9951
c20 8.66699 34.1689 22.333 42.502 41s6.16602 39 -6.50098 61c-12 23.333 -39.333 39.333 -82 48c-34.667 8 -61.334 8.66699 -80.001 2c-38 -20.667 -53 -44.667 -45 -72c7.33301 -26.667 23 -46 47 -58c28.667 -15.333 55 -23.833 79 -25.5s39 -0.5 45 3.5zM516 423.994
l137.998 0.00195312c77.333 -124 84 -241.333 20 -352c-14.667 -25.333 -34.667 -50 -60 -74c-26 10.667 -52 16.667 -78 18s-47.333 3.33301 -64 6c-26.667 1.33301 -50.667 1.16602 -72 -0.500977s-36.666 -2.83398 -45.999 -3.50098s-14.666 -1.33398 -15.999 -2.00098
c46 40 78 72.333 96 97c4.66699 4.66699 18 3.66699 40 -3c43.333 -12 69.333 -23 78 -33c22.667 8 42 27 58 57c29.333 54.667 21.333 121.334 -24 200.001c-16 28.667 -39.333 58.667 -70 90z" />
    <glyph glyph-name="U0C32_U0C41.psts" horiz-adv-x="795" 
d="M286 432c8.66699 -3.33301 45.332 -3.33301 109.999 0c30.667 -46 43 -102 37 -168c-5.33301 -62 -22.333 -118.333 -51 -169c-30 -52.667 -62 -82.334 -96 -89.001c-58.667 -13.333 -115.334 -8.66602 -170.001 14.001c-63.333 26 -101 69.333 -113 130
c-5.33301 33.333 -3.33301 67.166 6 101.499s22 65.333 38 93s33.667 50.167 53 67.5s36.333 26 51 26c34.667 -1.33301 59.334 -8.83301 74.001 -22.5s23 -30.167 25 -49.5c2.66699 -35.333 -10.666 -74.666 -39.999 -117.999c-11.333 -18 -24.666 -27.333 -39.999 -28
c-29.333 -1.33301 -60.666 13.334 -93.999 44.001c2.66699 -66 25 -115.333 67 -148c30 -23.333 59.667 -35 89 -35s54.666 10.167 75.999 30.5s36.666 56.166 45.999 107.499c12 63.333 -10.667 134.333 -68 213zM108.998 379
c-4.66699 -16 -2.83398 -31.1689 5.49902 -45.502s18.333 -26.166 30 -35.499s23.334 -15.5 35.001 -18.5s18.5 -0.166992 20.5 8.5c4 36 -10 62.667 -42 80c-14.667 6.66699 -31 10.334 -49 11.001zM486.998 422.998l139 -0.00195312c58.667 -92.667 76 -184.667 52 -276
c-14.667 -53.333 -45.334 -102.333 -92.001 -147c-20.667 8.66699 -43.334 15.667 -68.001 21c-36 6.66699 -62 9.33398 -78 8.00098c-29.333 0 -59.666 -1.66699 -90.999 -5c-14.667 -2.66699 -28.667 -4.66699 -42 -6l24 35.5l25 37c8.66699 13 17.667 25.5 27 37.5
c6.66699 8.66699 39.334 -0.666016 98.001 -27.999c15.333 -6.66699 29.333 -13.667 42 -21c23.333 9.33301 42.333 28.333 57 57c28.667 55.333 20.667 121.333 -24 198c-16 28 -39 57.667 -69 89z" />
    <glyph glyph-name="U0C31_U0C41.psts" horiz-adv-x="986" 
d="M404.5 424c13.667 11.333 26.002 18.832 37.002 22.499s26.667 3.83398 47 0.500977s40.833 -12.333 61.5 -27c48.667 -36.667 73 -99 73 -187c0 -52 -10.333 -98.167 -31 -138.5s-46.334 -70.5 -77.001 -90.5c-6 -3.33301 -12.333 -4.33301 -19 -3s-16 3.33301 -28 6
c-37.333 8.66699 -79.666 13 -126.999 13c-46 2 -93.667 -6.66699 -143 -26c-7.33301 -2.66699 -14.333 -3.66699 -21 -3c-31.333 7.33301 -63 22.333 -95 45c-48.667 35.333 -75.667 76.333 -81 123c-5.33301 52 8.33398 104 41.001 156c17.333 26.667 39.333 50.667 66 72
s53 33.666 79 36.999s49.333 1.33301 70 -6s37.5 -18.5 50.5 -33.5s19.833 -29.167 20.5 -42.5c1.33301 -26.667 -7.66699 -51.334 -27 -74.001s-45.333 -39.667 -78 -51c-24 -8.66699 -50.333 -5.66699 -79 9c-12 6.66699 -22.667 14.667 -32 24
c-17.333 -52 -13.333 -93.667 12 -125c19.333 -22.667 50 -37.667 92 -45c31.333 -6 58.666 -6 81.999 0c15.333 3.33301 27.666 11.333 36.999 24c3.33301 6 5.33301 12 6 18c19.333 -34.667 54.333 -50 105 -46c40 2.66699 69.333 25.667 88 69
c9.33301 22.667 12.666 53.334 9.99902 92.001c-1.33301 37.333 -12 67 -32 89c-20.667 22.667 -49.334 29 -86.001 19c-12.667 -3.33301 -15.667 -13.666 -9 -30.999c5.33301 -13.333 17.333 -34.666 36 -63.999c16.667 -26 16.667 -51.667 0 -77
c-17.333 -26.667 -42.666 -41.334 -75.999 -44.001c-36.667 -4 -86 -4 -148 0v72h142c16 0 24.833 3.5 26.5 10.5s-0.833008 16.5 -7.5 28.5c-35.333 49.333 -42 96 -20 140c9.33301 18 20.833 32.667 34.5 44zM187.002 360.999
c-10.667 -6.66699 -15.668 -16.333 -15.001 -29s4.83398 -23.834 12.501 -33.501s17.5 -16.167 29.5 -19.5s23.833 0.333984 35.5 11.001s16.5 21.5 14.5 32.5s-7.16699 20.667 -15.5 29s-18.333 14 -30 17s-22.167 0.5 -31.5 -7.5zM679.001 424l137.998 -0.000976562
c77.333 -124 84 -241.333 20 -352c-14.667 -25.333 -34.667 -50 -60 -74c-44 18.667 -92 25 -144 19c-36 0 -74.333 -4.33301 -115 -13c7.33301 12 15.333 23.333 24 34l55 75c4.66699 4.66699 18 3.66699 40 -3c43.333 -12 69.333 -23 78 -33
c9.33301 3.33301 19.333 10 30 20s19.834 22.5 27.501 37.5s12.834 32.5 15.501 52.5s1 42.333 -5 67c-14 56.667 -48.667 113.334 -104 170.001z" />
    <glyph glyph-name="U0C30_U0C41.psts" horiz-adv-x="734" 
d="M28 402l255 187l58 -73l-291 -152zM393.5 376c17 -16 29.498 -34.498 37.498 -55.498s10.5 -47 7.5 -78s-11.833 -62 -26.5 -93s-34.834 -59.333 -60.501 -85s-56.667 -43.834 -93 -54.501s-69.333 -11.667 -99 -3s-55.5 22.667 -77.5 42s-39.833 41.666 -53.5 66.999
s-22.5 48.666 -26.5 69.999c-4.66699 21.333 -1.66699 46.333 9 75s25.334 55.834 44.001 81.501s39.334 47.667 62.001 66s45.5 28.833 68.5 31.5s47.833 2 74.5 -2s51.334 -11.333 74.001 -22s42.5 -24 59.5 -40zM263.998 79.002c13.333 -2.66699 25.833 3.33301 37.5 18
s21 32.834 28 54.501s10.667 44.667 11 69s-4.16699 44.833 -13.5 61.5c-22.667 32 -51.667 56 -87 72c-36 15.333 -63.667 15.333 -83 0c-17.333 -11.333 -34 -36.333 -50 -75c-18 -44.667 -17.667 -84.334 1 -119.001c24 -43.333 76 -70.333 156 -81zM426.998 438.002
l138.002 -0.00390625c80 -135.333 88.667 -257.333 26 -366c-14.667 -25.333 -34.667 -50 -60 -74c-25.333 10.667 -50.833 17.334 -76.5 20.001s-46.5 4.33398 -62.5 5.00098c-29.333 1.33301 -54.5 1 -75.5 -1s-37.5 -3.33301 -49.5 -4c35.333 35.333 63.333 67 84 95
c4.66699 4.66699 18 3.66699 40 -3c43.333 -12 69.333 -23 78 -33c22.667 8 42 27 58 57c29.333 54.667 21.666 121.334 -23.001 200.001c-16.667 28.667 -42.334 63.334 -77.001 104.001z" />
    <glyph glyph-name="U0C2F_U0C41.psts" horiz-adv-x="1210" 
d="M1012 -1c-44.667 18 -92.999 24.335 -144.999 19.002c-38 0 -77.333 -6.33301 -118 -19l32.5 53l33.5 54c6.66699 8.66699 41.334 1 104.001 -23c14 -5.33301 24.333 -10 31 -14c23.333 9.33301 42.666 29.666 57.999 60.999c28 59.333 20 127.333 -24 204
c-16.667 29.333 -43.334 58.666 -80.001 87.999h137c48 -60 72 -127.667 72 -203c0 -82.667 -33.667 -156 -101 -220zM777.001 422.002c48 -60.667 72.0029 -128.333 72.0029 -203c0 -48.667 -14 -97.334 -42 -146.001c-14.667 -25.333 -34.334 -50 -59.001 -74
c-37.333 14.667 -76 23.334 -116 26.001c-24 1.33301 -45.333 0.666016 -64 -2.00098c-37.333 -5.33301 -62 -9.33301 -74 -12c29.333 31.333 49 53.333 59 66l30 38c4.66699 4.66699 14.667 3.5 30 -3.5l40 -18.5l32 -15c22.667 10 42 30 58 60
c29.333 54.667 21.666 120.334 -23.001 197.001c-16.667 28 -43.334 57 -80.001 87h137zM600.004 566.003l11 -103l-187 -77l-7 50zM481.004 424.003c13.333 -2 28.4971 -8.33301 45.4971 -19s33.167 -25 48.5 -43c37.333 -44 56 -94.667 56 -152
c0 -51.333 -18.333 -97.666 -55 -138.999c-35.333 -39.333 -77.666 -63.333 -126.999 -72c-11.333 1.33301 -23.166 5.5 -35.499 12.5l-37.5 20.5c-30 17.333 -52 23.166 -66 17.499l-33.5 -13.5c-8.33301 -3.33301 -15.833 -6.66602 -22.5 -9.99902
c-8.66699 -5.33301 -26 -13.666 -52 -24.999c-26.667 2 -53.167 10.5 -79.5 25.5s-49.166 34.833 -68.499 59.5c-44.667 56 -61.334 117.667 -50.001 185c5.33301 20 15.666 41.833 30.999 65.5s31.833 42.667 49.5 57s34.334 24.666 50.001 30.999
s26.834 9.83301 33.501 10.5c78 8.66699 136.333 -3 175 -35c31.333 -26.667 50.333 -65.667 57 -117c7.33301 -37.333 1 -90.333 -19 -159c4.66699 0 12.334 -4 23.001 -12c22.667 -16 38 -31.667 46 -47c37.333 8.66699 64.666 33 81.999 73c8 19.333 12.5 47.5 13.5 84.5
s-4.16699 67.5 -15.5 91.5s-23.333 42 -36 54c-16 13.333 -34.333 21.666 -55 24.999l-11 40c20 2.66699 37.667 -0.333008 53 -9zM214.001 67.0029c12.667 0 25.833 8.66895 39.5 26.002s25.167 38.833 34.5 64.5s15.333 49.667 18 72s0 46.166 -8 71.499
s-23 46.166 -45 62.499s-52.667 23.833 -92 22.5c-24 -1.33301 -42.333 -31.333 -55 -90c-11.333 -50.667 -10 -98 4 -142c8 -25.333 20.333 -46.333 37 -63s39 -24.667 67 -24z" />
    <glyph glyph-name="U0C2E_U0C41.psts" horiz-adv-x="1097" 
d="M348 4l61.998 115c20.667 0 46.834 -5 78.501 -15s52.834 -18 63.501 -24c24 10 43.333 29 58 57c28.667 54 20.667 119 -24 195c-16.667 28 -40.667 58 -72 90h143c42.667 -65.333 63.667 -132.666 63 -201.999c-1.33301 -48.667 -16 -97.334 -44 -146.001
c-15.333 -25.333 -36 -50.333 -62 -75c-48 20 -86.667 30 -116 30c-59.333 0 -109.333 -8.33301 -150 -25zM619.998 4l60.9971 115c20.667 0 46.834 -5 78.501 -15s52.834 -18 63.501 -24c24 9.33301 45.333 28.333 64 57c34.667 54.667 31 119.667 -11 195
c-15.333 28 -38.666 58 -69.999 90h143c36 -64.667 52 -132 48 -202c-4.66699 -81.333 -41.667 -155 -111 -221c-48 20 -87 30 -117 30c-61.333 0 -111 -8.33301 -149 -25zM48.9951 374l21.998 48.9941c123.333 12.667 220.333 -5 291 -53
c64.667 -44.667 97 -106.667 97 -186c0 -34 -8.33301 -67.333 -25 -100s-41 -57 -73 -73c-36.667 -22 -81.667 -13.667 -135 25c-12 8.66699 -22.5 15.834 -31.5 21.501s-19 5.83398 -30 0.500977s-22 -12.166 -33 -20.499s-21 -16.666 -30 -24.999s-15.5 -12.5 -19.5 -12.5
c-14.667 -1.33301 -28 4 -40 16s-21.667 26.833 -29 44.5s-11.166 36.334 -11.499 56.001s4.5 37.334 14.5 53.001s21.833 28.167 35.5 37.5s27.834 15 42.501 17c33.333 4.66699 58.333 -9 75 -41c20 -37.333 44.333 -64.333 73 -81c18 -11.333 37.5 -17 58.5 -17
s39.167 10.167 54.5 30.5s23 49.166 23 86.499c0 44.667 -19.667 85.334 -59 122.001c-33.333 31.333 -83 50 -149 56c-34 2.66699 -74.333 0.666992 -121 -6zM85.9932 84.4941c8 -7.66699 16.832 -10.168 26.499 -7.50098s15.334 9.33398 17.001 20.001
s0.5 21.334 -3.5 32.001s-10.167 20 -18.5 28s-17.333 10.667 -27 8s-15.5 -9.33398 -17.5 -20.001s-0.666992 -21.5 4 -32.5s11 -20.333 19 -28zM39.9922 422.993l319 134l25 -91l-344 -95v52z" />
    <glyph glyph-name="U0C1D_U0C41.psts" horiz-adv-x="1267" 
d="M537 6c-31.333 14 -71.333 21.002 -120 21.002h-25c-32.667 0 -70.667 -4.66699 -114 -14c10 15.333 23.167 34 39.5 56l38.5 52c4 5.33301 17.667 5 41 -1c43.333 -10.667 69 -22.334 77 -35.001c16 6 31.667 18.667 47 38s24.5 43.833 27.5 73.5
s-3.16699 64.167 -18.5 103.5s-46 82.333 -92 129h142c42 -66.667 62.667 -135 62 -205c-1.33301 -80.667 -36.333 -153.334 -105 -218.001zM797 0.00195312c-50.667 18.667 -98.999 25.001 -144.999 19.001c-34.667 0 -73.667 -4.33301 -117 -13l25 36l24.5 34.5l27.5 38.5
c6 6 20.333 5.33301 43 -2c44 -12.667 70.333 -24 79 -34c23.333 8 42.333 27.333 57 58c27.333 57.333 19.666 123.666 -23.001 198.999c-16.667 28.667 -40 58.667 -70 90h138c41.333 -66 62 -134.667 62 -206c0 -82.667 -33.667 -156 -101 -220zM20.001 411.003l271 176
l59 -76l-306 -144zM334.001 414.003c78.667 -36 113.667 -93.3311 105 -171.998c-7.33301 -70 -36.333 -130 -87 -180c-26 -25.333 -57.333 -43.333 -94 -54c-66.667 -19.333 -125.667 -6.33301 -177 39c-22 19.333 -39.667 41.666 -53 66.999s-21.833 47.166 -25.5 65.499
s-3.5 36.333 0.5 54s10.5 35.5 19.5 53.5s20 36 33 54s26.5 33.667 40.5 47c30 30 58.333 46.333 85 49c54.667 6.66699 105.667 -1 153 -23zM264.001 77.0049c13.333 -2.66699 25.833 3.33203 37.5 17.999s21 32.834 28 54.501s10.5 44.667 10.5 69
s-5.16699 44.5 -15.5 60.5s-23 30.167 -38 42.5s-30.5 21.833 -46.5 28.5c-37.333 16.667 -65 17.334 -83 2.00098c-7.33301 -4.66699 -15.833 -13.834 -25.5 -27.501s-18 -29.5 -25 -47.5s-11.333 -37.667 -13 -59s2.5 -41.333 12.5 -60c24 -43.333 76.667 -70.333 158 -81
zM1063 0.00390625c-50.667 18.667 -98.668 24.998 -144.001 18.998c-35.333 0 -74.666 -4.33301 -117.999 -13l25 36c8 10 16.333 21.5 25 34.5s18 25.833 28 38.5c6 6 20.333 5.33301 43 -2c43.333 -12.667 69.333 -24 78 -34c10 3.33301 20.333 10 31 20
s19.5 22.667 26.5 38s11.833 32.833 14.5 52.5s1 41.834 -5 66.501c-14 56.667 -48 113.334 -102 170.001h137c41.333 -66 62 -134.667 62 -206c0 -82.667 -33.667 -156 -101 -220zM435 -127.998h87l35 119h-56z" />
    <glyph glyph-name="U0C18_U0C41.psts" horiz-adv-x="1062" 
d="M590 -2c-44.667 18 -92.999 24.333 -144.999 19c-35.333 0 -73.333 -4.33301 -114 -13c7.33301 12 15.166 23.5 23.499 34.5l26.5 36l29 38.5c4.66699 4.66699 18 3.66699 40 -3c42.667 -12 68.334 -23 77.001 -33c22 7.33301 41.333 26.333 58 57
c18 33.333 21.667 73.333 11 120c-13.333 56 -48 112.667 -104 170h138c58 -93.333 75.333 -186 52 -278c-14.667 -54.667 -45.334 -104 -92.001 -148zM56.001 358l-18 51l305 189l44 -105zM453.001 247c0 -63.333 -39.333 -145.333 -118 -246c-2 0 -7.5 2.33301 -16.5 7
s-20.167 10 -33.5 16c-51.333 24.667 -99.666 31.667 -144.999 21c-20 -4.66699 -39.5 -10.5 -58.5 -17.5s-32.667 -10.667 -41 -11s-15.833 4.66699 -22.5 15s-11.334 23.166 -14.001 38.499c-8 40 -6 73.167 6 99.5s26 45.833 42 58.5s32 21 48 25s30.333 4 43 0
s20.667 -11.667 24 -23c13.333 -41.333 35.666 -71.666 66.999 -90.999c52.667 -32.667 91.334 -25.667 116.001 21c30 57.333 27 115.333 -9 174c-8 13.333 -17.333 27 -28 41l118 46c16 -62.667 23.333 -120.667 22 -174zM81.501 129
c-2.33301 -10.667 -0.163086 -19.5 6.50391 -26.5s15 -8.66699 25 -5s18.667 10.167 26 19.5s12.166 19.5 14.499 30.5s0.166016 18.833 -6.50098 23.5c-8.66699 8.66699 -17.834 11.167 -27.501 7.5s-17.834 -10.167 -24.501 -19.5s-11.167 -19.333 -13.5 -30zM756.004 424
h138.001c58 -93.333 75.333 -186 52 -278c-14.667 -54.667 -45.334 -104 -92.001 -148c-44 18.667 -92 25 -144 19c-36 0 -74.333 -4.33301 -115 -13c7.33301 12 15.166 23.5 23.499 34.5l26.5 36l29 38.5c4.66699 4.66699 18 3.66699 40 -3
c41.333 -11.333 67.333 -22.333 78 -33c9.33301 3.33301 19.333 10 30 20s19.834 22.5 27.501 37.5s12.667 32.5 15 52.5s0.833008 42.333 -4.5 67c-13.333 56 -48 112.667 -104 170zM152.005 30l50 1l-19 -107l-77 -3z" />
    <glyph glyph-name="U0C1E_U0C41.psts" horiz-adv-x="1115" 
d="M581 170c30 102 46.333 164.333 49 187c22 0 51.667 2.33301 89 7l-49 -184zM528 292l256 13l13 -65l-308 -4zM473 123c-8.66699 -12.667 -16.334 -21.999 -23.001 -27.999l72 -59l-72 -46c-10 10.667 -18.833 20.5 -26.5 29.5s-15.5 17.5 -23.5 25.5s-14.333 15 -19 21
c-41.333 -33.333 -91.666 -54 -150.999 -62c-56.667 -8 -104.667 -2.66699 -144 16c-42 19.333 -61.667 49 -59 89c4 35.333 25.667 62.333 65 81c32 14.667 72.667 21.334 122 20.001c33.333 -1.33301 72 -10.666 116 -27.999c20 -8 40.333 -18.333 61 -31
c15.333 12.667 29.666 29.667 42.999 51s22 40.166 26 56.499s5.5 30.166 4.5 41.499s-3.83301 21.333 -8.5 30c-6.66699 12.667 -19.667 25 -39 37c-15.333 8 -32 12.167 -50 12.5s-31.667 -6.16699 -41 -19.5c-9.33301 -14.667 -16.333 -37.334 -21 -68.001h-68
c2.66699 14 4 26.667 4 38c0 30 -4.83301 48.833 -14.5 56.5s-22.334 12.834 -38.001 15.501s-31 2.83398 -46 0.500977s-27.167 -7.33301 -36.5 -15s-11 -18.167 -5 -31.5c15.333 -32 32.333 -52.333 51 -61l-66 -55c-38.667 36 -65 71.333 -79 106
c-7.33301 18 -7.33301 33.667 0 47c7.33301 15.333 22.833 30.666 46.5 45.999s48.667 28.5 75 39.5s50.333 18.5 72 22.5s34.834 2 39.501 -6c6.66699 -13.333 12.334 -28.666 17.001 -45.999s8.66699 -31.333 12 -42c20 28 42.667 47.667 68 59
c20 8.66699 59 2.66699 117 -18c31.333 -11.333 49.833 -20.833 55.5 -28.5l20.5 -27.5c8 -10.667 13.667 -24 17 -40c6 -28.667 5.16699 -60.334 -2.5 -95.001s-31.5 -79.334 -71.5 -134.001zM165.5 150.501c-19 -3.66699 -30.165 -12.5 -33.498 -26.5
s1.66699 -24.5 15 -31.5s30.666 -11.167 51.999 -12.5c47.333 -2.66699 93.666 5.33301 138.999 24c-8 10.667 -22.667 20.167 -44 28.5s-43.333 14.333 -66 18s-43.5 3.66699 -62.5 0zM745.002 247.001c20.667 0 36.3291 -1.00098 46.9961 -3.00098
c1.33301 1.33301 1.83301 -2 1.5 -10s-0.666016 -18.667 -0.999023 -32s-0.166016 -27.666 0.500977 -42.999s2.66699 -29.333 6 -42c8 -30 24 -42.667 48 -38c9.33301 3.33301 19.333 10 30 20s19.5 22.667 26.5 38s12 32.833 15 52.5s1.5 41.834 -4.5 66.501
c-15.333 57.333 -49.666 114 -102.999 170h137c42 -67.333 63 -136 63 -206c0 -48.667 -14 -97.334 -42 -146.001c-14.667 -25.333 -34.667 -50 -60 -74c-6 3.33301 -11.167 7.16602 -15.5 11.499s-9.5 8.5 -15.5 12.5c-13.333 8.66699 -30.333 12.334 -51 11.001
c-27.333 -18.667 -50.666 -19 -69.999 -1c-30 29.333 -42.333 100 -37 212c8.66699 0.666992 17 1 25 1z" />
    <glyph glyph-name="U0C2D_U0C41.psts" horiz-adv-x="896" 
d="M313 419l203 155l10 -111l-207 -95zM382 400c66.667 -28 116.673 -59.335 150.006 -94.002c18 -18.667 26.333 -37.667 25 -57s-5.33301 -41 -12 -65s-16.834 -47.667 -30.501 -71s-31.334 -44.833 -53.001 -64.5s-47.167 -33.5 -76.5 -41.5
c-14 4.66699 -27.833 9.83398 -41.5 15.501s-26.834 10.5 -39.501 14.5c-28 9.33301 -50 12.333 -66 9c-8.66699 -0.666992 -36 -6.66699 -82 -18c-84 -20.667 -128.667 -29.667 -134 -27c-6 1.33301 -11.667 9 -17 23s-6.66602 31.667 -3.99902 53
c6.66699 54 39.667 103.667 99 149c-29.333 -5.33301 -57.333 5.33398 -84 32.001c-17.333 17.333 -22 40 -14 68c4.66699 14 14.667 30 30 48c22.667 27.333 47.667 45.166 75 53.499s53.166 10.333 77.499 6s44.833 -13.5 61.5 -27.5s26.167 -31.5 28.5 -52.5
s-1.33398 -39.833 -11.001 -56.5s-21.5 -30.5 -35.5 -41.5s-28.167 -20.333 -42.5 -28s-27.666 -16.5 -39.999 -26.5s-22.5 -22.667 -30.5 -38s-12.167 -29 -12.5 -41s2.66699 -21 9 -27s18.166 -5.83301 35.499 0.5s34.166 14 50.499 23s29.666 17 39.999 24s18 12 23 15
s8.33301 3.33301 10 1s6.33398 -8.33301 14.001 -18s16.834 -19.167 27.501 -28.5c27.333 -24 50.666 -32.667 69.999 -26c4.66699 0.666992 12.167 5.16699 22.5 13.5s20.166 19.5 29.499 33.5c24 34.667 32 71.334 24 110.001c-6.66699 38 -28 68.667 -64 92
c-14 9.33301 -27.667 16.5 -41 21.5s-23 8.83301 -29 11.5zM87.0059 380.998c-8.66699 -16 -10.168 -30.999 -4.50098 -44.999s14.334 -25.5 26.001 -34.5s24.5 -14.833 38.5 -17.5s24.667 -1 32 5c8 21.333 8.33301 38.666 1 51.999s-17.5 23.5 -30.5 30.5
s-26 11.167 -39 12.5s-20.833 0.333008 -23.5 -3zM592.005 423.999l137.997 -0.000976562c77.333 -124 84 -241.333 20 -352c-14.667 -25.333 -34.667 -50 -60 -74c-27.333 11.333 -66.666 18 -117.999 20c-11.333 0 -21 0.666992 -29 2c-38 0 -81 -1.33301 -129 -4
c46 40 78 72.333 96 97c4.66699 4.66699 18 3.66699 40 -3c43.333 -12 69.333 -23 78 -33c9.33301 3.33301 19.333 10 30 20s19.834 22.5 27.501 37.5s12.834 32.5 15.501 52.5s1 42.333 -5 67c-14 56.667 -48.667 113.334 -104 170.001zM212.002 29.998l50 1l-18 -107
l-77 -3z" />
    <glyph glyph-name="U0C2C_U0C41.psts" horiz-adv-x="892" 
d="M592 424l137.998 0.000976562c77.333 -124 84 -241.333 20 -352c-14.667 -25.333 -34.667 -50 -60 -74c-26 10.667 -52.167 16.667 -78.5 18s-47.5 3.33301 -63.5 6c-28 1.33301 -52.5 1.16602 -73.5 -0.500977l-45 -3.5c-9 -0.666992 -14.167 -1.33398 -15.5 -2.00098
c46 40 78 72.333 96 97c4.66699 4.66699 18 3.66699 40 -3c43.333 -12 69.333 -23 78 -33c9.33301 3.33301 19.333 10 30 20s19.834 22.5 27.501 37.5s12.834 32.5 15.501 52.5s1 42.333 -5 67c-14 56.667 -48.667 113.334 -104 170.001zM436.998 421.001
c24 -18.667 45.3301 -37.334 63.9971 -56.001c40.667 -44.667 60 -83.667 58 -117c-5.33301 -46.667 -20.333 -91.334 -45 -134.001c-32.667 -56 -74.667 -91.333 -126 -106c-14 4.66699 -27.833 9.83398 -41.5 15.501s-26.5 10.5 -38.5 14.5
c-29.333 9.33301 -52.666 12.333 -69.999 9c-9.33301 -0.666992 -36.333 -6.66699 -81 -18c-83.333 -20.667 -127.333 -29.667 -132 -27c-6 1.33301 -11.833 9 -17.5 23s-7.5 31.667 -5.5 53c6 54.667 39.667 104.334 101 149.001c-10.667 -2 -24.334 -0.333008 -41.001 5
s-30.834 14.333 -42.501 27s-18 28.667 -19 48s9.83301 42.333 32.5 69s48 44.167 76 52.5s54.167 10.333 78.5 6s44.833 -13.5 61.5 -27.5s26.167 -31.5 28.5 -52.5s-1.5 -39.833 -11.5 -56.5s-22.167 -30.5 -36.5 -41.5s-28.833 -20.333 -43.5 -28s-28 -16.5 -40 -26.5
s-22 -22.667 -30 -38s-12.167 -29 -12.5 -41s2.66699 -21 9 -27s15.166 -7 26.499 -3c37.333 13.333 65.833 26.833 85.5 40.5s31.834 22 36.501 25s7.83398 3.33301 9.50098 1s6.33398 -8.33301 14.001 -18s16.834 -19.167 27.501 -28.5c28 -24 52.333 -32.667 73 -26
c4 0.666992 11.167 5.16699 21.5 13.5s20.166 19.5 29.499 33.5c24.667 35.333 33 72 25 110c-7.33301 36.667 -29.666 75.334 -66.999 116.001c-23.333 25.333 -45.666 45.666 -66.999 60.999h110zM86.9951 382.001c-8.66699 -16 -10.167 -30.999 -4.5 -44.999
s14.334 -25.5 26.001 -34.5s24.5 -14.833 38.5 -17.5s24.667 -1 32 5c9.33301 21.333 10.166 38.666 2.49902 51.999s-18 23.5 -31 30.5s-26.167 11.167 -39.5 12.5s-21.333 0.333008 -24 -3z" />
    </font>
</defs>
</svg>
